<svg width="64" height="64" viewBox="0 0 64 64" fill="none" xmlns="http://www.w3.org/2000/svg">
<path d="M9.67085 3.00049V6.10682C9.67085 8.23414 7.9642 9.95867 5.85893 9.95867H3M9.67085 3.00049H37.1881C39.2934 3.00049 41 4.72502 41 6.85234V10.7042M9.67085 3.00049L3 9.95867M3 9.95867L3 51.1486C3 53.276 4.70665 55.0005 6.81191 55.0005H20.0345M27.5116 11.0005V14.0529C27.5116 16.1433 25.8457 17.8378 23.7907 17.8378H21M27.5116 11.0005L57.2791 11.0591C59.3341 11.0591 61 12.7537 61 14.8441V57.2155C61 59.3059 59.3341 61.0005 57.2791 61.0005L24.7209 60.9419C22.6659 60.9419 21 59.2473 21 57.1569V17.8378M27.5116 11.0005L21 17.8378" stroke="#000577" stroke-linecap="round" stroke-linejoin="round"/>
<path d="M28.5 26C28.5 25.1716 29.1716 24.5 30 24.5H52C52.8284 24.5 53.5 25.1716 53.5 26C53.5 26.8284 52.8284 27.5 52 27.5H30C29.1716 27.5 28.5 26.8284 28.5 26ZM28.5 34C28.5 33.1716 29.1716 32.5 30 32.5H52C52.8284 32.5 53.5 33.1716 53.5 34C53.5 34.8284 52.8284 35.5 52 35.5H30C29.1716 35.5 28.5 34.8284 28.5 34ZM28.5 42C28.5 41.1716 29.1716 40.5 30 40.5H52C52.8284 40.5 53.5 41.1716 53.5 42C53.5 42.8284 52.8284 43.5 52 43.5H30C29.1716 43.5 28.5 42.8284 28.5 42ZM28.5 50C28.5 49.1716 29.1716 48.5 30 48.5H52C52.8284 48.5 53.5 49.1716 53.5 50C53.5 50.8284 52.8284 51.5 52 51.5H30C29.1716 51.5 28.5 50.8284 28.5 50Z" fill="#7176FF" stroke="#7176FF"/>
</svg>
