<svg width="64" height="64" viewBox="0 0 64 64" fill="none" xmlns="http://www.w3.org/2000/svg">
<path d="M5 60L10 32L26 18L48 40L58 6M3 3V57C3 59.2091 4.79086 61 7 61H61" stroke="#000577" stroke-linecap="round"/>
<path d="M14 32C14 34.2091 12.2091 36 10 36C7.79086 36 6 34.2091 6 32C6 29.7909 7.79086 28 10 28C12.2091 28 14 29.7909 14 32Z" fill="#A8ABFF"/>
<path d="M30 18C30 20.2091 28.2091 22 26 22C23.7909 22 22 20.2091 22 18C22 15.7909 23.7909 14 26 14C28.2091 14 30 15.7909 30 18Z" fill="#A8ABFF"/>
<path d="M52 38C52 40.2091 50.2091 42 48 42C45.7909 42 44 40.2091 44 38C44 35.7909 45.7909 34 48 34C50.2091 34 52 35.7909 52 38Z" fill="#A8ABFF"/>
<path d="M62 6C62 8.20914 60.2091 10 58 10C55.7909 10 54 8.20914 54 6C54 3.79086 55.7909 2 58 2C60.2091 2 62 3.79086 62 6Z" fill="#A8ABFF"/>
</svg>
