<svg width="64" height="64" viewBox="0 0 64 64" fill="none" xmlns="http://www.w3.org/2000/svg">
<path d="M50.0645 22V40.4829C50.0645 42.122 48.7357 43.4507 47.0967 43.4507H25.0645V22H50.0645Z" fill="#A8ABFF"/>
<path d="M12 40.4829V22H23.0645V43.4507H14.9677C13.3287 43.4507 12 42.122 12 40.4829Z" fill="#A8ABFF"/>
<path d="M34 27C34 27.5523 34.4477 28 35 28H43C43.5523 28 44 27.5523 44 27C44 26.4477 43.5523 26 43 26H35C34.4477 26 34 26.4477 34 27Z" fill="#000577"/>
<path d="M3 14V7C3 4.79086 4.79086 3 7 3H57C59.2091 3 61 4.79086 61 7V14M3 14V57C3 59.2091 4.79086 61 7 61H57C59.2091 61 61 59.2091 61 57V14M3 14H61M12 6L9.5 8.5M9.5 8.5L7 11M9.5 8.5L7 6M9.5 8.5L12 11M10 53H54M54 53L49 48M54 53L49 58" stroke="#000577" stroke-linecap="round" stroke-linejoin="round"/>
</svg>
