<svg width="165" height="174" viewBox="0 0 165 174" fill="none" xmlns="http://www.w3.org/2000/svg">
<path d="M23.337 101.105C23.137 101.105 22.982 101.05 22.872 100.94C22.772 100.82 22.722 100.66 22.722 100.46V91.1C22.722 90.88 22.777 90.715 22.887 90.605C23.007 90.485 23.177 90.425 23.397 90.425H30.777C30.987 90.425 31.152 90.485 31.272 90.605C31.392 90.715 31.452 90.88 31.452 91.1V100.46C31.452 100.66 31.397 100.82 31.287 100.94C31.177 101.05 31.027 101.105 30.837 101.105C30.637 101.105 30.482 101.05 30.372 100.94C30.262 100.82 30.207 100.66 30.207 100.46V91.49H23.952V100.46C23.952 100.66 23.902 100.82 23.802 100.94C23.702 101.05 23.547 101.105 23.337 101.105ZM36.9852 101.135C36.2752 101.135 35.6602 100.98 35.1402 100.67C34.6202 100.36 34.2152 99.925 33.9252 99.365C33.6452 98.795 33.5052 98.125 33.5052 97.355C33.5052 96.775 33.5852 96.255 33.7452 95.795C33.9052 95.325 34.1402 94.925 34.4502 94.595C34.7602 94.265 35.1252 94.015 35.5452 93.845C35.9752 93.665 36.4552 93.575 36.9852 93.575C37.6952 93.575 38.3102 93.73 38.8302 94.04C39.3502 94.35 39.7502 94.79 40.0302 95.36C40.3202 95.92 40.4652 96.585 40.4652 97.355C40.4652 97.935 40.3852 98.455 40.2252 98.915C40.0652 99.375 39.8302 99.775 39.5202 100.115C39.2102 100.445 38.8402 100.7 38.4102 100.88C37.9902 101.05 37.5152 101.135 36.9852 101.135ZM36.9852 100.16C37.4352 100.16 37.8302 100.05 38.1702 99.83C38.5102 99.61 38.7702 99.29 38.9502 98.87C39.1402 98.45 39.2352 97.945 39.2352 97.355C39.2352 96.445 39.0302 95.75 38.6202 95.27C38.2202 94.79 37.6752 94.55 36.9852 94.55C36.5252 94.55 36.1252 94.66 35.7852 94.88C35.4552 95.09 35.1952 95.405 35.0052 95.825C34.8252 96.235 34.7352 96.745 34.7352 97.355C34.7352 98.255 34.9402 98.95 35.3502 99.44C35.7602 99.92 36.3052 100.16 36.9852 100.16ZM47.8848 101.105C47.6948 101.105 47.5448 101.05 47.4348 100.94C47.3348 100.83 47.2848 100.675 47.2848 100.475V94.685H44.3448V95.615C44.3448 96.395 44.3048 97.085 44.2248 97.685C44.1548 98.275 44.0398 98.785 43.8798 99.215C43.7198 99.645 43.5048 100.005 43.2348 100.295C42.9748 100.585 42.6498 100.83 42.2598 101.03C42.1298 101.09 42.0048 101.105 41.8848 101.075C41.7648 101.055 41.6648 101.01 41.5848 100.94C41.5148 100.86 41.4648 100.765 41.4348 100.655C41.4148 100.545 41.4298 100.435 41.4798 100.325C41.5298 100.215 41.6198 100.125 41.7498 100.055C42.0398 99.895 42.2748 99.695 42.4548 99.455C42.6448 99.215 42.7948 98.915 42.9048 98.555C43.0148 98.195 43.0898 97.775 43.1298 97.295C43.1798 96.805 43.2048 96.23 43.2048 95.57V94.4C43.2048 94.17 43.2648 94 43.3848 93.89C43.5048 93.77 43.6748 93.71 43.8948 93.71H47.8098C48.0298 93.71 48.1998 93.77 48.3198 93.89C48.4398 94 48.4998 94.17 48.4998 94.4V100.475C48.4998 100.675 48.4448 100.83 48.3348 100.94C48.2348 101.05 48.0848 101.105 47.8848 101.105ZM51.5331 101C51.3331 101 51.1781 100.945 51.0681 100.835C50.9581 100.725 50.9031 100.57 50.9031 100.37V94.22C50.9031 94.01 50.9531 93.855 51.0531 93.755C51.1631 93.655 51.3181 93.605 51.5181 93.605C51.7081 93.605 51.8531 93.655 51.9531 93.755C52.0631 93.855 52.1181 94.01 52.1181 94.22V96.305H54.3231C55.2531 96.305 55.9581 96.51 56.4381 96.92C56.9181 97.32 57.1581 97.89 57.1581 98.63C57.1581 99.12 57.0431 99.545 56.8131 99.905C56.5931 100.255 56.2731 100.525 55.8531 100.715C55.4431 100.905 54.9331 101 54.3231 101H51.5331ZM52.1181 100.13H54.2031C54.7731 100.13 55.2131 100.01 55.5231 99.77C55.8331 99.52 55.9881 99.145 55.9881 98.645C55.9881 98.135 55.8331 97.765 55.5231 97.535C55.2131 97.295 54.7731 97.175 54.2031 97.175H52.1181V100.13ZM61.5213 101.135C61.0013 101.135 60.4963 101.075 60.0063 100.955C59.5163 100.835 59.0963 100.66 58.7463 100.43C58.6263 100.35 58.5413 100.26 58.4913 100.16C58.4513 100.06 58.4363 99.96 58.4463 99.86C58.4563 99.76 58.4913 99.675 58.5513 99.605C58.6213 99.535 58.7113 99.495 58.8213 99.485C58.9413 99.465 59.0663 99.5 59.1963 99.59C59.5163 99.79 59.8763 99.94 60.2763 100.04C60.6863 100.14 61.0913 100.19 61.4913 100.19C62.2213 100.19 62.7413 100.085 63.0513 99.875C63.3613 99.655 63.5163 99.345 63.5163 98.945C63.5163 98.555 63.3813 98.26 63.1113 98.06C62.8513 97.86 62.4813 97.76 62.0013 97.76H60.6963C60.5363 97.76 60.4063 97.72 60.3063 97.64C60.2163 97.55 60.1713 97.435 60.1713 97.295C60.1713 97.155 60.2163 97.045 60.3063 96.965C60.4063 96.885 60.5363 96.845 60.6963 96.845H61.8513C62.2813 96.845 62.6213 96.745 62.8713 96.545C63.1313 96.345 63.2613 96.07 63.2613 95.72C63.2613 95.35 63.1263 95.06 62.8563 94.85C62.5863 94.63 62.1313 94.52 61.4913 94.52C61.1013 94.52 60.7263 94.565 60.3663 94.655C60.0063 94.735 59.6613 94.87 59.3313 95.06C59.1513 95.15 59.0013 95.18 58.8813 95.15C58.7613 95.11 58.6713 95.035 58.6113 94.925C58.5513 94.815 58.5413 94.695 58.5813 94.565C58.6213 94.435 58.7163 94.33 58.8663 94.25C59.2563 94.02 59.6863 93.85 60.1563 93.74C60.6263 93.63 61.1213 93.575 61.6413 93.575C62.5613 93.575 63.2513 93.755 63.7113 94.115C64.1813 94.475 64.4163 94.98 64.4163 95.63C64.4163 96.09 64.2563 96.48 63.9363 96.8C63.6163 97.12 63.1913 97.31 62.6613 97.37V97.175C63.2713 97.195 63.7563 97.37 64.1163 97.7C64.4863 98.02 64.6713 98.45 64.6713 98.99C64.6713 99.64 64.4063 100.16 63.8763 100.55C63.3463 100.94 62.5613 101.135 61.5213 101.135ZM69.6073 101.135C68.8973 101.135 68.2823 100.98 67.7623 100.67C67.2423 100.36 66.8373 99.925 66.5473 99.365C66.2673 98.795 66.1273 98.125 66.1273 97.355C66.1273 96.775 66.2073 96.255 66.3673 95.795C66.5273 95.325 66.7623 94.925 67.0723 94.595C67.3823 94.265 67.7473 94.015 68.1673 93.845C68.5973 93.665 69.0773 93.575 69.6073 93.575C70.3173 93.575 70.9323 93.73 71.4523 94.04C71.9723 94.35 72.3723 94.79 72.6523 95.36C72.9423 95.92 73.0873 96.585 73.0873 97.355C73.0873 97.935 73.0073 98.455 72.8473 98.915C72.6873 99.375 72.4523 99.775 72.1423 100.115C71.8323 100.445 71.4623 100.7 71.0323 100.88C70.6123 101.05 70.1373 101.135 69.6073 101.135ZM69.6073 100.16C70.0573 100.16 70.4523 100.05 70.7923 99.83C71.1323 99.61 71.3923 99.29 71.5723 98.87C71.7623 98.45 71.8573 97.945 71.8573 97.355C71.8573 96.445 71.6523 95.75 71.2423 95.27C70.8423 94.79 70.2973 94.55 69.6073 94.55C69.1473 94.55 68.7473 94.66 68.4073 94.88C68.0773 95.09 67.8173 95.405 67.6273 95.825C67.4473 96.235 67.3573 96.745 67.3573 97.355C67.3573 98.255 67.5623 98.95 67.9723 99.44C68.3823 99.92 68.9273 100.16 69.6073 100.16ZM75.6884 101C75.4884 101 75.3334 100.945 75.2234 100.835C75.1134 100.725 75.0584 100.57 75.0584 100.37V94.34C75.0584 94.14 75.1134 93.985 75.2234 93.875C75.3334 93.765 75.4884 93.71 75.6884 93.71H78.6134C79.1934 93.71 79.6684 93.785 80.0384 93.935C80.4084 94.075 80.6834 94.29 80.8634 94.58C81.0434 94.86 81.1334 95.21 81.1334 95.63C81.1334 96.09 80.9684 96.48 80.6384 96.8C80.3184 97.12 79.8984 97.31 79.3784 97.37V97.175C79.9984 97.195 80.4834 97.37 80.8334 97.7C81.1934 98.03 81.3734 98.46 81.3734 98.99C81.3734 99.61 81.1434 100.1 80.6834 100.46C80.2234 100.82 79.5734 101 78.7334 101H75.6884ZM76.2134 100.175H78.6884C79.1784 100.175 79.5534 100.07 79.8134 99.86C80.0834 99.64 80.2184 99.33 80.2184 98.93C80.2184 98.53 80.0834 98.225 79.8134 98.015C79.5534 97.805 79.1784 97.7 78.6884 97.7H76.2134V100.175ZM76.2134 96.875H78.5534C79.0034 96.875 79.3534 96.77 79.6034 96.56C79.8634 96.35 79.9934 96.06 79.9934 95.69C79.9934 95.32 79.8634 95.035 79.6034 94.835C79.3534 94.635 79.0034 94.535 78.5534 94.535H76.2134V96.875ZM85.5715 101.135C85.0715 101.135 84.6215 101.04 84.2215 100.85C83.8315 100.65 83.5215 100.38 83.2915 100.04C83.0615 99.7 82.9465 99.32 82.9465 98.9C82.9465 98.36 83.0815 97.935 83.3515 97.625C83.6315 97.315 84.0865 97.095 84.7165 96.965C85.3565 96.835 86.2265 96.77 87.3265 96.77H88.0015V97.565H87.3415C86.5315 97.565 85.8915 97.605 85.4215 97.685C84.9615 97.755 84.6365 97.88 84.4465 98.06C84.2665 98.24 84.1765 98.495 84.1765 98.825C84.1765 99.235 84.3165 99.57 84.5965 99.83C84.8865 100.09 85.2765 100.22 85.7665 100.22C86.1665 100.22 86.5165 100.125 86.8165 99.935C87.1265 99.745 87.3665 99.485 87.5365 99.155C87.7165 98.825 87.8065 98.445 87.8065 98.015V96.305C87.8065 95.685 87.6815 95.24 87.4315 94.97C87.1815 94.69 86.7715 94.55 86.2015 94.55C85.8515 94.55 85.5015 94.595 85.1515 94.685C84.8015 94.775 84.4315 94.92 84.0415 95.12C83.9015 95.19 83.7815 95.215 83.6815 95.195C83.5815 95.165 83.5015 95.11 83.4415 95.03C83.3815 94.95 83.3465 94.86 83.3365 94.76C83.3265 94.65 83.3465 94.545 83.3965 94.445C83.4565 94.345 83.5465 94.265 83.6665 94.205C84.1065 93.985 84.5415 93.825 84.9715 93.725C85.4015 93.625 85.8115 93.575 86.2015 93.575C86.8315 93.575 87.3515 93.68 87.7615 93.89C88.1715 94.09 88.4765 94.4 88.6765 94.82C88.8765 95.23 88.9765 95.76 88.9765 96.41V100.475C88.9765 100.675 88.9265 100.83 88.8265 100.94C88.7365 101.05 88.6015 101.105 88.4215 101.105C88.2315 101.105 88.0865 101.05 87.9865 100.94C87.8865 100.83 87.8365 100.675 87.8365 100.475V99.305H87.9715C87.8915 99.685 87.7365 100.01 87.5065 100.28C87.2865 100.55 87.0115 100.76 86.6815 100.91C86.3515 101.06 85.9815 101.135 85.5715 101.135ZM93.4775 101.105C93.2875 101.105 93.1375 101.05 93.0275 100.94C92.9175 100.83 92.8625 100.675 92.8625 100.475V94.685H90.6725C90.2925 94.685 90.1025 94.52 90.1025 94.19C90.1025 94.04 90.1525 93.925 90.2525 93.845C90.3525 93.755 90.4925 93.71 90.6725 93.71H96.2825C96.6525 93.71 96.8375 93.87 96.8375 94.19C96.8375 94.35 96.7875 94.475 96.6875 94.565C96.5975 94.645 96.4625 94.685 96.2825 94.685H94.0775V100.475C94.0775 100.675 94.0275 100.83 93.9275 100.94C93.8375 101.05 93.6875 101.105 93.4775 101.105ZM101.283 101.135C100.513 101.135 99.8482 100.985 99.2882 100.685C98.7382 100.375 98.3082 99.94 97.9982 99.38C97.6982 98.82 97.5482 98.15 97.5482 97.37C97.5482 96.61 97.6982 95.95 97.9982 95.39C98.2982 94.82 98.7082 94.375 99.2282 94.055C99.7582 93.735 100.368 93.575 101.058 93.575C101.548 93.575 101.988 93.66 102.378 93.83C102.768 93.99 103.098 94.225 103.368 94.535C103.648 94.845 103.858 95.22 103.998 95.66C104.148 96.1 104.223 96.595 104.223 97.145C104.223 97.305 104.178 97.425 104.088 97.505C103.998 97.575 103.868 97.61 103.698 97.61H98.4782V96.815H103.413L103.173 97.01C103.173 96.47 103.093 96.015 102.933 95.645C102.773 95.265 102.538 94.975 102.228 94.775C101.928 94.575 101.548 94.475 101.088 94.475C100.578 94.475 100.143 94.595 99.7832 94.835C99.4332 95.065 99.1682 95.39 98.9882 95.81C98.8082 96.22 98.7182 96.7 98.7182 97.25V97.34C98.7182 98.26 98.9382 98.96 99.3782 99.44C99.8282 99.92 100.463 100.16 101.283 100.16C101.623 100.16 101.958 100.115 102.288 100.025C102.628 99.935 102.958 99.785 103.278 99.575C103.418 99.485 103.543 99.445 103.653 99.455C103.773 99.455 103.868 99.49 103.938 99.56C104.008 99.62 104.053 99.7 104.073 99.8C104.103 99.89 104.093 99.99 104.043 100.1C104.003 100.21 103.918 100.305 103.788 100.385C103.458 100.625 103.068 100.81 102.618 100.94C102.168 101.07 101.723 101.135 101.283 101.135ZM111.708 101.105C111.518 101.105 111.368 101.05 111.258 100.94C111.158 100.83 111.108 100.675 111.108 100.475V94.685H108.168V95.615C108.168 96.395 108.128 97.085 108.048 97.685C107.978 98.275 107.863 98.785 107.703 99.215C107.543 99.645 107.328 100.005 107.058 100.295C106.798 100.585 106.473 100.83 106.083 101.03C105.953 101.09 105.828 101.105 105.708 101.075C105.588 101.055 105.488 101.01 105.408 100.94C105.338 100.86 105.288 100.765 105.258 100.655C105.238 100.545 105.253 100.435 105.303 100.325C105.353 100.215 105.443 100.125 105.573 100.055C105.863 99.895 106.098 99.695 106.278 99.455C106.468 99.215 106.618 98.915 106.728 98.555C106.838 98.195 106.913 97.775 106.953 97.295C107.003 96.805 107.028 96.23 107.028 95.57V94.4C107.028 94.17 107.088 94 107.208 93.89C107.328 93.77 107.498 93.71 107.718 93.71H111.633C111.853 93.71 112.023 93.77 112.143 93.89C112.263 94 112.323 94.17 112.323 94.4V100.475C112.323 100.675 112.268 100.83 112.158 100.94C112.058 101.05 111.908 101.105 111.708 101.105ZM115.356 101C115.156 101 115.001 100.945 114.891 100.835C114.781 100.725 114.726 100.57 114.726 100.37V94.22C114.726 94.01 114.776 93.855 114.876 93.755C114.986 93.655 115.141 93.605 115.341 93.605C115.531 93.605 115.676 93.655 115.776 93.755C115.886 93.855 115.941 94.01 115.941 94.22V96.305H118.146C119.076 96.305 119.781 96.51 120.261 96.92C120.741 97.32 120.981 97.89 120.981 98.63C120.981 99.12 120.866 99.545 120.636 99.905C120.416 100.255 120.096 100.525 119.676 100.715C119.266 100.905 118.756 101 118.146 101H115.356ZM115.941 100.13H118.026C118.596 100.13 119.036 100.01 119.346 99.77C119.656 99.52 119.811 99.145 119.811 98.645C119.811 98.135 119.656 97.765 119.346 97.535C119.036 97.295 118.596 97.175 118.026 97.175H115.941V100.13Z" fill="#242151"/>
<path d="M87.721 144.135C86.931 144.135 86.206 144.035 85.546 143.835C84.896 143.635 84.351 143.355 83.911 142.995C83.791 142.905 83.711 142.805 83.671 142.695C83.641 142.585 83.636 142.475 83.656 142.365C83.686 142.255 83.741 142.165 83.821 142.095C83.901 142.025 83.996 141.985 84.106 141.975C84.226 141.965 84.351 142.005 84.481 142.095C84.771 142.305 85.076 142.48 85.396 142.62C85.726 142.76 86.076 142.865 86.446 142.935C86.826 143.005 87.226 143.04 87.646 143.04C88.296 143.04 88.826 142.965 89.236 142.815C89.656 142.665 89.966 142.445 90.166 142.155C90.366 141.855 90.466 141.485 90.466 141.045C90.466 140.395 90.266 139.92 89.866 139.62C89.476 139.31 88.876 139.155 88.066 139.155H85.936C85.766 139.155 85.631 139.11 85.531 139.02C85.431 138.93 85.381 138.805 85.381 138.645C85.381 138.475 85.431 138.35 85.531 138.27C85.631 138.18 85.766 138.135 85.936 138.135H87.826C88.616 138.135 89.211 137.98 89.611 137.67C90.011 137.36 90.211 136.905 90.211 136.305C90.211 135.905 90.116 135.56 89.926 135.27C89.736 134.98 89.451 134.76 89.071 134.61C88.701 134.46 88.231 134.385 87.661 134.385C87.131 134.385 86.616 134.455 86.116 134.595C85.626 134.735 85.171 134.96 84.751 135.27C84.621 135.35 84.496 135.39 84.376 135.39C84.266 135.38 84.171 135.34 84.091 135.27C84.011 135.19 83.956 135.095 83.926 134.985C83.906 134.875 83.916 134.765 83.956 134.655C83.996 134.545 84.076 134.45 84.196 134.37C84.676 134 85.226 133.73 85.846 133.56C86.476 133.38 87.111 133.29 87.751 133.29C88.581 133.29 89.266 133.41 89.806 133.65C90.356 133.89 90.766 134.225 91.036 134.655C91.316 135.085 91.456 135.595 91.456 136.185C91.456 136.845 91.261 137.395 90.871 137.835C90.491 138.275 89.971 138.565 89.311 138.705V138.495C90.051 138.585 90.636 138.855 91.066 139.305C91.496 139.755 91.711 140.35 91.711 141.09C91.711 141.72 91.566 142.265 91.276 142.725C90.986 143.175 90.546 143.525 89.956 143.775C89.376 144.015 88.631 144.135 87.721 144.135ZM96.1457 144.135C95.6457 144.135 95.1957 144.04 94.7957 143.85C94.4057 143.65 94.0957 143.38 93.8657 143.04C93.6357 142.7 93.5207 142.32 93.5207 141.9C93.5207 141.36 93.6557 140.935 93.9257 140.625C94.2057 140.315 94.6607 140.095 95.2907 139.965C95.9307 139.835 96.8007 139.77 97.9007 139.77H98.5757V140.565H97.9157C97.1057 140.565 96.4657 140.605 95.9957 140.685C95.5357 140.755 95.2107 140.88 95.0207 141.06C94.8407 141.24 94.7507 141.495 94.7507 141.825C94.7507 142.235 94.8907 142.57 95.1707 142.83C95.4607 143.09 95.8507 143.22 96.3407 143.22C96.7407 143.22 97.0907 143.125 97.3907 142.935C97.7007 142.745 97.9407 142.485 98.1107 142.155C98.2907 141.825 98.3807 141.445 98.3807 141.015V139.305C98.3807 138.685 98.2557 138.24 98.0057 137.97C97.7557 137.69 97.3457 137.55 96.7757 137.55C96.4257 137.55 96.0757 137.595 95.7257 137.685C95.3757 137.775 95.0057 137.92 94.6157 138.12C94.4757 138.19 94.3557 138.215 94.2557 138.195C94.1557 138.165 94.0757 138.11 94.0157 138.03C93.9557 137.95 93.9207 137.86 93.9107 137.76C93.9007 137.65 93.9207 137.545 93.9707 137.445C94.0307 137.345 94.1207 137.265 94.2407 137.205C94.6807 136.985 95.1157 136.825 95.5457 136.725C95.9757 136.625 96.3857 136.575 96.7757 136.575C97.4057 136.575 97.9257 136.68 98.3357 136.89C98.7457 137.09 99.0507 137.4 99.2507 137.82C99.4507 138.23 99.5507 138.76 99.5507 139.41V143.475C99.5507 143.675 99.5007 143.83 99.4007 143.94C99.3107 144.05 99.1757 144.105 98.9957 144.105C98.8057 144.105 98.6607 144.05 98.5607 143.94C98.4607 143.83 98.4107 143.675 98.4107 143.475V142.305H98.5457C98.4657 142.685 98.3107 143.01 98.0807 143.28C97.8607 143.55 97.5857 143.76 97.2557 143.91C96.9257 144.06 96.5557 144.135 96.1457 144.135ZM102.537 144.105C102.337 144.105 102.182 144.05 102.072 143.94C101.972 143.83 101.922 143.675 101.922 143.475V137.4C101.922 137.17 101.982 137 102.102 136.89C102.222 136.77 102.392 136.71 102.612 136.71H107.592C107.812 136.71 107.982 136.77 108.102 136.89C108.222 137 108.282 137.17 108.282 137.4V143.475C108.282 143.675 108.227 143.83 108.117 143.94C108.007 144.05 107.857 144.105 107.667 144.105C107.477 144.105 107.327 144.05 107.217 143.94C107.117 143.83 107.067 143.675 107.067 143.475V137.685H103.137V143.475C103.137 143.675 103.087 143.83 102.987 143.94C102.887 144.05 102.737 144.105 102.537 144.105ZM111.296 146.805C111.096 146.805 110.946 146.75 110.846 146.64C110.746 146.54 110.696 146.39 110.696 146.19V137.22C110.696 137.02 110.746 136.87 110.846 136.77C110.946 136.66 111.091 136.605 111.281 136.605C111.481 136.605 111.631 136.66 111.731 136.77C111.841 136.87 111.896 137.02 111.896 137.22V138.645L111.731 138.435C111.891 137.865 112.206 137.415 112.676 137.085C113.156 136.745 113.726 136.575 114.386 136.575C115.036 136.575 115.601 136.73 116.081 137.04C116.571 137.34 116.946 137.775 117.206 138.345C117.476 138.905 117.611 139.575 117.611 140.355C117.611 141.125 117.476 141.795 117.206 142.365C116.946 142.925 116.576 143.36 116.096 143.67C115.616 143.98 115.046 144.135 114.386 144.135C113.726 144.135 113.161 143.97 112.691 143.64C112.221 143.3 111.901 142.85 111.731 142.29H111.911V146.19C111.911 146.39 111.856 146.54 111.746 146.64C111.636 146.75 111.486 146.805 111.296 146.805ZM114.131 143.16C114.591 143.16 114.986 143.05 115.316 142.83C115.656 142.61 115.916 142.29 116.096 141.87C116.286 141.45 116.381 140.945 116.381 140.355C116.381 139.445 116.176 138.75 115.766 138.27C115.366 137.79 114.821 137.55 114.131 137.55C113.681 137.55 113.286 137.66 112.946 137.88C112.606 138.09 112.341 138.405 112.151 138.825C111.971 139.235 111.881 139.745 111.881 140.355C111.881 141.255 112.086 141.95 112.496 142.44C112.906 142.92 113.451 143.16 114.131 143.16ZM122.618 144.135C121.908 144.135 121.293 143.98 120.773 143.67C120.253 143.36 119.848 142.925 119.558 142.365C119.278 141.795 119.138 141.125 119.138 140.355C119.138 139.775 119.218 139.255 119.378 138.795C119.538 138.325 119.773 137.925 120.083 137.595C120.393 137.265 120.758 137.015 121.178 136.845C121.608 136.665 122.088 136.575 122.618 136.575C123.328 136.575 123.943 136.73 124.463 137.04C124.983 137.35 125.383 137.79 125.663 138.36C125.953 138.92 126.098 139.585 126.098 140.355C126.098 140.935 126.018 141.455 125.858 141.915C125.698 142.375 125.463 142.775 125.153 143.115C124.843 143.445 124.473 143.7 124.043 143.88C123.623 144.05 123.148 144.135 122.618 144.135ZM122.618 143.16C123.068 143.16 123.463 143.05 123.803 142.83C124.143 142.61 124.403 142.29 124.583 141.87C124.773 141.45 124.868 140.945 124.868 140.355C124.868 139.445 124.663 138.75 124.253 138.27C123.853 137.79 123.308 137.55 122.618 137.55C122.158 137.55 121.758 137.66 121.418 137.88C121.088 138.09 120.828 138.405 120.638 138.825C120.458 139.235 120.368 139.745 120.368 140.355C120.368 141.255 120.573 141.95 120.983 142.44C121.393 142.92 121.938 143.16 122.618 143.16ZM131.174 144.135C130.444 144.135 129.814 143.975 129.284 143.655C128.754 143.335 128.344 142.89 128.054 142.32C127.774 141.74 127.634 141.07 127.634 140.31C127.634 139.73 127.714 139.21 127.874 138.75C128.034 138.29 128.269 137.9 128.579 137.58C128.889 137.25 129.259 137 129.689 136.83C130.129 136.66 130.624 136.575 131.174 136.575C131.534 136.575 131.909 136.63 132.299 136.74C132.689 136.85 133.044 137.04 133.364 137.31C133.464 137.38 133.529 137.465 133.559 137.565C133.589 137.665 133.589 137.765 133.559 137.865C133.529 137.955 133.479 138.035 133.409 138.105C133.339 138.165 133.249 138.2 133.139 138.21C133.039 138.22 132.934 138.185 132.824 138.105C132.564 137.905 132.299 137.765 132.029 137.685C131.759 137.605 131.499 137.565 131.249 137.565C130.859 137.565 130.519 137.63 130.229 137.76C129.939 137.88 129.694 138.055 129.494 138.285C129.294 138.515 129.139 138.8 129.029 139.14C128.929 139.48 128.879 139.875 128.879 140.325C128.879 141.195 129.084 141.885 129.494 142.395C129.904 142.895 130.489 143.145 131.249 143.145C131.499 143.145 131.754 143.105 132.014 143.025C132.284 142.945 132.554 142.805 132.824 142.605C132.934 142.525 133.039 142.49 133.139 142.5C133.239 142.51 133.324 142.55 133.394 142.62C133.464 142.68 133.509 142.76 133.529 142.86C133.559 142.96 133.559 143.06 133.529 143.16C133.499 143.25 133.434 143.33 133.334 143.4C133.014 143.66 132.664 143.85 132.284 143.97C131.904 144.08 131.534 144.135 131.174 144.135Z" fill="#242151"/>
<path d="M72.3301 122.5L70.8304 122.471L70.8308 122.448L70.8319 122.426L72.3301 122.5ZM72 139.409L70.5003 139.439L70.4997 139.409L70.5003 139.38L72 139.409ZM72.3301 155.909L70.8321 155.986L70.8309 155.962L70.8304 155.939L72.3301 155.909ZM74.1135 170.005C73.5584 170.62 72.6099 170.669 71.9949 170.113L61.9736 161.068C61.3586 160.513 61.3101 159.564 61.8652 158.949C62.4203 158.334 63.3688 158.286 63.9837 158.841L72.8916 166.881L80.9321 157.974C81.4872 157.359 82.4357 157.31 83.0507 157.865C83.6656 158.42 83.7142 159.369 83.1591 159.984L74.1135 170.005ZM74.4982 109.074L73.8283 122.574L70.8319 122.426L71.5018 108.926L74.4982 109.074ZM73.8298 122.529L73.4997 139.438L70.5003 139.38L70.8304 122.471L73.8298 122.529ZM73.4997 139.379L73.8298 155.879L70.8304 155.939L70.5003 139.439L73.4997 139.379ZM73.8281 155.832L74.498 168.923L71.502 169.077L70.8321 155.986L73.8281 155.832Z" fill="#242151" fill-opacity="0.5"/>
<path d="M36.6668 67.3333L35.3335 68.3333L34.0002 70L33.3335 72L33.6668 74L34.3335 76L35.3335 77.3333L36.6668 78.3333L38.3335 78.6667H103H106L108 77.6667L110 75.3333L110.667 73.6667L110.333 70.6667L108.667 68.3333L107.333 67.3333L100.667 63.6667L95.0002 60.6667L92.0002 59L89.6668 57.6667L87.3335 56.3333L86.3335 56L85.3335 56.6667L83.0002 58.3333L80.6668 59.6667L78.3335 61L75.3335 62L72.3335 62.6667H71.3335H70.3335L67.6668 62L65.3335 61L63.3335 60L61.3335 58.6667L59.3335 57.3333L57.6668 56L55.6668 57L54.0002 58L52.0002 59L48.3335 61L43.6668 63.6667L39.6668 65.6667L36.6668 67.3333Z" fill="#FF9900" stroke="#FF9900"/>
<path d="M72.0006 1.25C47.0006 1.25 48.2506 25 48.2506 25L47.8472 37.5H50.75C49.1908 33.4136 48.546 26.7262 52 27.5V24.7929C58.6924 22.787 72.0004 16.2428 72 12.5C72.0005 16.7046 87.0274 26.2128 91.8084 26.1586L92 27.5L94.5 28.75C95.2264 32.9239 94.1576 35.7329 93.25 37.5086H95.75V25C95.75 25 97.0006 1.25 72.0006 1.25Z" fill="#242151" stroke="#7A9FFF" stroke-linecap="round" stroke-linejoin="round"/>
<path d="M82.4452 49.3056C85.959 46.3629 88.0144 42.3877 88.7946 39.8581C94.9389 39.8581 95.3486 27.9053 90.4331 27.9053C90.4331 27.9053 90.6709 26.2697 90.7591 23.75M82.4452 49.3056C79.8097 51.5126 76.3538 53.1389 72 53.1389C61.8413 53.1389 56.5708 44.285 55.2054 39.8581C49.0611 39.8581 48.6514 27.9053 53.5669 27.9053C53.5669 27.9053 53.3291 26.2697 53.2409 23.75M82.4452 49.3056C82.4452 49.3056 83.8692 54.1865 86.3836 55.8426M57.6164 55.8426L35.9034 67.644C34.2561 68.7289 33.25 70.6702 33.25 72.7636C33.25 76.0698 35.7162 78.75 38.7584 78.75H105.242C108.284 78.75 110.75 76.0698 110.75 72.7636C110.75 70.6702 109.744 68.7289 108.097 67.644L86.3836 55.8426M57.6164 55.8426C60.1308 54.1865 61.5548 49.3056 61.5548 49.3056M57.6164 55.8426C68.3134 64.511 74.5954 64.8124 86.3836 55.8426" stroke="#000577" stroke-linecap="round" stroke-linejoin="round"/>
<path d="M67 30C67 31.3807 65.8807 32.5 64.5 32.5C63.1193 32.5 62 31.3807 62 30C62 28.6193 63.1193 27.5 64.5 27.5C65.8807 27.5 67 28.6193 67 30Z" fill="#242151"/>
<path d="M82 30C82 31.3807 80.8807 32.5 79.5 32.5C78.1193 32.5 77 31.3807 77 30C77 28.6193 78.1193 27.5 79.5 27.5C80.8807 27.5 82 28.6193 82 30Z" fill="#242151"/>
</svg>
