<svg width="165" height="195" viewBox="0 0 165 195" fill="none" xmlns="http://www.w3.org/2000/svg">
<path d="M33.7132 101.105C33.5232 101.105 33.3732 101.05 33.2632 100.94C33.1532 100.82 33.0982 100.66 33.0982 100.46V91.49H29.7232C29.5432 91.49 29.4032 91.44 29.3032 91.34C29.2032 91.24 29.1532 91.11 29.1532 90.95C29.1532 90.78 29.2032 90.65 29.3032 90.56C29.4032 90.47 29.5432 90.425 29.7232 90.425H37.7182C37.8982 90.425 38.0382 90.47 38.1382 90.56C38.2382 90.65 38.2882 90.78 38.2882 90.95C38.2882 91.12 38.2382 91.255 38.1382 91.355C38.0382 91.445 37.8982 91.49 37.7182 91.49H34.3432V100.46C34.3432 100.66 34.2882 100.82 34.1782 100.94C34.0782 101.05 33.9232 101.105 33.7132 101.105ZM41.5791 101.135C40.8091 101.135 40.1441 100.985 39.5841 100.685C39.0341 100.375 38.6041 99.94 38.2941 99.38C37.9941 98.82 37.8441 98.15 37.8441 97.37C37.8441 96.61 37.9941 95.95 38.2941 95.39C38.5941 94.82 39.0041 94.375 39.5241 94.055C40.0541 93.735 40.6641 93.575 41.3541 93.575C41.8441 93.575 42.2841 93.66 42.6741 93.83C43.0641 93.99 43.3941 94.225 43.6641 94.535C43.9441 94.845 44.1541 95.22 44.2941 95.66C44.4441 96.1 44.5191 96.595 44.5191 97.145C44.5191 97.305 44.4741 97.425 44.3841 97.505C44.2941 97.575 44.1641 97.61 43.9941 97.61H38.7741V96.815H43.7091L43.4691 97.01C43.4691 96.47 43.3891 96.015 43.2291 95.645C43.0691 95.265 42.8341 94.975 42.5241 94.775C42.2241 94.575 41.8441 94.475 41.3841 94.475C40.8741 94.475 40.4391 94.595 40.0791 94.835C39.7291 95.065 39.4641 95.39 39.2841 95.81C39.1041 96.22 39.0141 96.7 39.0141 97.25V97.34C39.0141 98.26 39.2341 98.96 39.6741 99.44C40.1241 99.92 40.7591 100.16 41.5791 100.16C41.9191 100.16 42.2541 100.115 42.5841 100.025C42.9241 99.935 43.2541 99.785 43.5741 99.575C43.7141 99.485 43.8391 99.445 43.9491 99.455C44.0691 99.455 44.1641 99.49 44.2341 99.56C44.3041 99.62 44.3491 99.7 44.3691 99.8C44.3991 99.89 44.3891 99.99 44.3391 100.1C44.2991 100.21 44.2141 100.305 44.0841 100.385C43.7541 100.625 43.3641 100.81 42.9141 100.94C42.4641 101.07 42.0191 101.135 41.5791 101.135ZM47.024 101.105C46.824 101.105 46.669 101.05 46.559 100.94C46.459 100.83 46.409 100.675 46.409 100.475V94.22C46.409 94.01 46.459 93.855 46.559 93.755C46.669 93.655 46.824 93.605 47.024 93.605C47.214 93.605 47.359 93.655 47.459 93.755C47.569 93.855 47.624 94.01 47.624 94.22V96.74H51.599V94.22C51.599 94.01 51.649 93.855 51.749 93.755C51.859 93.655 52.009 93.605 52.199 93.605C52.389 93.605 52.539 93.655 52.649 93.755C52.759 93.855 52.814 94.01 52.814 94.22V100.475C52.814 100.675 52.759 100.83 52.649 100.94C52.539 101.05 52.389 101.105 52.199 101.105C52.009 101.105 51.859 101.05 51.749 100.94C51.649 100.83 51.599 100.675 51.599 100.475V97.73H47.624V100.475C47.624 100.675 47.574 100.83 47.474 100.94C47.374 101.05 47.224 101.105 47.024 101.105ZM54.9427 103.055C54.7727 103.055 54.6427 103.005 54.5527 102.905C54.4627 102.805 54.4177 102.665 54.4177 102.485V100.625C54.4177 100.225 54.6177 100.025 55.0177 100.025H55.7377L55.0177 100.28C55.2877 99.92 55.5027 99.53 55.6627 99.11C55.8327 98.68 55.9577 98.2 56.0377 97.67C56.1177 97.14 56.1577 96.535 56.1577 95.855V94.4C56.1577 94.17 56.2177 94 56.3377 93.89C56.4577 93.77 56.6277 93.71 56.8477 93.71H60.6277C60.8577 93.71 61.0277 93.77 61.1377 93.89C61.2577 94 61.3177 94.17 61.3177 94.4V100.58L60.7627 100.025H61.8727C62.0627 100.025 62.2077 100.075 62.3077 100.175C62.4177 100.275 62.4727 100.425 62.4727 100.625V102.485C62.4727 102.865 62.2977 103.055 61.9477 103.055C61.7777 103.055 61.6477 103.005 61.5577 102.905C61.4677 102.805 61.4227 102.665 61.4227 102.485V101H55.4527V102.485C55.4527 102.865 55.2827 103.055 54.9427 103.055ZM56.3527 100.025H60.1627V94.67H57.2377V96.065C57.2377 96.815 57.1627 97.54 57.0127 98.24C56.8627 98.93 56.6427 99.525 56.3527 100.025ZM67.3896 101.135C66.6196 101.135 65.9546 100.985 65.3946 100.685C64.8446 100.375 64.4146 99.94 64.1046 99.38C63.8046 98.82 63.6546 98.15 63.6546 97.37C63.6546 96.61 63.8046 95.95 64.1046 95.39C64.4046 94.82 64.8146 94.375 65.3346 94.055C65.8646 93.735 66.4746 93.575 67.1646 93.575C67.6546 93.575 68.0946 93.66 68.4846 93.83C68.8746 93.99 69.2046 94.225 69.4746 94.535C69.7546 94.845 69.9646 95.22 70.1046 95.66C70.2546 96.1 70.3296 96.595 70.3296 97.145C70.3296 97.305 70.2846 97.425 70.1946 97.505C70.1046 97.575 69.9746 97.61 69.8046 97.61H64.5846V96.815H69.5196L69.2796 97.01C69.2796 96.47 69.1996 96.015 69.0396 95.645C68.8796 95.265 68.6446 94.975 68.3346 94.775C68.0346 94.575 67.6546 94.475 67.1946 94.475C66.6846 94.475 66.2496 94.595 65.8896 94.835C65.5396 95.065 65.2746 95.39 65.0946 95.81C64.9146 96.22 64.8246 96.7 64.8246 97.25V97.34C64.8246 98.26 65.0446 98.96 65.4846 99.44C65.9346 99.92 66.5696 100.16 67.3896 100.16C67.7296 100.16 68.0646 100.115 68.3946 100.025C68.7346 99.935 69.0646 99.785 69.3846 99.575C69.5246 99.485 69.6496 99.445 69.7596 99.455C69.8796 99.455 69.9746 99.49 70.0446 99.56C70.1146 99.62 70.1596 99.7 70.1796 99.8C70.2096 99.89 70.1996 99.99 70.1496 100.1C70.1096 100.21 70.0246 100.305 69.8946 100.385C69.5646 100.625 69.1746 100.81 68.7246 100.94C68.2746 101.07 67.8296 101.135 67.3896 101.135ZM72.8345 103.805C72.6345 103.805 72.4845 103.75 72.3845 103.64C72.2845 103.54 72.2345 103.39 72.2345 103.19V94.22C72.2345 94.02 72.2845 93.87 72.3845 93.77C72.4845 93.66 72.6295 93.605 72.8195 93.605C73.0195 93.605 73.1695 93.66 73.2695 93.77C73.3795 93.87 73.4345 94.02 73.4345 94.22V95.645L73.2695 95.435C73.4295 94.865 73.7445 94.415 74.2145 94.085C74.6945 93.745 75.2645 93.575 75.9245 93.575C76.5745 93.575 77.1395 93.73 77.6195 94.04C78.1095 94.34 78.4845 94.775 78.7445 95.345C79.0145 95.905 79.1495 96.575 79.1495 97.355C79.1495 98.125 79.0145 98.795 78.7445 99.365C78.4845 99.925 78.1145 100.36 77.6345 100.67C77.1545 100.98 76.5845 101.135 75.9245 101.135C75.2645 101.135 74.6995 100.97 74.2295 100.64C73.7595 100.3 73.4395 99.85 73.2695 99.29H73.4495V103.19C73.4495 103.39 73.3945 103.54 73.2845 103.64C73.1745 103.75 73.0245 103.805 72.8345 103.805ZM75.6695 100.16C76.1295 100.16 76.5245 100.05 76.8545 99.83C77.1945 99.61 77.4545 99.29 77.6345 98.87C77.8245 98.45 77.9195 97.945 77.9195 97.355C77.9195 96.445 77.7145 95.75 77.3045 95.27C76.9045 94.79 76.3595 94.55 75.6695 94.55C75.2195 94.55 74.8245 94.66 74.4845 94.88C74.1445 95.09 73.8795 95.405 73.6895 95.825C73.5095 96.235 73.4195 96.745 73.4195 97.355C73.4195 98.255 73.6245 98.95 74.0345 99.44C74.4445 99.92 74.9895 100.16 75.6695 100.16ZM81.7261 101.105C81.5261 101.105 81.3711 101.05 81.2611 100.94C81.1611 100.83 81.1111 100.675 81.1111 100.475V94.22C81.1111 94.01 81.1611 93.855 81.2611 93.755C81.3711 93.655 81.5261 93.605 81.7261 93.605C81.9161 93.605 82.0611 93.655 82.1611 93.755C82.2711 93.855 82.3261 94.01 82.3261 94.22V96.74H86.3011V94.22C86.3011 94.01 86.3511 93.855 86.4511 93.755C86.5611 93.655 86.7111 93.605 86.9011 93.605C87.0911 93.605 87.2411 93.655 87.3511 93.755C87.4611 93.855 87.5161 94.01 87.5161 94.22V100.475C87.5161 100.675 87.4611 100.83 87.3511 100.94C87.2411 101.05 87.0911 101.105 86.9011 101.105C86.7111 101.105 86.5611 101.05 86.4511 100.94C86.3511 100.83 86.3011 100.675 86.3011 100.475V97.73H82.3261V100.475C82.3261 100.675 82.2761 100.83 82.1761 100.94C82.0761 101.05 81.9261 101.105 81.7261 101.105ZM90.5448 101C90.3448 101 90.1898 100.945 90.0798 100.835C89.9698 100.725 89.9148 100.57 89.9148 100.37V94.22C89.9148 94.01 89.9648 93.855 90.0648 93.755C90.1748 93.655 90.3298 93.605 90.5298 93.605C90.7198 93.605 90.8648 93.655 90.9648 93.755C91.0748 93.855 91.1298 94.01 91.1298 94.22V96.305H93.3348C94.2648 96.305 94.9698 96.51 95.4498 96.92C95.9298 97.32 96.1698 97.89 96.1698 98.63C96.1698 99.12 96.0548 99.545 95.8248 99.905C95.6048 100.255 95.2848 100.525 94.8648 100.715C94.4548 100.905 93.9448 101 93.3348 101H90.5448ZM91.1298 100.13H93.2148C93.7848 100.13 94.2248 100.01 94.5348 99.77C94.8448 99.52 94.9998 99.145 94.9998 98.645C94.9998 98.135 94.8448 97.765 94.5348 97.535C94.2248 97.295 93.7848 97.175 93.2148 97.175H91.1298V100.13ZM97.8498 101.105C97.6598 101.105 97.5098 101.05 97.3998 100.94C97.2998 100.83 97.2498 100.675 97.2498 100.475V94.22C97.2498 94.01 97.2998 93.855 97.3998 93.755C97.5098 93.655 97.6598 93.605 97.8498 93.605C98.0498 93.605 98.1998 93.655 98.2998 93.755C98.4098 93.855 98.4648 94.01 98.4648 94.22V100.475C98.4648 100.895 98.2598 101.105 97.8498 101.105ZM104.172 101.135C103.402 101.135 102.737 100.985 102.177 100.685C101.627 100.375 101.197 99.94 100.887 99.38C100.587 98.82 100.437 98.15 100.437 97.37C100.437 96.61 100.587 95.95 100.887 95.39C101.187 94.82 101.597 94.375 102.117 94.055C102.647 93.735 103.257 93.575 103.947 93.575C104.437 93.575 104.877 93.66 105.267 93.83C105.657 93.99 105.987 94.225 106.257 94.535C106.537 94.845 106.747 95.22 106.887 95.66C107.037 96.1 107.112 96.595 107.112 97.145C107.112 97.305 107.067 97.425 106.977 97.505C106.887 97.575 106.757 97.61 106.587 97.61H101.367V96.815H106.302L106.062 97.01C106.062 96.47 105.982 96.015 105.822 95.645C105.662 95.265 105.427 94.975 105.117 94.775C104.817 94.575 104.437 94.475 103.977 94.475C103.467 94.475 103.032 94.595 102.672 94.835C102.322 95.065 102.057 95.39 101.877 95.81C101.697 96.22 101.607 96.7 101.607 97.25V97.34C101.607 98.26 101.827 98.96 102.267 99.44C102.717 99.92 103.352 100.16 104.172 100.16C104.512 100.16 104.847 100.115 105.177 100.025C105.517 99.935 105.847 99.785 106.167 99.575C106.307 99.485 106.432 99.445 106.542 99.455C106.662 99.455 106.757 99.49 106.827 99.56C106.897 99.62 106.942 99.7 106.962 99.8C106.992 99.89 106.982 99.99 106.932 100.1C106.892 100.21 106.807 100.305 106.677 100.385C106.347 100.625 105.957 100.81 105.507 100.94C105.057 101.07 104.612 101.135 104.172 101.135ZM34.3897 121.105C34.1897 121.105 34.0347 121.05 33.9247 120.94C33.8247 120.83 33.7747 120.675 33.7747 120.475V114.4C33.7747 114.17 33.8347 114 33.9547 113.89C34.0747 113.77 34.2447 113.71 34.4647 113.71H39.4447C39.6647 113.71 39.8347 113.77 39.9547 113.89C40.0747 114 40.1347 114.17 40.1347 114.4V120.475C40.1347 120.675 40.0797 120.83 39.9697 120.94C39.8597 121.05 39.7097 121.105 39.5197 121.105C39.3297 121.105 39.1797 121.05 39.0697 120.94C38.9697 120.83 38.9197 120.675 38.9197 120.475V114.685H34.9897V120.475C34.9897 120.675 34.9397 120.83 34.8397 120.94C34.7397 121.05 34.5897 121.105 34.3897 121.105ZM48.1295 121.105C47.9395 121.105 47.7895 121.05 47.6795 120.94C47.5795 120.83 47.5295 120.675 47.5295 120.475V114.685H44.5895V115.615C44.5895 116.395 44.5495 117.085 44.4695 117.685C44.3995 118.275 44.2845 118.785 44.1245 119.215C43.9645 119.645 43.7495 120.005 43.4795 120.295C43.2195 120.585 42.8945 120.83 42.5045 121.03C42.3745 121.09 42.2495 121.105 42.1295 121.075C42.0095 121.055 41.9095 121.01 41.8295 120.94C41.7595 120.86 41.7095 120.765 41.6795 120.655C41.6595 120.545 41.6745 120.435 41.7245 120.325C41.7745 120.215 41.8645 120.125 41.9945 120.055C42.2845 119.895 42.5195 119.695 42.6995 119.455C42.8895 119.215 43.0395 118.915 43.1495 118.555C43.2595 118.195 43.3345 117.775 43.3745 117.295C43.4245 116.805 43.4495 116.23 43.4495 115.57V114.4C43.4495 114.17 43.5095 114 43.6295 113.89C43.7495 113.77 43.9195 113.71 44.1395 113.71H48.0545C48.2745 113.71 48.4445 113.77 48.5645 113.89C48.6845 114 48.7445 114.17 48.7445 114.4V120.475C48.7445 120.675 48.6895 120.83 48.5795 120.94C48.4795 121.05 48.3295 121.105 48.1295 121.105ZM54.1928 121.135C53.4828 121.135 52.8678 120.98 52.3478 120.67C51.8278 120.36 51.4228 119.925 51.1328 119.365C50.8528 118.795 50.7128 118.125 50.7128 117.355C50.7128 116.775 50.7928 116.255 50.9528 115.795C51.1128 115.325 51.3478 114.925 51.6578 114.595C51.9678 114.265 52.3328 114.015 52.7528 113.845C53.1828 113.665 53.6628 113.575 54.1928 113.575C54.9028 113.575 55.5178 113.73 56.0378 114.04C56.5578 114.35 56.9578 114.79 57.2378 115.36C57.5278 115.92 57.6728 116.585 57.6728 117.355C57.6728 117.935 57.5928 118.455 57.4328 118.915C57.2728 119.375 57.0378 119.775 56.7278 120.115C56.4178 120.445 56.0478 120.7 55.6178 120.88C55.1978 121.05 54.7228 121.135 54.1928 121.135ZM54.1928 120.16C54.6428 120.16 55.0378 120.05 55.3778 119.83C55.7178 119.61 55.9778 119.29 56.1578 118.87C56.3478 118.45 56.4428 117.945 56.4428 117.355C56.4428 116.445 56.2378 115.75 55.8278 115.27C55.4278 114.79 54.8828 114.55 54.1928 114.55C53.7328 114.55 53.3328 114.66 52.9928 114.88C52.6628 115.09 52.4028 115.405 52.2128 115.825C52.0328 116.235 51.9428 116.745 51.9428 117.355C51.9428 118.255 52.1478 118.95 52.5578 119.44C52.9678 119.92 53.5128 120.16 54.1928 120.16ZM69.8588 123.055C69.6888 123.055 69.5588 123.005 69.4688 122.905C69.3788 122.815 69.3338 122.68 69.3338 122.5V121H60.2738C60.0738 121 59.9188 120.945 59.8088 120.835C59.6988 120.725 59.6438 120.57 59.6438 120.37V114.22C59.6438 114.01 59.6938 113.855 59.7938 113.755C59.8938 113.655 60.0388 113.605 60.2288 113.605C60.4188 113.605 60.5638 113.655 60.6638 113.755C60.7638 113.855 60.8138 114.01 60.8138 114.22V120.025H63.8588V114.22C63.8588 114.01 63.9088 113.855 64.0088 113.755C64.1088 113.655 64.2538 113.605 64.4438 113.605C64.6238 113.605 64.7638 113.655 64.8638 113.755C64.9638 113.855 65.0138 114.01 65.0138 114.22V120.025H68.0588V114.22C68.0588 114.01 68.1088 113.855 68.2088 113.755C68.3188 113.655 68.4638 113.605 68.6438 113.605C68.8338 113.605 68.9788 113.655 69.0788 113.755C69.1788 113.855 69.2288 114.01 69.2288 114.22V120.58L68.6738 120.025H69.7688C69.9688 120.025 70.1188 120.075 70.2188 120.175C70.3288 120.275 70.3838 120.425 70.3838 120.625V122.5C70.3838 122.87 70.2088 123.055 69.8588 123.055ZM74.3171 121.135C73.8171 121.135 73.3671 121.04 72.9671 120.85C72.5771 120.65 72.2671 120.38 72.0371 120.04C71.8071 119.7 71.6921 119.32 71.6921 118.9C71.6921 118.36 71.8271 117.935 72.0971 117.625C72.3771 117.315 72.8321 117.095 73.4621 116.965C74.1021 116.835 74.9721 116.77 76.0721 116.77H76.7471V117.565H76.0871C75.2771 117.565 74.6371 117.605 74.1671 117.685C73.7071 117.755 73.3821 117.88 73.1921 118.06C73.0121 118.24 72.9221 118.495 72.9221 118.825C72.9221 119.235 73.0621 119.57 73.3421 119.83C73.6321 120.09 74.0221 120.22 74.5121 120.22C74.9121 120.22 75.2621 120.125 75.5621 119.935C75.8721 119.745 76.1121 119.485 76.2821 119.155C76.4621 118.825 76.5521 118.445 76.5521 118.015V116.305C76.5521 115.685 76.4271 115.24 76.1771 114.97C75.9271 114.69 75.5171 114.55 74.9471 114.55C74.5971 114.55 74.2471 114.595 73.8971 114.685C73.5471 114.775 73.1771 114.92 72.7871 115.12C72.6471 115.19 72.5271 115.215 72.4271 115.195C72.3271 115.165 72.2471 115.11 72.1871 115.03C72.1271 114.95 72.0921 114.86 72.0821 114.76C72.0721 114.65 72.0921 114.545 72.1421 114.445C72.2021 114.345 72.2921 114.265 72.4121 114.205C72.8521 113.985 73.2871 113.825 73.7171 113.725C74.1471 113.625 74.5571 113.575 74.9471 113.575C75.5771 113.575 76.0971 113.68 76.5071 113.89C76.9171 114.09 77.2221 114.4 77.4221 114.82C77.6221 115.23 77.7221 115.76 77.7221 116.41V120.475C77.7221 120.675 77.6721 120.83 77.5721 120.94C77.4821 121.05 77.3471 121.105 77.1671 121.105C76.9771 121.105 76.8321 121.05 76.7321 120.94C76.6321 120.83 76.5821 120.675 76.5821 120.475V119.305H76.7171C76.6371 119.685 76.4821 120.01 76.2521 120.28C76.0321 120.55 75.7571 120.76 75.4271 120.91C75.0971 121.06 74.7271 121.135 74.3171 121.135ZM79.8231 123.055C79.6531 123.055 79.5231 123.005 79.4331 122.905C79.3431 122.805 79.2981 122.665 79.2981 122.485V120.625C79.2981 120.225 79.4981 120.025 79.8981 120.025H80.6181L79.8981 120.28C80.1681 119.92 80.3831 119.53 80.5431 119.11C80.7131 118.68 80.8381 118.2 80.9181 117.67C80.9981 117.14 81.0381 116.535 81.0381 115.855V114.4C81.0381 114.17 81.0981 114 81.2181 113.89C81.3381 113.77 81.5081 113.71 81.7281 113.71H85.5081C85.7381 113.71 85.9081 113.77 86.0181 113.89C86.1381 114 86.1981 114.17 86.1981 114.4V120.58L85.6431 120.025H86.7531C86.9431 120.025 87.0881 120.075 87.1881 120.175C87.2981 120.275 87.3531 120.425 87.3531 120.625V122.485C87.3531 122.865 87.1781 123.055 86.8281 123.055C86.6581 123.055 86.5281 123.005 86.4381 122.905C86.3481 122.805 86.3031 122.665 86.3031 122.485V121H80.3331V122.485C80.3331 122.865 80.1631 123.055 79.8231 123.055ZM81.2331 120.025H85.0431V114.67H82.1181V116.065C82.1181 116.815 82.0431 117.54 81.8931 118.24C81.7431 118.93 81.5231 119.525 81.2331 120.025ZM89.585 121.105C89.385 121.105 89.23 121.05 89.12 120.94C89.02 120.83 88.97 120.675 88.97 120.475V114.265C88.97 114.055 89.02 113.9 89.12 113.8C89.23 113.69 89.385 113.635 89.585 113.635C89.775 113.635 89.92 113.69 90.02 113.8C90.13 113.9 90.185 114.055 90.185 114.265V116.755H91.55L93.77 113.905C93.87 113.785 93.98 113.71 94.1 113.68C94.22 113.64 94.33 113.64 94.43 113.68C94.54 113.71 94.625 113.77 94.685 113.86C94.755 113.94 94.79 114.04 94.79 114.16C94.79 114.28 94.745 114.405 94.655 114.535L92.54 117.25L92.195 116.86C92.475 116.89 92.72 116.96 92.93 117.07C93.14 117.18 93.34 117.345 93.53 117.565C93.72 117.785 93.925 118.09 94.145 118.48L95.225 120.265C95.295 120.405 95.32 120.53 95.3 120.64C95.29 120.75 95.24 120.85 95.15 120.94C95.06 121.02 94.955 121.07 94.835 121.09C94.725 121.11 94.615 121.095 94.505 121.045C94.395 120.995 94.295 120.905 94.205 120.775L93.02 118.795C92.85 118.515 92.69 118.3 92.54 118.15C92.39 117.99 92.22 117.88 92.03 117.82C91.84 117.76 91.605 117.73 91.325 117.73H90.185V120.475C90.185 120.675 90.13 120.83 90.02 120.94C89.92 121.05 89.775 121.105 89.585 121.105ZM97.4205 121.105C97.3105 121.105 97.2105 121.08 97.1205 121.03C97.0405 120.99 96.9755 120.92 96.9255 120.82C96.8855 120.72 96.8655 120.595 96.8655 120.445V114.205C96.8655 114.005 96.9155 113.855 97.0155 113.755C97.1155 113.655 97.2505 113.605 97.4205 113.605C97.6005 113.605 97.7355 113.655 97.8255 113.755C97.9255 113.855 97.9755 114.005 97.9755 114.205V119.845H97.6005L101.966 113.995C102.046 113.885 102.141 113.795 102.251 113.725C102.361 113.645 102.501 113.605 102.671 113.605C102.791 113.605 102.891 113.625 102.971 113.665C103.051 113.705 103.111 113.775 103.151 113.875C103.201 113.965 103.226 114.09 103.226 114.25V120.505C103.226 120.695 103.176 120.845 103.076 120.955C102.986 121.055 102.851 121.105 102.671 121.105C102.491 121.105 102.351 121.055 102.251 120.955C102.161 120.845 102.116 120.695 102.116 120.505V114.85H102.491L98.1105 120.715C98.0405 120.815 97.9505 120.905 97.8405 120.985C97.7405 121.065 97.6005 121.105 97.4205 121.105Z" fill="#242151"/>
<path d="M70.3301 142.5L68.8304 142.471L68.8308 142.448L68.8319 142.426L70.3301 142.5ZM70 159.409L68.5003 159.439L68.4997 159.409L68.5003 159.38L70 159.409ZM70.3301 175.909L68.8321 175.986L68.8309 175.962L68.8304 175.939L70.3301 175.909ZM72.1135 190.005C71.5584 190.62 70.6099 190.669 69.9949 190.113L59.9736 181.068C59.3586 180.513 59.3101 179.564 59.8652 178.949C60.4203 178.334 61.3688 178.286 61.9837 178.841L70.8916 186.881L78.9321 177.974C79.4872 177.359 80.4357 177.31 81.0507 177.865C81.6656 178.42 81.7142 179.369 81.1591 179.984L72.1135 190.005ZM72.4982 129.074L71.8283 142.574L68.8319 142.426L69.5018 128.926L72.4982 129.074ZM71.8298 142.529L71.4997 159.438L68.5003 159.38L68.8304 142.471L71.8298 142.529ZM71.4997 159.379L71.8298 175.879L68.8304 175.939L68.5003 159.439L71.4997 159.379ZM71.8281 175.832L72.498 188.923L69.502 189.077L68.8321 175.986L71.8281 175.832Z" fill="#242151" fill-opacity="0.5"/>
<path d="M86.9393 164.135C85.9593 164.135 85.1043 163.915 84.3743 163.475C83.6543 163.025 83.0943 162.395 82.6943 161.585C82.3043 160.775 82.1093 159.815 82.1093 158.705C82.1093 157.865 82.2193 157.115 82.4393 156.455C82.6693 155.785 82.9943 155.22 83.4143 154.76C83.8343 154.29 84.3393 153.93 84.9293 153.68C85.5293 153.42 86.1993 153.29 86.9393 153.29C87.9393 153.29 88.7993 153.51 89.5193 153.95C90.2493 154.39 90.8093 155.015 91.1993 155.825C91.5993 156.625 91.7993 157.58 91.7993 158.69C91.7993 159.53 91.6843 160.285 91.4543 160.955C91.2243 161.625 90.8993 162.195 90.4793 162.665C90.0593 163.135 89.5493 163.5 88.9493 163.76C88.3593 164.01 87.6893 164.135 86.9393 164.135ZM86.9393 163.04C87.6993 163.04 88.3393 162.87 88.8593 162.53C89.3893 162.19 89.7943 161.695 90.0743 161.045C90.3543 160.395 90.4943 159.615 90.4943 158.705C90.4943 157.335 90.1843 156.275 89.5643 155.525C88.9543 154.765 88.0793 154.385 86.9393 154.385C86.1993 154.385 85.5643 154.555 85.0343 154.895C84.5143 155.235 84.1143 155.73 83.8343 156.38C83.5543 157.02 83.4143 157.795 83.4143 158.705C83.4143 160.065 83.7243 161.13 84.3443 161.9C84.9643 162.66 85.8293 163.04 86.9393 163.04ZM96.9684 164.135C96.2484 164.135 95.6234 163.98 95.0934 163.67C94.5734 163.35 94.1684 162.88 93.8784 162.26C93.5984 161.64 93.4584 160.88 93.4584 159.98V158.855C93.4584 157.885 93.5834 157.075 93.8334 156.425C94.0934 155.775 94.4834 155.25 95.0034 154.85C95.5334 154.45 96.1884 154.145 96.9684 153.935L99.1584 153.32C99.3384 153.27 99.4884 153.275 99.6084 153.335C99.7384 153.395 99.8184 153.505 99.8484 153.665C99.8884 153.835 99.8634 153.98 99.7734 154.1C99.6934 154.22 99.5634 154.305 99.3834 154.355L97.0584 154.985C96.5184 155.135 96.0684 155.36 95.7084 155.66C95.3484 155.96 95.0784 156.33 94.8984 156.77C94.7184 157.2 94.6284 157.69 94.6284 158.24V158.825H94.4184C94.5384 158.385 94.7284 158.005 94.9884 157.685C95.2484 157.365 95.5684 157.12 95.9484 156.95C96.3384 156.77 96.7684 156.68 97.2384 156.68C97.8684 156.68 98.4234 156.83 98.9034 157.13C99.3834 157.43 99.7534 157.855 100.013 158.405C100.283 158.955 100.418 159.61 100.418 160.37C100.418 161.13 100.273 161.795 99.9834 162.365C99.7034 162.925 99.3034 163.36 98.7834 163.67C98.2734 163.98 97.6684 164.135 96.9684 164.135ZM96.9234 163.16C97.4034 163.16 97.8084 163.055 98.1384 162.845C98.4784 162.625 98.7384 162.31 98.9184 161.9C99.0984 161.49 99.1884 160.99 99.1884 160.4C99.1884 159.53 98.9884 158.855 98.5884 158.375C98.1884 157.895 97.6384 157.655 96.9384 157.655C96.4684 157.655 96.0634 157.76 95.7234 157.97C95.3934 158.18 95.1384 158.485 94.9584 158.885C94.7784 159.275 94.6884 159.745 94.6884 160.295C94.6884 161.235 94.8834 161.95 95.2734 162.44C95.6734 162.92 96.2234 163.16 96.9234 163.16ZM103.004 166.805C102.804 166.805 102.654 166.75 102.554 166.64C102.454 166.54 102.404 166.39 102.404 166.19V157.22C102.404 157.02 102.454 156.87 102.554 156.77C102.654 156.66 102.799 156.605 102.989 156.605C103.189 156.605 103.339 156.66 103.439 156.77C103.549 156.87 103.604 157.02 103.604 157.22V158.645L103.439 158.435C103.599 157.865 103.914 157.415 104.384 157.085C104.864 156.745 105.434 156.575 106.094 156.575C106.744 156.575 107.309 156.73 107.789 157.04C108.279 157.34 108.654 157.775 108.914 158.345C109.184 158.905 109.319 159.575 109.319 160.355C109.319 161.125 109.184 161.795 108.914 162.365C108.654 162.925 108.284 163.36 107.804 163.67C107.324 163.98 106.754 164.135 106.094 164.135C105.434 164.135 104.869 163.97 104.399 163.64C103.929 163.3 103.609 162.85 103.439 162.29H103.619V166.19C103.619 166.39 103.564 166.54 103.454 166.64C103.344 166.75 103.194 166.805 103.004 166.805ZM105.839 163.16C106.299 163.16 106.694 163.05 107.024 162.83C107.364 162.61 107.624 162.29 107.804 161.87C107.994 161.45 108.089 160.945 108.089 160.355C108.089 159.445 107.884 158.75 107.474 158.27C107.074 157.79 106.529 157.55 105.839 157.55C105.389 157.55 104.994 157.66 104.654 157.88C104.314 158.09 104.049 158.405 103.859 158.825C103.679 159.235 103.589 159.745 103.589 160.355C103.589 161.255 103.794 161.95 104.204 162.44C104.614 162.92 105.159 163.16 105.839 163.16ZM113.591 164.135C113.091 164.135 112.641 164.04 112.241 163.85C111.851 163.65 111.541 163.38 111.311 163.04C111.081 162.7 110.966 162.32 110.966 161.9C110.966 161.36 111.101 160.935 111.371 160.625C111.651 160.315 112.106 160.095 112.736 159.965C113.376 159.835 114.246 159.77 115.346 159.77H116.021V160.565H115.361C114.551 160.565 113.911 160.605 113.441 160.685C112.981 160.755 112.656 160.88 112.466 161.06C112.286 161.24 112.196 161.495 112.196 161.825C112.196 162.235 112.336 162.57 112.616 162.83C112.906 163.09 113.296 163.22 113.786 163.22C114.186 163.22 114.536 163.125 114.836 162.935C115.146 162.745 115.386 162.485 115.556 162.155C115.736 161.825 115.826 161.445 115.826 161.015V159.305C115.826 158.685 115.701 158.24 115.451 157.97C115.201 157.69 114.791 157.55 114.221 157.55C113.871 157.55 113.521 157.595 113.171 157.685C112.821 157.775 112.451 157.92 112.061 158.12C111.921 158.19 111.801 158.215 111.701 158.195C111.601 158.165 111.521 158.11 111.461 158.03C111.401 157.95 111.366 157.86 111.356 157.76C111.346 157.65 111.366 157.545 111.416 157.445C111.476 157.345 111.566 157.265 111.686 157.205C112.126 156.985 112.561 156.825 112.991 156.725C113.421 156.625 113.831 156.575 114.221 156.575C114.851 156.575 115.371 156.68 115.781 156.89C116.191 157.09 116.496 157.4 116.696 157.82C116.896 158.23 116.996 158.76 116.996 159.41V163.475C116.996 163.675 116.946 163.83 116.846 163.94C116.756 164.05 116.621 164.105 116.441 164.105C116.251 164.105 116.106 164.05 116.006 163.94C115.906 163.83 115.856 163.675 115.856 163.475V162.305H115.991C115.911 162.685 115.756 163.01 115.526 163.28C115.306 163.55 115.031 163.76 114.701 163.91C114.371 164.06 114.001 164.135 113.591 164.135ZM122.442 164.135C121.722 164.135 121.097 163.98 120.567 163.67C120.047 163.35 119.642 162.88 119.352 162.26C119.072 161.64 118.932 160.88 118.932 159.98V158.855C118.932 157.885 119.057 157.075 119.307 156.425C119.567 155.775 119.957 155.25 120.477 154.85C121.007 154.45 121.662 154.145 122.442 153.935L124.632 153.32C124.812 153.27 124.962 153.275 125.082 153.335C125.212 153.395 125.292 153.505 125.322 153.665C125.362 153.835 125.337 153.98 125.247 154.1C125.167 154.22 125.037 154.305 124.857 154.355L122.532 154.985C121.992 155.135 121.542 155.36 121.182 155.66C120.822 155.96 120.552 156.33 120.372 156.77C120.192 157.2 120.102 157.69 120.102 158.24V158.825H119.892C120.012 158.385 120.202 158.005 120.462 157.685C120.722 157.365 121.042 157.12 121.422 156.95C121.812 156.77 122.242 156.68 122.712 156.68C123.342 156.68 123.897 156.83 124.377 157.13C124.857 157.43 125.227 157.855 125.487 158.405C125.757 158.955 125.892 159.61 125.892 160.37C125.892 161.13 125.747 161.795 125.457 162.365C125.177 162.925 124.777 163.36 124.257 163.67C123.747 163.98 123.142 164.135 122.442 164.135ZM122.397 163.16C122.877 163.16 123.282 163.055 123.612 162.845C123.952 162.625 124.212 162.31 124.392 161.9C124.572 161.49 124.662 160.99 124.662 160.4C124.662 159.53 124.462 158.855 124.062 158.375C123.662 157.895 123.112 157.655 122.412 157.655C121.942 157.655 121.537 157.76 121.197 157.97C120.867 158.18 120.612 158.485 120.432 158.885C120.252 159.275 120.162 159.745 120.162 160.295C120.162 161.235 120.357 161.95 120.747 162.44C121.147 162.92 121.697 163.16 122.397 163.16ZM130.908 164.135C130.198 164.135 129.583 163.98 129.063 163.67C128.543 163.36 128.138 162.925 127.848 162.365C127.568 161.795 127.428 161.125 127.428 160.355C127.428 159.775 127.508 159.255 127.668 158.795C127.828 158.325 128.063 157.925 128.373 157.595C128.683 157.265 129.048 157.015 129.468 156.845C129.898 156.665 130.378 156.575 130.908 156.575C131.618 156.575 132.233 156.73 132.753 157.04C133.273 157.35 133.673 157.79 133.953 158.36C134.243 158.92 134.388 159.585 134.388 160.355C134.388 160.935 134.308 161.455 134.148 161.915C133.988 162.375 133.753 162.775 133.443 163.115C133.133 163.445 132.763 163.7 132.333 163.88C131.913 164.05 131.438 164.135 130.908 164.135ZM130.908 163.16C131.358 163.16 131.753 163.05 132.093 162.83C132.433 162.61 132.693 162.29 132.873 161.87C133.063 161.45 133.158 160.945 133.158 160.355C133.158 159.445 132.953 158.75 132.543 158.27C132.143 157.79 131.598 157.55 130.908 157.55C130.448 157.55 130.048 157.66 129.708 157.88C129.378 158.09 129.118 158.405 128.928 158.825C128.748 159.235 128.658 159.745 128.658 160.355C128.658 161.255 128.863 161.95 129.273 162.44C129.683 162.92 130.228 163.16 130.908 163.16ZM138.489 164.105C138.299 164.105 138.149 164.05 138.039 163.94C137.929 163.83 137.874 163.675 137.874 163.475V157.685H135.684C135.304 157.685 135.114 157.52 135.114 157.19C135.114 157.04 135.164 156.925 135.264 156.845C135.364 156.755 135.504 156.71 135.684 156.71H141.294C141.664 156.71 141.849 156.87 141.849 157.19C141.849 157.35 141.799 157.475 141.699 157.565C141.609 157.645 141.474 157.685 141.294 157.685H139.089V163.475C139.089 163.675 139.039 163.83 138.939 163.94C138.849 164.05 138.699 164.105 138.489 164.105ZM143.639 164.105C143.439 164.105 143.284 164.05 143.174 163.94C143.074 163.83 143.024 163.675 143.024 163.475V157.265C143.024 157.055 143.074 156.9 143.174 156.8C143.284 156.69 143.439 156.635 143.639 156.635C143.829 156.635 143.974 156.69 144.074 156.8C144.184 156.9 144.239 157.055 144.239 157.265V159.755H145.604L147.824 156.905C147.924 156.785 148.034 156.71 148.154 156.68C148.274 156.64 148.384 156.64 148.484 156.68C148.594 156.71 148.679 156.77 148.739 156.86C148.809 156.94 148.844 157.04 148.844 157.16C148.844 157.28 148.799 157.405 148.709 157.535L146.594 160.25L146.249 159.86C146.529 159.89 146.774 159.96 146.984 160.07C147.194 160.18 147.394 160.345 147.584 160.565C147.774 160.785 147.979 161.09 148.199 161.48L149.279 163.265C149.349 163.405 149.374 163.53 149.354 163.64C149.344 163.75 149.294 163.85 149.204 163.94C149.114 164.02 149.009 164.07 148.889 164.09C148.779 164.11 148.669 164.095 148.559 164.045C148.449 163.995 148.349 163.905 148.259 163.775L147.074 161.795C146.904 161.515 146.744 161.3 146.594 161.15C146.444 160.99 146.274 160.88 146.084 160.82C145.894 160.76 145.659 160.73 145.379 160.73H144.239V163.475C144.239 163.675 144.184 163.83 144.074 163.94C143.974 164.05 143.829 164.105 143.639 164.105ZM153.23 164.135C152.73 164.135 152.28 164.04 151.88 163.85C151.49 163.65 151.18 163.38 150.95 163.04C150.72 162.7 150.605 162.32 150.605 161.9C150.605 161.36 150.74 160.935 151.01 160.625C151.29 160.315 151.745 160.095 152.375 159.965C153.015 159.835 153.885 159.77 154.985 159.77H155.66V160.565H155C154.19 160.565 153.55 160.605 153.08 160.685C152.62 160.755 152.295 160.88 152.105 161.06C151.925 161.24 151.835 161.495 151.835 161.825C151.835 162.235 151.975 162.57 152.255 162.83C152.545 163.09 152.935 163.22 153.425 163.22C153.825 163.22 154.175 163.125 154.475 162.935C154.785 162.745 155.025 162.485 155.195 162.155C155.375 161.825 155.465 161.445 155.465 161.015V159.305C155.465 158.685 155.34 158.24 155.09 157.97C154.84 157.69 154.43 157.55 153.86 157.55C153.51 157.55 153.16 157.595 152.81 157.685C152.46 157.775 152.09 157.92 151.7 158.12C151.56 158.19 151.44 158.215 151.34 158.195C151.24 158.165 151.16 158.11 151.1 158.03C151.04 157.95 151.005 157.86 150.995 157.76C150.985 157.65 151.005 157.545 151.055 157.445C151.115 157.345 151.205 157.265 151.325 157.205C151.765 156.985 152.2 156.825 152.63 156.725C153.06 156.625 153.47 156.575 153.86 156.575C154.49 156.575 155.01 156.68 155.42 156.89C155.83 157.09 156.135 157.4 156.335 157.82C156.535 158.23 156.635 158.76 156.635 159.41V163.475C156.635 163.675 156.585 163.83 156.485 163.94C156.395 164.05 156.26 164.105 156.08 164.105C155.89 164.105 155.745 164.05 155.645 163.94C155.545 163.83 155.495 163.675 155.495 163.475V162.305H155.63C155.55 162.685 155.395 163.01 155.165 163.28C154.945 163.55 154.67 163.76 154.34 163.91C154.01 164.06 153.64 164.135 153.23 164.135Z" fill="#242151"/>
<path d="M34.9071 33.4136C34.9071 32.309 35.8025 31.4136 36.9071 31.4136H101.512C102.616 31.4136 103.512 32.309 103.512 33.4136V77.1034H34.9071V33.4136Z" fill="white"/>
<path d="M34.9071 77.1034H103.512H108.5C108.776 77.1034 109 77.3273 109 77.6034V78C109 79.1045 108.104 80 107 80H31.4187C30.3141 80 29.4187 79.1045 29.4187 78V77.6034C29.4187 77.3273 29.6426 77.1034 29.9187 77.1034H34.9071Z" fill="white"/>
<path d="M103.512 77.1034V33.4136C103.512 32.309 102.616 31.4136 101.512 31.4136H36.9071C35.8025 31.4136 34.9071 32.309 34.9071 33.4136V77.1034M103.512 77.1034H34.9071M103.512 77.1034H108.5C108.776 77.1034 109 77.3273 109 77.6034V78C109 79.1045 108.104 80 107 80H31.4187C30.3141 80 29.4187 79.1045 29.4187 78V77.6034C29.4187 77.3273 29.6426 77.1034 29.9187 77.1034H34.9071" stroke="#000577"/>
<path d="M82.6128 52.7749L96.0159 52.7749" stroke="#000577" stroke-linecap="round" stroke-linejoin="round"/>
<path d="M82.6128 55.2881L96.0159 55.2881" stroke="#000577" stroke-linecap="round" stroke-linejoin="round"/>
<path d="M82.6128 57.801L96.0159 57.801" stroke="#000577" stroke-linecap="round" stroke-linejoin="round"/>
<path d="M82.6128 60.3142L96.0159 60.3142" stroke="#000577" stroke-linecap="round" stroke-linejoin="round"/>
<rect x="42.4031" y="35.1831" width="35.1832" height="35.1832" rx="2" fill="#242151"/>
<path d="M38.2146 37.2773V72.9737C38.2146 74.0782 39.11 74.9737 40.2146 74.9737H99.0418C100.146 74.9737 101.042 74.0782 101.042 72.9737V56.5444" stroke="#000577"/>
<path d="M105.744 56.1257L67.0211 56.1257C65.9166 56.1257 65.0211 55.2302 65.0211 54.1257L65.0211 27.7417L65.0211 26.2932C65.0211 25.1886 65.9166 24.2932 67.0211 24.2932L100.801 24.2932L105.744 24.2932C106.848 24.2932 107.744 25.1886 107.744 26.2932L107.744 27.7417L107.744 31.1902L107.744 54.1257C107.744 55.2302 106.848 56.1257 105.744 56.1257Z" fill="white"/>
<path d="M107.744 27.7417L107.744 26.2932C107.744 25.1886 106.848 24.2932 105.744 24.2932L100.801 24.2932L67.0211 24.2932C65.9166 24.2932 65.0211 25.1886 65.0211 26.2932L65.0211 27.7417M107.744 27.7417L107.744 31.1902L107.744 54.1257C107.744 55.2302 106.848 56.1257 105.744 56.1257L67.0211 56.1257C65.9166 56.1257 65.0211 55.2302 65.0211 54.1257L65.0211 27.7417M107.744 27.7417L65.0211 27.7417" stroke="#000577"/>
<path d="M91.8271 33.5078L105.23 33.5078" stroke="#000577" stroke-linecap="round" stroke-linejoin="round"/>
<path d="M91.8271 36.021L105.23 36.021" stroke="#000577" stroke-linecap="round" stroke-linejoin="round"/>
<path d="M91.8271 38.5339L105.23 38.5339" stroke="#000577" stroke-linecap="round" stroke-linejoin="round"/>
<path d="M91.8271 41.0471L105.23 41.0471" stroke="#000577" stroke-linecap="round" stroke-linejoin="round"/>
<rect x="69.2095" y="31.8325" width="20.1047" height="20.1047" rx="2" fill="#242151"/>
<rect x="62.1702" y="0.5" width="46.7487" height="15.7539" rx="1.5" fill="white" stroke="#000577"/>
<rect x="29.5" y="21.4424" width="46.7487" height="15.7539" rx="1.5" fill="white" stroke="#000577"/>
<path d="M78.843 5.02612H105.649" stroke="#000577" stroke-linecap="round" stroke-linejoin="round"/>
<path d="M46.1729 25.9685H72.9791" stroke="#000577" stroke-linecap="round" stroke-linejoin="round"/>
<path d="M78.843 8.37695H105.649" stroke="#000577" stroke-linecap="round" stroke-linejoin="round"/>
<path d="M46.1729 29.3193H72.9791" stroke="#000577" stroke-linecap="round" stroke-linejoin="round"/>
<path d="M78.843 11.3088H105.649" stroke="#000577" stroke-linecap="round" stroke-linejoin="round"/>
<path d="M46.1729 32.2512H72.9791" stroke="#000577" stroke-linecap="round" stroke-linejoin="round"/>
<path d="M63.3455 8.37686C63.3455 4.67569 66.3459 1.67529 70.047 1.67529C73.7482 1.67529 76.7486 4.67569 76.7486 8.37686C76.7486 12.078 73.7482 15.0784 70.047 15.0784C66.3459 15.0784 63.3455 12.078 63.3455 8.37686Z" fill="#FF9900"/>
<path d="M30.6753 23.188C30.6753 22.873 30.9306 22.6177 31.2456 22.6177H43.5081C43.8231 22.6177 44.0784 22.873 44.0784 23.188V35.4505C44.0784 35.7655 43.8231 36.0208 43.5081 36.0208H31.2456C30.9306 36.0208 30.6753 35.7655 30.6753 35.4505V23.188Z" fill="#FF9900"/>
<path d="M67.115 6.28271L70.0469 10.89L72.9789 6.28271" stroke="white" stroke-linecap="round" stroke-linejoin="round"/>
<path d="M32.7698 24.7119L41.9844 33.9266M32.7698 33.9266L41.9844 24.7119" stroke="white" stroke-linecap="round" stroke-linejoin="round"/>
<path d="M44.9163 17.5916C45.9818 8.32388 49.3749 6.13702 59.5759 6.70158" stroke="#000577" stroke-linecap="round" stroke-linejoin="round"/>
</svg>
