<svg width="165" height="174" viewBox="0 0 165 174" fill="none" xmlns="http://www.w3.org/2000/svg">
<path d="M38.6092 101.105C38.4192 101.105 38.2692 101.05 38.1592 100.94C38.0492 100.82 37.9942 100.66 37.9942 100.46V91.49H34.6192C34.4392 91.49 34.2992 91.44 34.1992 91.34C34.0992 91.24 34.0492 91.11 34.0492 90.95C34.0492 90.78 34.0992 90.65 34.1992 90.56C34.2992 90.47 34.4392 90.425 34.6192 90.425H42.6142C42.7942 90.425 42.9342 90.47 43.0342 90.56C43.1342 90.65 43.1842 90.78 43.1842 90.95C43.1842 91.12 43.1342 91.255 43.0342 91.355C42.9342 91.445 42.7942 91.49 42.6142 91.49H39.2392V100.46C39.2392 100.66 39.1842 100.82 39.0742 100.94C38.9742 101.05 38.8192 101.105 38.6092 101.105ZM46.4001 101.135C45.6301 101.135 44.9651 100.985 44.4051 100.685C43.8551 100.375 43.4251 99.94 43.1151 99.38C42.8151 98.82 42.6651 98.15 42.6651 97.37C42.6651 96.61 42.8151 95.95 43.1151 95.39C43.4151 94.82 43.8251 94.375 44.3451 94.055C44.8751 93.735 45.4851 93.575 46.1751 93.575C46.6651 93.575 47.1051 93.66 47.4951 93.83C47.8851 93.99 48.2151 94.225 48.4851 94.535C48.7651 94.845 48.9751 95.22 49.1151 95.66C49.2651 96.1 49.3401 96.595 49.3401 97.145C49.3401 97.305 49.2951 97.425 49.2051 97.505C49.1151 97.575 48.9851 97.61 48.8151 97.61H43.5951V96.815H48.5301L48.2901 97.01C48.2901 96.47 48.2101 96.015 48.0501 95.645C47.8901 95.265 47.6551 94.975 47.3451 94.775C47.0451 94.575 46.6651 94.475 46.2051 94.475C45.6951 94.475 45.2601 94.595 44.9001 94.835C44.5501 95.065 44.2851 95.39 44.1051 95.81C43.9251 96.22 43.8351 96.7 43.8351 97.25V97.34C43.8351 98.26 44.0551 98.96 44.4951 99.44C44.9451 99.92 45.5801 100.16 46.4001 100.16C46.7401 100.16 47.0751 100.115 47.4051 100.025C47.7451 99.935 48.0751 99.785 48.3951 99.575C48.5351 99.485 48.6601 99.445 48.7701 99.455C48.8901 99.455 48.9851 99.49 49.0551 99.56C49.1251 99.62 49.1701 99.7 49.1901 99.8C49.2201 99.89 49.2101 99.99 49.1601 100.1C49.1201 100.21 49.0351 100.305 48.9051 100.385C48.5751 100.625 48.1851 100.81 47.7351 100.94C47.2851 101.07 46.8401 101.135 46.4001 101.135ZM51.6985 101.105C51.4985 101.105 51.3485 101.05 51.2485 100.94C51.1485 100.83 51.0985 100.675 51.0985 100.475V94.22C51.0985 94.02 51.1485 93.87 51.2485 93.77C51.3485 93.66 51.4935 93.605 51.6835 93.605C51.8735 93.605 52.0185 93.66 52.1185 93.77C52.2285 93.87 52.2835 94.02 52.2835 94.22V95.51L52.1185 95.33C52.3285 94.75 52.6685 94.315 53.1385 94.025C53.6185 93.725 54.1685 93.575 54.7885 93.575C55.3685 93.575 55.8485 93.68 56.2285 93.89C56.6185 94.1 56.9085 94.42 57.0985 94.85C57.2885 95.27 57.3835 95.805 57.3835 96.455V100.475C57.3835 100.675 57.3285 100.83 57.2185 100.94C57.1185 101.05 56.9735 101.105 56.7835 101.105C56.5835 101.105 56.4285 101.05 56.3185 100.94C56.2185 100.83 56.1685 100.675 56.1685 100.475V96.53C56.1685 95.85 56.0335 95.355 55.7635 95.045C55.5035 94.725 55.0835 94.565 54.5035 94.565C53.8335 94.565 53.2985 94.775 52.8985 95.195C52.5085 95.605 52.3135 96.155 52.3135 96.845V100.475C52.3135 100.895 52.1085 101.105 51.6985 101.105ZM62.3989 101.135C61.7489 101.135 61.1789 100.98 60.6889 100.67C60.2089 100.36 59.8339 99.925 59.5639 99.365C59.3039 98.795 59.1739 98.125 59.1739 97.355C59.1739 96.575 59.3039 95.905 59.5639 95.345C59.8339 94.775 60.2089 94.34 60.6889 94.04C61.1789 93.73 61.7489 93.575 62.3989 93.575C63.0589 93.575 63.6239 93.74 64.0939 94.07C64.5639 94.4 64.8789 94.845 65.0389 95.405H64.8739V90.935C64.8739 90.735 64.9239 90.585 65.0239 90.485C65.1339 90.375 65.2889 90.32 65.4889 90.32C65.6789 90.32 65.8239 90.375 65.9239 90.485C66.0339 90.585 66.0889 90.735 66.0889 90.935V100.475C66.0889 100.675 66.0389 100.83 65.9389 100.94C65.8389 101.05 65.6889 101.105 65.4889 101.105C65.2989 101.105 65.1489 101.05 65.0389 100.94C64.9389 100.83 64.8889 100.675 64.8889 100.475V99.05L65.0539 99.26C64.8939 99.83 64.5739 100.285 64.0939 100.625C63.6239 100.965 63.0589 101.135 62.3989 101.135ZM62.6539 100.16C63.1039 100.16 63.4989 100.05 63.8389 99.83C64.1789 99.61 64.4389 99.29 64.6189 98.87C64.8089 98.45 64.9039 97.945 64.9039 97.355C64.9039 96.445 64.6989 95.75 64.2889 95.27C63.8889 94.79 63.3439 94.55 62.6539 94.55C62.1939 94.55 61.7939 94.66 61.4539 94.88C61.1239 95.09 60.8639 95.405 60.6739 95.825C60.4939 96.235 60.4039 96.745 60.4039 97.355C60.4039 98.255 60.6089 98.95 61.0189 99.44C61.4289 99.92 61.9739 100.16 62.6539 100.16ZM71.654 101.135C70.884 101.135 70.219 100.985 69.659 100.685C69.109 100.375 68.679 99.94 68.369 99.38C68.069 98.82 67.919 98.15 67.919 97.37C67.919 96.61 68.069 95.95 68.369 95.39C68.669 94.82 69.079 94.375 69.599 94.055C70.129 93.735 70.739 93.575 71.429 93.575C71.919 93.575 72.359 93.66 72.749 93.83C73.139 93.99 73.469 94.225 73.739 94.535C74.019 94.845 74.229 95.22 74.369 95.66C74.519 96.1 74.594 96.595 74.594 97.145C74.594 97.305 74.549 97.425 74.459 97.505C74.369 97.575 74.239 97.61 74.069 97.61H68.849V96.815H73.784L73.544 97.01C73.544 96.47 73.464 96.015 73.304 95.645C73.144 95.265 72.909 94.975 72.599 94.775C72.299 94.575 71.919 94.475 71.459 94.475C70.949 94.475 70.514 94.595 70.154 94.835C69.804 95.065 69.539 95.39 69.359 95.81C69.179 96.22 69.089 96.7 69.089 97.25V97.34C69.089 98.26 69.309 98.96 69.749 99.44C70.199 99.92 70.834 100.16 71.654 100.16C71.994 100.16 72.329 100.115 72.659 100.025C72.999 99.935 73.329 99.785 73.649 99.575C73.789 99.485 73.914 99.445 74.024 99.455C74.144 99.455 74.239 99.49 74.309 99.56C74.379 99.62 74.424 99.7 74.444 99.8C74.474 99.89 74.464 99.99 74.414 100.1C74.374 100.21 74.289 100.305 74.159 100.385C73.829 100.625 73.439 100.81 72.989 100.94C72.539 101.07 72.094 101.135 71.654 101.135ZM76.9674 101.105C76.7674 101.105 76.6124 101.05 76.5024 100.94C76.4024 100.83 76.3524 100.675 76.3524 100.475V94.22C76.3524 94.02 76.4024 93.87 76.5024 93.77C76.6024 93.66 76.7474 93.605 76.9374 93.605C77.1274 93.605 77.2724 93.66 77.3724 93.77C77.4824 93.87 77.5374 94.02 77.5374 94.22V95.435H77.3874C77.5474 94.845 77.8524 94.39 78.3024 94.07C78.7524 93.75 79.3074 93.58 79.9674 93.56C80.1174 93.55 80.2374 93.585 80.3274 93.665C80.4174 93.735 80.4674 93.86 80.4774 94.04C80.4874 94.21 80.4474 94.345 80.3574 94.445C80.2674 94.545 80.1274 94.605 79.9374 94.625L79.6974 94.655C79.0174 94.715 78.4924 94.935 78.1224 95.315C77.7624 95.685 77.5824 96.195 77.5824 96.845V100.475C77.5824 100.675 77.5274 100.83 77.4174 100.94C77.3174 101.05 77.1674 101.105 76.9674 101.105ZM86.4684 101.135C85.4284 101.135 84.5384 100.915 83.7984 100.475C83.0584 100.035 82.4884 99.41 82.0884 98.6C81.6984 97.79 81.5034 96.825 81.5034 95.705C81.5034 94.865 81.6134 94.115 81.8334 93.455C82.0634 92.785 82.3884 92.22 82.8084 91.76C83.2384 91.29 83.7634 90.93 84.3834 90.68C85.0034 90.42 85.6984 90.29 86.4684 90.29C87.0884 90.29 87.6784 90.38 88.2384 90.56C88.7984 90.73 89.2834 90.985 89.6934 91.325C89.8234 91.425 89.9084 91.54 89.9484 91.67C89.9984 91.79 90.0034 91.91 89.9634 92.03C89.9334 92.14 89.8734 92.235 89.7834 92.315C89.7034 92.385 89.6034 92.42 89.4834 92.42C89.3634 92.42 89.2284 92.37 89.0784 92.27C88.7184 91.98 88.3234 91.765 87.8934 91.625C87.4634 91.485 86.9984 91.415 86.4984 91.415C85.7084 91.415 85.0384 91.585 84.4884 91.925C83.9384 92.255 83.5234 92.74 83.2434 93.38C82.9634 94.02 82.8234 94.795 82.8234 95.705C82.8234 96.615 82.9634 97.395 83.2434 98.045C83.5234 98.685 83.9384 99.175 84.4884 99.515C85.0384 99.845 85.7084 100.01 86.4984 100.01C86.9884 100.01 87.4534 99.94 87.8934 99.8C88.3334 99.65 88.7384 99.43 89.1084 99.14C89.2584 99.04 89.3934 98.995 89.5134 99.005C89.6334 99.005 89.7334 99.04 89.8134 99.11C89.8934 99.18 89.9484 99.27 89.9784 99.38C90.0184 99.49 90.0184 99.605 89.9784 99.725C89.9484 99.845 89.8734 99.95 89.7534 100.04C89.3334 100.4 88.8384 100.675 88.2684 100.865C87.7084 101.045 87.1084 101.135 86.4684 101.135ZM92.4212 101.105C92.2212 101.105 92.0712 101.05 91.9712 100.94C91.8712 100.83 91.8212 100.675 91.8212 100.475V90.935C91.8212 90.735 91.8712 90.585 91.9712 90.485C92.0712 90.375 92.2212 90.32 92.4212 90.32C92.6112 90.32 92.7612 90.375 92.8712 90.485C92.9812 90.585 93.0362 90.735 93.0362 90.935V95.33H92.8412C93.0512 94.75 93.3912 94.315 93.8612 94.025C94.3412 93.725 94.8912 93.575 95.5112 93.575C96.0912 93.575 96.5712 93.68 96.9512 93.89C97.3412 94.1 97.6312 94.42 97.8212 94.85C98.0112 95.27 98.1062 95.805 98.1062 96.455V100.475C98.1062 100.675 98.0512 100.83 97.9412 100.94C97.8412 101.05 97.6962 101.105 97.5062 101.105C97.3062 101.105 97.1512 101.05 97.0412 100.94C96.9412 100.83 96.8912 100.675 96.8912 100.475V96.53C96.8912 95.85 96.7562 95.355 96.4862 95.045C96.2262 94.725 95.8062 94.565 95.2262 94.565C94.5562 94.565 94.0212 94.775 93.6212 95.195C93.2312 95.605 93.0362 96.155 93.0362 96.845V100.475C93.0362 100.895 92.8312 101.105 92.4212 101.105ZM102.642 101.135C102.142 101.135 101.692 101.04 101.292 100.85C100.902 100.65 100.592 100.38 100.362 100.04C100.132 99.7 100.017 99.32 100.017 98.9C100.017 98.36 100.152 97.935 100.422 97.625C100.702 97.315 101.157 97.095 101.787 96.965C102.427 96.835 103.297 96.77 104.397 96.77H105.072V97.565H104.412C103.602 97.565 102.962 97.605 102.492 97.685C102.032 97.755 101.707 97.88 101.517 98.06C101.337 98.24 101.247 98.495 101.247 98.825C101.247 99.235 101.387 99.57 101.667 99.83C101.957 100.09 102.347 100.22 102.837 100.22C103.237 100.22 103.587 100.125 103.887 99.935C104.197 99.745 104.437 99.485 104.607 99.155C104.787 98.825 104.877 98.445 104.877 98.015V96.305C104.877 95.685 104.752 95.24 104.502 94.97C104.252 94.69 103.842 94.55 103.272 94.55C102.922 94.55 102.572 94.595 102.222 94.685C101.872 94.775 101.502 94.92 101.112 95.12C100.972 95.19 100.852 95.215 100.752 95.195C100.652 95.165 100.572 95.11 100.512 95.03C100.452 94.95 100.417 94.86 100.407 94.76C100.397 94.65 100.417 94.545 100.467 94.445C100.527 94.345 100.617 94.265 100.737 94.205C101.177 93.985 101.612 93.825 102.042 93.725C102.472 93.625 102.882 93.575 103.272 93.575C103.902 93.575 104.422 93.68 104.832 93.89C105.242 94.09 105.547 94.4 105.747 94.82C105.947 95.23 106.047 95.76 106.047 96.41V100.475C106.047 100.675 105.997 100.83 105.897 100.94C105.807 101.05 105.672 101.105 105.492 101.105C105.302 101.105 105.157 101.05 105.057 100.94C104.957 100.83 104.907 100.675 104.907 100.475V99.305H105.042C104.962 99.685 104.807 100.01 104.577 100.28C104.357 100.55 104.082 100.76 103.752 100.91C103.422 101.06 103.052 101.135 102.642 101.135ZM111.076 101.135C110.426 101.135 109.856 100.98 109.366 100.67C108.886 100.36 108.511 99.925 108.241 99.365C107.981 98.795 107.851 98.125 107.851 97.355C107.851 96.575 107.981 95.905 108.241 95.345C108.511 94.775 108.886 94.34 109.366 94.04C109.856 93.73 110.426 93.575 111.076 93.575C111.736 93.575 112.301 93.74 112.771 94.07C113.241 94.4 113.556 94.845 113.716 95.405H113.551V90.935C113.551 90.735 113.601 90.585 113.701 90.485C113.811 90.375 113.966 90.32 114.166 90.32C114.356 90.32 114.501 90.375 114.601 90.485C114.711 90.585 114.766 90.735 114.766 90.935V100.475C114.766 100.675 114.716 100.83 114.616 100.94C114.516 101.05 114.366 101.105 114.166 101.105C113.976 101.105 113.826 101.05 113.716 100.94C113.616 100.83 113.566 100.675 113.566 100.475V99.05L113.731 99.26C113.571 99.83 113.251 100.285 112.771 100.625C112.301 100.965 111.736 101.135 111.076 101.135ZM111.331 100.16C111.781 100.16 112.176 100.05 112.516 99.83C112.856 99.61 113.116 99.29 113.296 98.87C113.486 98.45 113.581 97.945 113.581 97.355C113.581 96.445 113.376 95.75 112.966 95.27C112.566 94.79 112.021 94.55 111.331 94.55C110.871 94.55 110.471 94.66 110.131 94.88C109.801 95.09 109.541 95.405 109.351 95.825C109.171 96.235 109.081 96.745 109.081 97.355C109.081 98.255 109.286 98.95 109.696 99.44C110.106 99.92 110.651 100.16 111.331 100.16Z" fill="#242151"/>
<path d="M77.3301 122.5L75.8304 122.471L75.8308 122.448L75.8319 122.426L77.3301 122.5ZM77 139.409L75.5003 139.439L75.4997 139.409L75.5003 139.38L77 139.409ZM77.3301 155.909L75.8321 155.986L75.8309 155.962L75.8304 155.939L77.3301 155.909ZM79.1135 170.005C78.5584 170.62 77.6099 170.669 76.9949 170.113L66.9736 161.068C66.3586 160.513 66.3101 159.564 66.8652 158.949C67.4203 158.334 68.3688 158.286 68.9837 158.841L77.8916 166.881L85.9321 157.974C86.4872 157.359 87.4357 157.31 88.0507 157.865C88.6656 158.42 88.7142 159.369 88.1591 159.984L79.1135 170.005ZM79.4982 109.074L78.8283 122.574L75.8319 122.426L76.5018 108.926L79.4982 109.074ZM78.8298 122.529L78.4997 139.438L75.5003 139.38L75.8304 122.471L78.8298 122.529ZM78.4997 139.379L78.8298 155.879L75.8304 155.939L75.5003 139.439L78.4997 139.379ZM78.8281 155.832L79.498 168.923L76.502 169.077L75.8321 155.986L78.8281 155.832Z" fill="#242151" fill-opacity="0.5"/>
<path d="M94.1273 144.135C93.1473 144.135 92.2923 143.915 91.5623 143.475C90.8423 143.025 90.2823 142.395 89.8823 141.585C89.4923 140.775 89.2973 139.815 89.2973 138.705C89.2973 137.865 89.4073 137.115 89.6273 136.455C89.8573 135.785 90.1823 135.22 90.6023 134.76C91.0223 134.29 91.5273 133.93 92.1173 133.68C92.7173 133.42 93.3873 133.29 94.1273 133.29C95.1273 133.29 95.9873 133.51 96.7073 133.95C97.4373 134.39 97.9973 135.015 98.3873 135.825C98.7873 136.625 98.9873 137.58 98.9873 138.69C98.9873 139.53 98.8723 140.285 98.6423 140.955C98.4123 141.625 98.0873 142.195 97.6673 142.665C97.2473 143.135 96.7373 143.5 96.1373 143.76C95.5473 144.01 94.8773 144.135 94.1273 144.135ZM94.1273 143.04C94.8873 143.04 95.5273 142.87 96.0473 142.53C96.5773 142.19 96.9823 141.695 97.2623 141.045C97.5423 140.395 97.6823 139.615 97.6823 138.705C97.6823 137.335 97.3723 136.275 96.7523 135.525C96.1423 134.765 95.2673 134.385 94.1273 134.385C93.3873 134.385 92.7523 134.555 92.2223 134.895C91.7023 135.235 91.3023 135.73 91.0223 136.38C90.7423 137.02 90.6023 137.795 90.6023 138.705C90.6023 140.065 90.9123 141.13 91.5323 141.9C92.1523 142.66 93.0173 143.04 94.1273 143.04ZM103.211 144.105C103.021 144.105 102.871 144.05 102.761 143.94C102.651 143.83 102.596 143.675 102.596 143.475V137.685H100.406C100.026 137.685 99.8363 137.52 99.8363 137.19C99.8363 137.04 99.8863 136.925 99.9863 136.845C100.086 136.755 100.226 136.71 100.406 136.71H106.016C106.386 136.71 106.571 136.87 106.571 137.19C106.571 137.35 106.521 137.475 106.421 137.565C106.331 137.645 106.196 137.685 106.016 137.685H103.811V143.475C103.811 143.675 103.761 143.83 103.661 143.94C103.571 144.05 103.421 144.105 103.211 144.105ZM113.026 144.105C112.836 144.105 112.686 144.05 112.576 143.94C112.476 143.82 112.426 143.66 112.426 143.46V141.045C112.146 141.215 111.841 141.345 111.511 141.435C111.191 141.515 110.851 141.555 110.491 141.555C109.451 141.555 108.681 141.31 108.181 140.82C107.681 140.32 107.431 139.565 107.431 138.555V137.22C107.431 137.02 107.481 136.87 107.581 136.77C107.691 136.66 107.846 136.605 108.046 136.605C108.236 136.605 108.381 136.66 108.481 136.77C108.591 136.87 108.646 137.02 108.646 137.22V138.465C108.646 139.185 108.801 139.71 109.111 140.04C109.431 140.37 109.941 140.535 110.641 140.535C111.001 140.535 111.321 140.495 111.601 140.415C111.881 140.335 112.151 140.205 112.411 140.025V137.235C112.411 136.815 112.611 136.605 113.011 136.605C113.211 136.605 113.361 136.66 113.461 136.77C113.571 136.88 113.626 137.035 113.626 137.235V143.46C113.626 143.66 113.576 143.82 113.476 143.94C113.376 144.05 113.226 144.105 113.026 144.105ZM119.323 144.135C118.553 144.135 117.888 143.985 117.328 143.685C116.778 143.375 116.348 142.94 116.038 142.38C115.738 141.82 115.588 141.15 115.588 140.37C115.588 139.61 115.738 138.95 116.038 138.39C116.338 137.82 116.748 137.375 117.268 137.055C117.798 136.735 118.408 136.575 119.098 136.575C119.588 136.575 120.028 136.66 120.418 136.83C120.808 136.99 121.138 137.225 121.408 137.535C121.688 137.845 121.898 138.22 122.038 138.66C122.188 139.1 122.263 139.595 122.263 140.145C122.263 140.305 122.218 140.425 122.128 140.505C122.038 140.575 121.908 140.61 121.738 140.61H116.518V139.815H121.453L121.213 140.01C121.213 139.47 121.133 139.015 120.973 138.645C120.813 138.265 120.578 137.975 120.268 137.775C119.968 137.575 119.588 137.475 119.128 137.475C118.618 137.475 118.183 137.595 117.823 137.835C117.473 138.065 117.208 138.39 117.028 138.81C116.848 139.22 116.758 139.7 116.758 140.25V140.34C116.758 141.26 116.978 141.96 117.418 142.44C117.868 142.92 118.503 143.16 119.323 143.16C119.663 143.16 119.998 143.115 120.328 143.025C120.668 142.935 120.998 142.785 121.318 142.575C121.458 142.485 121.583 142.445 121.693 142.455C121.813 142.455 121.908 142.49 121.978 142.56C122.048 142.62 122.093 142.7 122.113 142.8C122.143 142.89 122.133 142.99 122.083 143.1C122.043 143.21 121.958 143.305 121.828 143.385C121.498 143.625 121.108 143.81 120.658 143.94C120.208 144.07 119.763 144.135 119.323 144.135ZM126.283 144.105C126.093 144.105 125.943 144.05 125.833 143.94C125.723 143.83 125.668 143.675 125.668 143.475V137.685H123.478C123.098 137.685 122.908 137.52 122.908 137.19C122.908 137.04 122.958 136.925 123.058 136.845C123.158 136.755 123.298 136.71 123.478 136.71H129.088C129.458 136.71 129.643 136.87 129.643 137.19C129.643 137.35 129.593 137.475 129.493 137.565C129.403 137.645 129.268 137.685 129.088 137.685H126.883V143.475C126.883 143.675 126.833 143.83 126.733 143.94C126.643 144.05 126.493 144.105 126.283 144.105Z" fill="#242151"/>
<path d="M36.3335 32.3332C36.3335 30.6764 37.6766 29.3333 39.3335 29.3333H47.3335C48.9903 29.3333 50.3335 30.6764 50.3335 32.3333V37.6666C50.3335 40.428 48.0949 42.6666 45.3335 42.6666H41.3335C38.5721 42.6666 36.3335 40.428 36.3335 37.6666V32.3332Z" fill="#FF9900"/>
<path d="M63.6665 33.6667C63.6665 32.0099 65.0096 30.6667 66.6665 30.6667H83.3332C84.99 30.6667 86.3332 32.0099 86.3332 33.6667V71.0001C86.3332 73.7615 84.0946 76.0001 81.3332 76.0001H68.6665C65.9051 76.0001 63.6665 73.7615 63.6665 71.0001V33.6667Z" fill="white"/>
<path d="M96.3335 67C96.3335 65.3431 97.6766 64 99.3335 64H107.333C108.99 64 110.333 65.3431 110.333 67V74.3333C110.333 75.9902 108.99 77.3333 107.333 77.3333H99.3335C97.6766 77.3333 96.3335 75.9902 96.3335 74.3333V67Z" fill="#FF9900"/>
<path d="M73 31.3333H77V41.3333C77 42.4378 76.1046 43.3333 75 43.3333C73.8954 43.3333 73 42.4378 73 41.3333V31.3333Z" fill="#FF9900"/>
<path d="M73 54H77V64C77 65.1046 76.1046 66 75 66C73.8954 66 73 65.1046 73 64V54Z" fill="#FF9900"/>
<path fill-rule="evenodd" clip-rule="evenodd" d="M88.3331 77.4999V25.4166C88.3331 24.9563 87.96 24.5833 87.4998 24.5833H85.4164C85.4164 24.5833 85.4164 25.1527 85.4164 25.8552C85.4164 26.9937 84.4935 27.9166 83.355 27.9166H66.6445C65.506 27.9166 64.5831 26.9937 64.5831 25.8552C64.5831 25.1527 64.5831 24.5833 64.5831 24.5833H62.4998C62.0395 24.5833 61.6664 24.9563 61.6664 25.4166V77.4999C61.6664 77.9601 62.0395 78.3332 62.4998 78.3332H87.4998C87.96 78.3332 88.3331 77.9601 88.3331 77.4999ZM66.6664 31.6666C65.7459 31.6666 64.9998 32.4128 64.9998 33.3333V49.9999C64.9998 50.9204 65.7459 51.6666 66.6664 51.6666H83.3331C84.2536 51.6666 84.9998 50.9204 84.9998 49.9999V33.3333C84.9998 32.4128 84.2536 31.6666 83.3331 31.6666H66.6664ZM66.6664 54.1666C65.7459 54.1666 64.9998 54.9128 64.9998 55.8332V72.4999C64.9998 73.4204 65.7459 74.1666 66.6664 74.1666H83.3331C84.2536 74.1666 84.9998 73.4204 84.9998 72.4999V55.8332C84.9998 54.9128 84.2536 54.1666 83.3331 54.1666H66.6664Z" fill="#242151"/>
<path d="M42.4998 29.9999C42.4998 29.5397 42.8729 29.1666 43.3331 29.1666C43.7933 29.1666 44.1664 29.5397 44.1664 29.9999V34.9999C44.1664 35.4602 43.7933 35.8333 43.3331 35.8333C42.8729 35.8333 42.4998 35.4602 42.4998 34.9999V29.9999Z" fill="#242151"/>
<path d="M103.333 64.1666C102.873 64.1666 102.5 64.5397 102.5 64.9999V69.9999C102.5 70.4602 102.873 70.8332 103.333 70.8332C103.793 70.8332 104.166 70.4602 104.166 69.9999V64.9999C104.166 64.5397 103.793 64.1666 103.333 64.1666Z" fill="#242151"/>
<path d="M89.5833 57.4167C89.3071 57.4167 89.0833 57.6405 89.0833 57.9167C89.0833 58.1928 89.3071 58.4167 89.5833 58.4167V57.4167ZM110 4.25C110.276 4.25 110.5 4.02614 110.5 3.75C110.5 3.47386 110.276 3.25 110 3.25V4.25ZM60.4166 76.3333C60.6927 76.3333 60.9166 76.1095 60.9166 75.8333C60.9166 75.5572 60.6927 75.3333 60.4166 75.3333V76.3333ZM41.75 8.33334C41.75 8.05719 41.5262 7.83333 41.25 7.83333C40.9739 7.83333 40.75 8.05719 40.75 8.33333L41.75 8.33334ZM41.25 24.5833L41.75 24.5833L41.25 24.5833ZM60.3338 30.4585C60.6061 30.5042 60.8639 30.3205 60.9096 30.0482C60.9553 29.7758 60.7716 29.518 60.4992 29.4723L60.3338 30.4585ZM79.0832 23.3333C79.0832 23.6095 79.307 23.8333 79.5832 23.8333C79.8593 23.8333 80.0832 23.6095 80.0832 23.3333H79.0832ZM89.5833 43.25C89.3071 43.25 89.0833 43.4739 89.0833 43.75C89.0833 44.0261 89.3071 44.25 89.5833 44.25V43.25ZM89.5833 52.625C89.3071 52.625 89.0833 52.8489 89.0833 53.125C89.0833 53.4011 89.3071 53.625 89.5833 53.625V52.625ZM90.3332 32.9167C90.3332 33.1928 90.557 33.4167 90.8332 33.4167C91.1093 33.4167 91.3332 33.1928 91.3332 32.9167H90.3332ZM91.3332 27.88C91.3332 27.6039 91.1093 27.38 90.8332 27.38C90.557 27.38 90.3332 27.6039 90.3332 27.88H91.3332ZM90.3332 40.5724C90.3332 40.8485 90.557 41.0724 90.8332 41.0724C91.1093 41.0724 91.3332 40.8485 91.3332 40.5724H90.3332ZM91.3332 35.5357C91.3332 35.2596 91.1093 35.0357 90.8332 35.0357C90.557 35.0357 90.3332 35.2596 90.3332 35.5357H91.3332ZM58.2498 50.5952C58.2498 50.8714 58.4737 51.0952 58.7498 51.0952C59.026 51.0952 59.2498 50.8714 59.2498 50.5952H58.2498ZM59.2498 45.5586C59.2498 45.2825 59.026 45.0586 58.7498 45.0586C58.4737 45.0586 58.2498 45.2825 58.2498 45.5586H59.2498ZM72.6248 31.6667V41.875H73.6248V31.6667H72.6248ZM74.7915 44.0417H75.2082V43.0417H74.7915V44.0417ZM77.3748 41.875V31.6667H76.3748V41.875H77.3748ZM75.2082 44.0417C76.4048 44.0417 77.3748 43.0716 77.3748 41.875H76.3748C76.3748 42.5193 75.8525 43.0417 75.2082 43.0417V44.0417ZM72.6248 41.875C72.6248 43.0716 73.5949 44.0417 74.7915 44.0417V43.0417C74.1472 43.0417 73.6248 42.5193 73.6248 41.875H72.6248ZM72.6248 54.1667V64.375H73.6248V54.1667H72.6248ZM74.7915 66.5417H75.2082V65.5417H74.7915V66.5417ZM77.3748 64.375V54.1667H76.3748V64.375H77.3748ZM75.2082 66.5417C76.4048 66.5417 77.3748 65.5716 77.3748 64.375H76.3748C76.3748 65.0193 75.8525 65.5417 75.2082 65.5417V66.5417ZM72.6248 64.375C72.6248 65.5716 73.5949 66.5417 74.7915 66.5417V65.5417C74.1472 65.5417 73.6248 65.0193 73.6248 64.375H72.6248ZM89.5833 58.4167H92.0832V57.4167H89.5833V58.4167ZM94.0832 60.4167V77.0833H95.0832V60.4167H94.0832ZM107.083 20.0833H112.083V19.0833H107.083V20.0833ZM115.083 17.0833V16.25H114.083V17.0833H115.083ZM58.8332 27.5V6.25H57.8332V27.5H58.8332ZM60.8332 4.25H110V3.25H60.8332V4.25ZM52.4165 62.0833V73.3333H53.4165V62.0833H52.4165ZM55.4165 76.3333H60.4166V75.3333H55.4165V76.3333ZM48.7498 60.0833H50.4165V59.0833H48.7498V60.0833ZM46.7498 69.1667V62.0833H45.7498V69.1667H46.7498ZM37.9165 72.1667H43.7498V71.1667H37.9165V72.1667ZM34.9165 47.0833V69.1667H35.9165V47.0833H34.9165ZM51.5832 29.5833V42.0833H52.5832V29.5833H51.5832ZM49.5832 44.0833H37.9165V45.0833H49.5832V44.0833ZM97.0832 80.0833H109.583V79.0833H97.0832V80.0833ZM112.583 77.0833V55.625H111.583V77.0833H112.583ZM105.083 41.25V22.0833H104.083V41.25H105.083ZM40.75 8.33333L40.75 24.5833L41.75 24.5833L41.75 8.33334L40.75 8.33333ZM43.75 27.5833H49.5832V26.5833H43.75V27.5833ZM112.083 13.25H82.0832V14.25H112.083V13.25ZM82.0832 13.25C80.4263 13.25 79.0832 14.5931 79.0832 16.25H80.0832C80.0832 15.1454 80.9786 14.25 82.0832 14.25V13.25ZM40.75 24.5833C40.7499 26.2402 42.0931 27.5833 43.75 27.5833V26.5833C42.6454 26.5833 41.7499 25.6879 41.75 24.5833L40.75 24.5833ZM102.083 44.25C103.74 44.25 105.083 42.9068 105.083 41.25H104.083C104.083 42.3546 103.188 43.25 102.083 43.25V44.25ZM112.583 55.625C112.583 53.9681 111.24 52.625 109.583 52.625V53.625C110.688 53.625 111.583 54.5204 111.583 55.625H112.583ZM51.5832 42.0833C51.5832 43.1879 50.6877 44.0833 49.5832 44.0833V45.0833C51.24 45.0833 52.5832 43.7402 52.5832 42.0833H51.5832ZM35.9165 47.0833C35.9165 45.9788 36.8119 45.0833 37.9165 45.0833V44.0833C36.2596 44.0833 34.9165 45.4265 34.9165 47.0833H35.9165ZM52.5832 29.5833C52.5832 27.9265 51.24 26.5833 49.5832 26.5833V27.5833C50.6877 27.5833 51.5832 28.4788 51.5832 29.5833H52.5832ZM37.9165 71.1667C36.8119 71.1667 35.9165 70.2712 35.9165 69.1667H34.9165C34.9165 70.8235 36.2596 72.1667 37.9165 72.1667V71.1667ZM45.7498 69.1667C45.7498 70.2712 44.8544 71.1667 43.7498 71.1667V72.1667C45.4067 72.1667 46.7498 70.8235 46.7498 69.1667H45.7498ZM48.7498 59.0833C47.093 59.0833 45.7498 60.4265 45.7498 62.0833H46.7498C46.7498 60.9788 47.6453 60.0833 48.7498 60.0833V59.0833ZM52.4165 73.3333C52.4165 74.9902 53.7596 76.3333 55.4165 76.3333V75.3333C54.3119 75.3333 53.4165 74.4379 53.4165 73.3333H52.4165ZM58.8332 6.25C58.8332 5.14543 59.7286 4.25 60.8332 4.25V3.25C59.1763 3.25 57.8332 4.59315 57.8332 6.25H58.8332ZM115.083 16.25C115.083 14.5931 113.74 13.25 112.083 13.25V14.25C113.188 14.25 114.083 15.1454 114.083 16.25H115.083ZM112.083 20.0833C113.74 20.0833 115.083 18.7402 115.083 17.0833H114.083C114.083 18.1879 113.188 19.0833 112.083 19.0833V20.0833ZM107.083 19.0833C105.426 19.0833 104.083 20.4265 104.083 22.0833H105.083C105.083 20.9788 105.979 20.0833 107.083 20.0833V19.0833ZM109.583 80.0833C111.24 80.0833 112.583 78.7402 112.583 77.0833H111.583C111.583 78.1879 110.688 79.0833 109.583 79.0833V80.0833ZM94.0832 77.0833C94.0832 78.7402 95.4263 80.0833 97.0832 80.0833V79.0833C95.9786 79.0833 95.0832 78.1879 95.0832 77.0833H94.0832ZM53.4165 62.0833C53.4165 60.4265 52.0734 59.0833 50.4165 59.0833V60.0833C51.5211 60.0833 52.4165 60.9788 52.4165 62.0833H53.4165ZM92.0832 58.4167C93.1877 58.4167 94.0832 59.3121 94.0832 60.4167H95.0832C95.0832 58.7598 93.74 57.4167 92.0832 57.4167V58.4167ZM57.8332 27.5C57.8332 28.987 58.9145 30.2204 60.3338 30.4585L60.4992 29.4723C59.5537 29.3137 58.8332 28.4905 58.8332 27.5H57.8332ZM79.0832 16.25V23.3333H80.0832V16.25H79.0832ZM89.5833 44.25H102.083V43.25H89.5833V44.25ZM109.583 52.625H89.5833V53.625H109.583V52.625ZM59.9166 25.1411V77.7756H60.9166V25.1411H59.9166ZM62.2243 80.0833H87.7754V79.0833H62.2243V80.0833ZM90.0832 77.7756V25.1411H89.0832V77.7756H90.0832ZM64.5832 22.8333H62.2243V23.8333H64.5832V22.8333ZM64.0832 23.3333V26.0723H65.0832V23.3333H64.0832ZM66.3909 28.38H83.6088V27.38H66.3909V28.38ZM87.7755 22.8333H85.4165V23.8333H87.7755V22.8333ZM85.4165 22.8333H64.5832V23.8333H85.4165V22.8333ZM85.9165 26.0723V23.3333H84.9165V26.0723H85.9165ZM91.3332 32.9167V27.88H90.3332V32.9167H91.3332ZM91.3332 40.5724V35.5357H90.3332V40.5724H91.3332ZM59.2498 50.5952V45.5586H58.2498V50.5952H59.2498ZM83.6088 28.38C84.8833 28.38 85.9165 27.3469 85.9165 26.0723H84.9165C84.9165 26.7946 84.331 27.38 83.6088 27.38V28.38ZM90.0832 25.1411C90.0832 23.8665 89.05 22.8333 87.7755 22.8333V23.8333C88.4977 23.8333 89.0832 24.4188 89.0832 25.1411H90.0832ZM87.7754 80.0833C89.05 80.0833 90.0832 79.0501 90.0832 77.7756H89.0832C89.0832 78.4978 88.4977 79.0833 87.7754 79.0833V80.0833ZM59.9166 77.7756C59.9166 79.0501 60.9498 80.0833 62.2243 80.0833V79.0833C61.5021 79.0833 60.9166 78.4978 60.9166 77.7756H59.9166ZM64.0832 26.0723C64.0832 27.3469 65.1164 28.38 66.3909 28.38V27.38C65.6687 27.38 65.0832 26.7946 65.0832 26.0723H64.0832ZM60.9166 25.1411C60.9166 24.4188 61.5021 23.8333 62.2243 23.8333V22.8333C60.9498 22.8333 59.9166 23.8665 59.9166 25.1411H60.9166ZM37.1665 30.8333C37.1665 30.189 37.6888 29.6667 38.3332 29.6667V28.6667C37.1366 28.6667 36.1665 29.6367 36.1665 30.8333H37.1665ZM38.3332 29.6667H48.3332V28.6667H38.3332V29.6667ZM48.3332 29.6667C48.9775 29.6667 49.4998 30.189 49.4998 30.8333H50.4998C50.4998 29.6367 49.5298 28.6667 48.3332 28.6667V29.6667ZM49.4998 30.8333V40.8333H50.4998V30.8333H49.4998ZM49.4998 40.8333C49.4998 41.4777 48.9775 42 48.3332 42V43C49.5298 43 50.4998 42.0299 50.4998 40.8333H49.4998ZM48.3332 42H38.3332V43H48.3332V42ZM38.3332 42C37.6888 42 37.1665 41.4777 37.1665 40.8333H36.1665C36.1665 42.0299 37.1366 43 38.3332 43V42ZM37.1665 40.8333V30.8333H36.1665V40.8333H37.1665ZM97.1665 65.8333C97.1665 65.189 97.6888 64.6667 98.3332 64.6667V63.6667C97.1366 63.6667 96.1665 64.6367 96.1665 65.8333H97.1665ZM98.3332 64.6667H108.333V63.6667H98.3332V64.6667ZM108.333 64.6667C108.978 64.6667 109.5 65.189 109.5 65.8333H110.5C110.5 64.6367 109.53 63.6667 108.333 63.6667V64.6667ZM109.5 65.8333V75.8333H110.5V65.8333H109.5ZM109.5 75.8333C109.5 76.4777 108.978 77 108.333 77V78C109.53 78 110.5 77.0299 110.5 75.8333H109.5ZM108.333 77H98.3332V78H108.333V77ZM98.3332 77C97.6888 77 97.1665 76.4777 97.1665 75.8333H96.1665C96.1665 77.0299 97.1366 78 98.3332 78V77ZM97.1665 75.8333V65.8333H96.1665V75.8333H97.1665Z" fill="#000577"/>
<path d="M47.5 62.9166C47.5 63.6069 46.9404 64.1666 46.25 64.1666C45.5596 64.1666 45 63.6069 45 62.9166C45 62.2262 45.5596 61.6666 46.25 61.6666C46.9404 61.6666 47.5 62.2262 47.5 62.9166Z" fill="#242151"/>
<path d="M53.3333 32.9166C53.3333 33.6069 52.7737 34.1666 52.0833 34.1666C51.393 34.1666 50.8333 33.6069 50.8333 32.9166C50.8333 32.2262 51.393 31.6666 52.0833 31.6666C52.7737 31.6666 53.3333 32.2262 53.3333 32.9166Z" fill="#242151"/>
<path d="M100 43.7499C100 44.4403 99.4403 44.9999 98.75 44.9999C98.0596 44.9999 97.5 44.4403 97.5 43.7499C97.5 43.0596 98.0596 42.4999 98.75 42.4999C99.4403 42.4999 100 43.0596 100 43.7499Z" fill="#242151"/>
<path d="M59.5833 9.58325C59.5833 10.2736 59.0237 10.8333 58.3333 10.8333C57.643 10.8333 57.0833 10.2736 57.0833 9.58325C57.0833 8.8929 57.643 8.33325 58.3333 8.33325C59.0237 8.33325 59.5833 8.8929 59.5833 9.58325Z" fill="#242151"/>
</svg>
