<svg width="165" height="106" viewBox="0 0 165 106" fill="none" xmlns="http://www.w3.org/2000/svg">
<path d="M34.337 101.105C34.137 101.105 33.982 101.05 33.872 100.94C33.772 100.82 33.722 100.66 33.722 100.46V91.1C33.722 90.88 33.777 90.715 33.887 90.605C34.007 90.485 34.177 90.425 34.397 90.425H41.777C41.987 90.425 42.152 90.485 42.272 90.605C42.392 90.715 42.452 90.88 42.452 91.1V100.46C42.452 100.66 42.397 100.82 42.287 100.94C42.177 101.05 42.027 101.105 41.837 101.105C41.637 101.105 41.482 101.05 41.372 100.94C41.262 100.82 41.207 100.66 41.207 100.46V91.49H34.952V100.46C34.952 100.66 34.902 100.82 34.802 100.94C34.702 101.05 34.547 101.105 34.337 101.105ZM47.9852 101.135C47.2752 101.135 46.6602 100.98 46.1402 100.67C45.6202 100.36 45.2152 99.925 44.9252 99.365C44.6452 98.795 44.5052 98.125 44.5052 97.355C44.5052 96.775 44.5852 96.255 44.7452 95.795C44.9052 95.325 45.1402 94.925 45.4502 94.595C45.7602 94.265 46.1252 94.015 46.5452 93.845C46.9752 93.665 47.4552 93.575 47.9852 93.575C48.6952 93.575 49.3102 93.73 49.8302 94.04C50.3502 94.35 50.7502 94.79 51.0302 95.36C51.3202 95.92 51.4652 96.585 51.4652 97.355C51.4652 97.935 51.3852 98.455 51.2252 98.915C51.0652 99.375 50.8302 99.775 50.5202 100.115C50.2102 100.445 49.8402 100.7 49.4102 100.88C48.9902 101.05 48.5152 101.135 47.9852 101.135ZM47.9852 100.16C48.4352 100.16 48.8302 100.05 49.1702 99.83C49.5102 99.61 49.7702 99.29 49.9502 98.87C50.1402 98.45 50.2352 97.945 50.2352 97.355C50.2352 96.445 50.0302 95.75 49.6202 95.27C49.2202 94.79 48.6752 94.55 47.9852 94.55C47.5252 94.55 47.1252 94.66 46.7852 94.88C46.4552 95.09 46.1952 95.405 46.0052 95.825C45.8252 96.235 45.7352 96.745 45.7352 97.355C45.7352 98.255 45.9402 98.95 46.3502 99.44C46.7602 99.92 47.3052 100.16 47.9852 100.16ZM58.8848 101.105C58.6948 101.105 58.5448 101.05 58.4348 100.94C58.3348 100.83 58.2848 100.675 58.2848 100.475V94.685H55.3448V95.615C55.3448 96.395 55.3048 97.085 55.2248 97.685C55.1548 98.275 55.0398 98.785 54.8798 99.215C54.7198 99.645 54.5048 100.005 54.2348 100.295C53.9748 100.585 53.6498 100.83 53.2598 101.03C53.1298 101.09 53.0048 101.105 52.8848 101.075C52.7648 101.055 52.6648 101.01 52.5848 100.94C52.5148 100.86 52.4648 100.765 52.4348 100.655C52.4148 100.545 52.4298 100.435 52.4798 100.325C52.5298 100.215 52.6198 100.125 52.7498 100.055C53.0398 99.895 53.2748 99.695 53.4548 99.455C53.6448 99.215 53.7948 98.915 53.9048 98.555C54.0148 98.195 54.0898 97.775 54.1298 97.295C54.1798 96.805 54.2048 96.23 54.2048 95.57V94.4C54.2048 94.17 54.2648 94 54.3848 93.89C54.5048 93.77 54.6748 93.71 54.8948 93.71H58.8098C59.0298 93.71 59.1998 93.77 59.3198 93.89C59.4398 94 59.4998 94.17 59.4998 94.4V100.475C59.4998 100.675 59.4448 100.83 59.3348 100.94C59.2348 101.05 59.0848 101.105 58.8848 101.105ZM62.5331 101C62.3331 101 62.1781 100.945 62.0681 100.835C61.9581 100.725 61.9031 100.57 61.9031 100.37V94.22C61.9031 94.01 61.9531 93.855 62.0531 93.755C62.1631 93.655 62.3181 93.605 62.5181 93.605C62.7081 93.605 62.8531 93.655 62.9531 93.755C63.0631 93.855 63.1181 94.01 63.1181 94.22V96.305H65.3231C66.2531 96.305 66.9581 96.51 67.4381 96.92C67.9181 97.32 68.1581 97.89 68.1581 98.63C68.1581 99.12 68.0431 99.545 67.8131 99.905C67.5931 100.255 67.2731 100.525 66.8531 100.715C66.4431 100.905 65.9331 101 65.3231 101H62.5331ZM63.1181 100.13H65.2031C65.7731 100.13 66.2131 100.01 66.5231 99.77C66.8331 99.52 66.9881 99.145 66.9881 98.645C66.9881 98.135 66.8331 97.765 66.5231 97.535C66.2131 97.295 65.7731 97.175 65.2031 97.175H63.1181V100.13ZM72.5213 101.135C72.0013 101.135 71.4963 101.075 71.0063 100.955C70.5163 100.835 70.0963 100.66 69.7463 100.43C69.6263 100.35 69.5413 100.26 69.4913 100.16C69.4513 100.06 69.4363 99.96 69.4463 99.86C69.4563 99.76 69.4913 99.675 69.5513 99.605C69.6213 99.535 69.7113 99.495 69.8213 99.485C69.9413 99.465 70.0663 99.5 70.1963 99.59C70.5163 99.79 70.8763 99.94 71.2763 100.04C71.6863 100.14 72.0913 100.19 72.4913 100.19C73.2213 100.19 73.7413 100.085 74.0513 99.875C74.3613 99.655 74.5163 99.345 74.5163 98.945C74.5163 98.555 74.3813 98.26 74.1113 98.06C73.8513 97.86 73.4813 97.76 73.0013 97.76H71.6963C71.5363 97.76 71.4063 97.72 71.3063 97.64C71.2163 97.55 71.1713 97.435 71.1713 97.295C71.1713 97.155 71.2163 97.045 71.3063 96.965C71.4063 96.885 71.5363 96.845 71.6963 96.845H72.8513C73.2813 96.845 73.6213 96.745 73.8713 96.545C74.1313 96.345 74.2613 96.07 74.2613 95.72C74.2613 95.35 74.1263 95.06 73.8563 94.85C73.5863 94.63 73.1313 94.52 72.4913 94.52C72.1013 94.52 71.7263 94.565 71.3663 94.655C71.0063 94.735 70.6613 94.87 70.3313 95.06C70.1513 95.15 70.0013 95.18 69.8813 95.15C69.7613 95.11 69.6713 95.035 69.6113 94.925C69.5513 94.815 69.5413 94.695 69.5813 94.565C69.6213 94.435 69.7163 94.33 69.8663 94.25C70.2563 94.02 70.6863 93.85 71.1563 93.74C71.6263 93.63 72.1213 93.575 72.6413 93.575C73.5613 93.575 74.2513 93.755 74.7113 94.115C75.1813 94.475 75.4163 94.98 75.4163 95.63C75.4163 96.09 75.2563 96.48 74.9363 96.8C74.6163 97.12 74.1913 97.31 73.6613 97.37V97.175C74.2713 97.195 74.7563 97.37 75.1163 97.7C75.4863 98.02 75.6713 98.45 75.6713 98.99C75.6713 99.64 75.4063 100.16 74.8763 100.55C74.3463 100.94 73.5613 101.135 72.5213 101.135ZM80.6073 101.135C79.8973 101.135 79.2823 100.98 78.7623 100.67C78.2423 100.36 77.8373 99.925 77.5473 99.365C77.2673 98.795 77.1273 98.125 77.1273 97.355C77.1273 96.775 77.2073 96.255 77.3673 95.795C77.5273 95.325 77.7623 94.925 78.0723 94.595C78.3823 94.265 78.7473 94.015 79.1673 93.845C79.5973 93.665 80.0773 93.575 80.6073 93.575C81.3173 93.575 81.9323 93.73 82.4523 94.04C82.9723 94.35 83.3723 94.79 83.6523 95.36C83.9423 95.92 84.0873 96.585 84.0873 97.355C84.0873 97.935 84.0073 98.455 83.8473 98.915C83.6873 99.375 83.4523 99.775 83.1423 100.115C82.8323 100.445 82.4623 100.7 82.0323 100.88C81.6123 101.05 81.1373 101.135 80.6073 101.135ZM80.6073 100.16C81.0573 100.16 81.4523 100.05 81.7923 99.83C82.1323 99.61 82.3923 99.29 82.5723 98.87C82.7623 98.45 82.8573 97.945 82.8573 97.355C82.8573 96.445 82.6523 95.75 82.2423 95.27C81.8423 94.79 81.2973 94.55 80.6073 94.55C80.1473 94.55 79.7473 94.66 79.4073 94.88C79.0773 95.09 78.8173 95.405 78.6273 95.825C78.4473 96.235 78.3573 96.745 78.3573 97.355C78.3573 98.255 78.5623 98.95 78.9723 99.44C79.3823 99.92 79.9273 100.16 80.6073 100.16ZM86.6884 101C86.4884 101 86.3334 100.945 86.2234 100.835C86.1134 100.725 86.0584 100.57 86.0584 100.37V94.34C86.0584 94.14 86.1134 93.985 86.2234 93.875C86.3334 93.765 86.4884 93.71 86.6884 93.71H89.6134C90.1934 93.71 90.6684 93.785 91.0384 93.935C91.4084 94.075 91.6834 94.29 91.8634 94.58C92.0434 94.86 92.1334 95.21 92.1334 95.63C92.1334 96.09 91.9684 96.48 91.6384 96.8C91.3184 97.12 90.8984 97.31 90.3784 97.37V97.175C90.9984 97.195 91.4834 97.37 91.8334 97.7C92.1934 98.03 92.3734 98.46 92.3734 98.99C92.3734 99.61 92.1434 100.1 91.6834 100.46C91.2234 100.82 90.5734 101 89.7334 101H86.6884ZM87.2134 100.175H89.6884C90.1784 100.175 90.5534 100.07 90.8134 99.86C91.0834 99.64 91.2184 99.33 91.2184 98.93C91.2184 98.53 91.0834 98.225 90.8134 98.015C90.5534 97.805 90.1784 97.7 89.6884 97.7H87.2134V100.175ZM87.2134 96.875H89.5534C90.0034 96.875 90.3534 96.77 90.6034 96.56C90.8634 96.35 90.9934 96.06 90.9934 95.69C90.9934 95.32 90.8634 95.035 90.6034 94.835C90.3534 94.635 90.0034 94.535 89.5534 94.535H87.2134V96.875ZM96.5715 101.135C96.0715 101.135 95.6215 101.04 95.2215 100.85C94.8315 100.65 94.5215 100.38 94.2915 100.04C94.0615 99.7 93.9465 99.32 93.9465 98.9C93.9465 98.36 94.0815 97.935 94.3515 97.625C94.6315 97.315 95.0865 97.095 95.7165 96.965C96.3565 96.835 97.2265 96.77 98.3265 96.77H99.0015V97.565H98.3415C97.5315 97.565 96.8915 97.605 96.4215 97.685C95.9615 97.755 95.6365 97.88 95.4465 98.06C95.2665 98.24 95.1765 98.495 95.1765 98.825C95.1765 99.235 95.3165 99.57 95.5965 99.83C95.8865 100.09 96.2765 100.22 96.7665 100.22C97.1665 100.22 97.5165 100.125 97.8165 99.935C98.1265 99.745 98.3665 99.485 98.5365 99.155C98.7165 98.825 98.8065 98.445 98.8065 98.015V96.305C98.8065 95.685 98.6815 95.24 98.4315 94.97C98.1815 94.69 97.7715 94.55 97.2015 94.55C96.8515 94.55 96.5015 94.595 96.1515 94.685C95.8015 94.775 95.4315 94.92 95.0415 95.12C94.9015 95.19 94.7815 95.215 94.6815 95.195C94.5815 95.165 94.5015 95.11 94.4415 95.03C94.3815 94.95 94.3465 94.86 94.3365 94.76C94.3265 94.65 94.3465 94.545 94.3965 94.445C94.4565 94.345 94.5465 94.265 94.6665 94.205C95.1065 93.985 95.5415 93.825 95.9715 93.725C96.4015 93.625 96.8115 93.575 97.2015 93.575C97.8315 93.575 98.3515 93.68 98.7615 93.89C99.1715 94.09 99.4765 94.4 99.6765 94.82C99.8765 95.23 99.9765 95.76 99.9765 96.41V100.475C99.9765 100.675 99.9265 100.83 99.8265 100.94C99.7365 101.05 99.6015 101.105 99.4215 101.105C99.2315 101.105 99.0865 101.05 98.9865 100.94C98.8865 100.83 98.8365 100.675 98.8365 100.475V99.305H98.9715C98.8915 99.685 98.7365 100.01 98.5065 100.28C98.2865 100.55 98.0115 100.76 97.6815 100.91C97.3515 101.06 96.9815 101.135 96.5715 101.135ZM104.477 101.105C104.287 101.105 104.137 101.05 104.027 100.94C103.917 100.83 103.862 100.675 103.862 100.475V94.685H101.672C101.292 94.685 101.102 94.52 101.102 94.19C101.102 94.04 101.152 93.925 101.252 93.845C101.352 93.755 101.492 93.71 101.672 93.71H107.282C107.652 93.71 107.837 93.87 107.837 94.19C107.837 94.35 107.787 94.475 107.687 94.565C107.597 94.645 107.462 94.685 107.282 94.685H105.077V100.475C105.077 100.675 105.027 100.83 104.927 100.94C104.837 101.05 104.687 101.105 104.477 101.105ZM112.283 101.135C111.513 101.135 110.848 100.985 110.288 100.685C109.738 100.375 109.308 99.94 108.998 99.38C108.698 98.82 108.548 98.15 108.548 97.37C108.548 96.61 108.698 95.95 108.998 95.39C109.298 94.82 109.708 94.375 110.228 94.055C110.758 93.735 111.368 93.575 112.058 93.575C112.548 93.575 112.988 93.66 113.378 93.83C113.768 93.99 114.098 94.225 114.368 94.535C114.648 94.845 114.858 95.22 114.998 95.66C115.148 96.1 115.223 96.595 115.223 97.145C115.223 97.305 115.178 97.425 115.088 97.505C114.998 97.575 114.868 97.61 114.698 97.61H109.478V96.815H114.413L114.173 97.01C114.173 96.47 114.093 96.015 113.933 95.645C113.773 95.265 113.538 94.975 113.228 94.775C112.928 94.575 112.548 94.475 112.088 94.475C111.578 94.475 111.143 94.595 110.783 94.835C110.433 95.065 110.168 95.39 109.988 95.81C109.808 96.22 109.718 96.7 109.718 97.25V97.34C109.718 98.26 109.938 98.96 110.378 99.44C110.828 99.92 111.463 100.16 112.283 100.16C112.623 100.16 112.958 100.115 113.288 100.025C113.628 99.935 113.958 99.785 114.278 99.575C114.418 99.485 114.543 99.445 114.653 99.455C114.773 99.455 114.868 99.49 114.938 99.56C115.008 99.62 115.053 99.7 115.073 99.8C115.103 99.89 115.093 99.99 115.043 100.1C115.003 100.21 114.918 100.305 114.788 100.385C114.458 100.625 114.068 100.81 113.618 100.94C113.168 101.07 112.723 101.135 112.283 101.135ZM122.708 101.105C122.518 101.105 122.368 101.05 122.258 100.94C122.158 100.83 122.108 100.675 122.108 100.475V94.685H119.168V95.615C119.168 96.395 119.128 97.085 119.048 97.685C118.978 98.275 118.863 98.785 118.703 99.215C118.543 99.645 118.328 100.005 118.058 100.295C117.798 100.585 117.473 100.83 117.083 101.03C116.953 101.09 116.828 101.105 116.708 101.075C116.588 101.055 116.488 101.01 116.408 100.94C116.338 100.86 116.288 100.765 116.258 100.655C116.238 100.545 116.253 100.435 116.303 100.325C116.353 100.215 116.443 100.125 116.573 100.055C116.863 99.895 117.098 99.695 117.278 99.455C117.468 99.215 117.618 98.915 117.728 98.555C117.838 98.195 117.913 97.775 117.953 97.295C118.003 96.805 118.028 96.23 118.028 95.57V94.4C118.028 94.17 118.088 94 118.208 93.89C118.328 93.77 118.498 93.71 118.718 93.71H122.633C122.853 93.71 123.023 93.77 123.143 93.89C123.263 94 123.323 94.17 123.323 94.4V100.475C123.323 100.675 123.268 100.83 123.158 100.94C123.058 101.05 122.908 101.105 122.708 101.105ZM126.356 101C126.156 101 126.001 100.945 125.891 100.835C125.781 100.725 125.726 100.57 125.726 100.37V94.22C125.726 94.01 125.776 93.855 125.876 93.755C125.986 93.655 126.141 93.605 126.341 93.605C126.531 93.605 126.676 93.655 126.776 93.755C126.886 93.855 126.941 94.01 126.941 94.22V96.305H129.146C130.076 96.305 130.781 96.51 131.261 96.92C131.741 97.32 131.981 97.89 131.981 98.63C131.981 99.12 131.866 99.545 131.636 99.905C131.416 100.255 131.096 100.525 130.676 100.715C130.266 100.905 129.756 101 129.146 101H126.356ZM126.941 100.13H129.026C129.596 100.13 130.036 100.01 130.346 99.77C130.656 99.52 130.811 99.145 130.811 98.645C130.811 98.135 130.656 97.765 130.346 97.535C130.036 97.295 129.596 97.175 129.026 97.175H126.941V100.13Z" fill="#242151"/>
<path d="M47.6668 67.3333L46.3335 68.3333L45.0002 70L44.3335 72L44.6668 74L45.3335 76L46.3335 77.3333L47.6668 78.3333L49.3335 78.6667H114H117L119 77.6667L121 75.3333L121.667 73.6667L121.333 70.6667L119.667 68.3333L118.333 67.3333L111.667 63.6667L106 60.6667L103 59L100.667 57.6667L98.3335 56.3333L97.3335 56L96.3335 56.6667L94.0002 58.3333L91.6668 59.6667L89.3335 61L86.3335 62L83.3335 62.6667H82.3335H81.3335L78.6668 62L76.3335 61L74.3335 60L72.3335 58.6667L70.3335 57.3333L68.6668 56L66.6668 57L65.0002 58L63.0002 59L59.3335 61L54.6668 63.6667L50.6668 65.6667L47.6668 67.3333Z" fill="#FF9900" stroke="#FF9900"/>
<path d="M83.0006 1.25C58.0006 1.25 59.2506 25 59.2506 25L58.8472 37.5H61.75C60.1908 33.4136 59.546 26.7262 63 27.5V24.793C69.6924 22.7871 83.0004 16.2428 83 12.5C83.0005 16.7046 98.0274 26.2128 102.808 26.1586L103 27.5L105.5 28.75C106.226 32.924 105.158 35.7329 104.25 37.5086H106.75V25C106.75 25 108.001 1.25 83.0006 1.25Z" fill="#242151" stroke="#7A9FFF" stroke-linecap="round" stroke-linejoin="round"/>
<path d="M93.4452 49.3056C96.959 46.3629 99.0144 42.3877 99.7946 39.8581C105.939 39.8581 106.349 27.9053 101.433 27.9053C101.433 27.9053 101.671 26.2697 101.759 23.75M93.4452 49.3056C90.8097 51.5126 87.3538 53.1389 83 53.1389C72.8413 53.1389 67.5708 44.285 66.2054 39.8581C60.0611 39.8581 59.6514 27.9053 64.5669 27.9053C64.5669 27.9053 64.3291 26.2697 64.2409 23.75M93.4452 49.3056C93.4452 49.3056 94.8692 54.1865 97.3836 55.8426M68.6164 55.8426L46.9034 67.644C45.2561 68.7289 44.25 70.6702 44.25 72.7636C44.25 76.0698 46.7162 78.75 49.7584 78.75H116.242C119.284 78.75 121.75 76.0698 121.75 72.7636C121.75 70.6702 120.744 68.7289 119.097 67.644L97.3836 55.8426M68.6164 55.8426C71.1308 54.1865 72.5548 49.3056 72.5548 49.3056M68.6164 55.8426C79.3134 64.511 85.5954 64.8124 97.3836 55.8426" stroke="#000577" stroke-linecap="round" stroke-linejoin="round"/>
<path d="M78 30C78 31.3807 76.8807 32.5 75.5 32.5C74.1193 32.5 73 31.3807 73 30C73 28.6193 74.1193 27.5 75.5 27.5C76.8807 27.5 78 28.6193 78 30Z" fill="#000577"/>
<path d="M93 30C93 31.3807 91.8807 32.5 90.5 32.5C89.1193 32.5 88 31.3807 88 30C88 28.6193 89.1193 27.5 90.5 27.5C91.8807 27.5 93 28.6193 93 30Z" fill="#000577"/>
</svg>
