<svg width="60" height="60" viewBox="0 0 60 60" fill="none" xmlns="http://www.w3.org/2000/svg">
<path d="M24.6517 34.7377C28.2887 38.5344 33.4093 40.8984 39.082 40.8984C50.1169 40.8984 59.0625 31.9529 59.0625 20.918C59.0625 9.88306 50.1169 0.9375 39.082 0.9375C28.0471 0.9375 19.1016 9.88306 19.1016 20.918C19.1016 26.2801 21.2138 31.1489 24.6517 34.7377ZM24.6517 34.7377L2.8125 57.1875" stroke="#000577" stroke-linecap="round" stroke-linejoin="round"/>
<path d="M18.75 40.3127L2.8125 57.1877" stroke="#7176FF" stroke-width="3" stroke-linecap="round" stroke-linejoin="round"/>
<path d="M38.4744 26.4884V23.7378C38.4744 23.05 39.0321 22.4923 39.72 22.4923C42.4715 22.4923 44.7021 20.2617 44.7021 17.5102V17.1642C44.7021 14.2215 42.3166 11.8361 39.374 11.8361H39.2529C36.2434 11.8361 33.8037 14.2758 33.8037 17.2853V18.1935M38.4744 30.4845L38.4744 30.9376" stroke="#7176FF" stroke-width="1.46667" stroke-linecap="round" stroke-linejoin="round"/>
</svg>
