<svg width="60" height="60" viewBox="0 0 60 60" fill="none" xmlns="http://www.w3.org/2000/svg">
<path d="M26.75 23.4375C26.75 23.1959 26.9459 23 27.1875 23C27.4291 23 27.625 23.1959 27.625 23.4375V42.1875C27.625 42.4291 27.4291 42.625 27.1875 42.625C26.9459 42.625 26.75 42.4291 26.75 42.1875V23.4375ZM32.375 23.4375C32.375 23.1959 32.5709 23 32.8125 23C33.0541 23 33.25 23.1959 33.25 23.4375V42.1875C33.25 42.4291 33.0541 42.625 32.8125 42.625C32.5709 42.625 32.375 42.4291 32.375 42.1875V23.4375Z" fill="#242151" stroke="#7A9FFF"/>
<path d="M22.5 53.4375H37.5M22.5 49.6875H37.5M9.375 21.1262C9.375 9.97631 18.6091 0.9375 30 0.9375C41.3909 0.9375 50.625 9.97631 50.625 21.1262C50.625 27.7134 47.4021 33.5636 42.4157 37.2487C41.4636 37.9523 40.7876 38.9908 40.6749 40.1692L40.2686 42.5444C40.0846 44.4684 38.4684 45.9375 36.5356 45.9375H23.4644C21.5316 45.9375 19.9154 44.4685 19.7314 42.5444L19.3251 40.1692C19.2124 38.9908 18.5364 37.9523 17.5843 37.2487C12.5979 33.5636 9.375 27.7134 9.375 21.1262Z" stroke="#000577" stroke-linecap="round"/>
<path d="M30 59.0625C31.0355 59.0625 31.875 58.223 31.875 57.1875H28.125C28.125 58.223 28.9645 59.0625 30 59.0625Z" fill="#242151"/>
<path d="M47.8125 36.5625L59.0625 40.3125M44.0625 40.3125L59.0625 53.4375M12.1875 36.5625L0.9375 40.3125M15.9375 40.3125L0.9375 53.4375M31.875 57.1875C31.875 58.223 31.0355 59.0625 30 59.0625C28.9645 59.0625 28.125 58.223 28.125 57.1875H31.875Z" stroke="#7A9FFF" stroke-linecap="round" stroke-linejoin="round"/>
</svg>
