<svg width="60" height="60" viewBox="0 0 60 60" fill="none" xmlns="http://www.w3.org/2000/svg">
<path d="M26.25 51.5625C26.25 51.0447 26.6697 50.625 27.1875 50.625H53.4375C53.9553 50.625 54.375 51.0447 54.375 51.5625C54.375 52.0803 53.9553 52.5 53.4375 52.5H27.1875C26.6697 52.5 26.25 52.0803 26.25 51.5625Z" fill="#242151"/>
<path d="M15 38.4375C15 37.9197 15.4197 37.5 15.9375 37.5H22.5C23.0178 37.5 23.4375 37.9197 23.4375 38.4375C23.4375 38.9553 23.0178 39.375 22.5 39.375H15.9375C15.4197 39.375 15 38.9553 15 38.4375Z" fill="#242151"/>
<path d="M5.625 21.5625C5.625 21.0447 6.04473 20.625 6.5625 20.625H12.7728C13.2905 20.625 13.7103 21.0447 13.7103 21.5625C13.7103 22.0803 13.2905 22.5 12.7728 22.5H6.5625C6.04473 22.5 5.625 22.0803 5.625 21.5625Z" fill="#242151"/>
<path d="M5.625 45.9375C5.625 45.4197 6.04473 45 6.5625 45H12.7728C13.2905 45 13.7103 45.4197 13.7103 45.9375C13.7103 46.4553 13.2905 46.875 12.7728 46.875H6.5625C6.04473 46.875 5.625 46.4553 5.625 45.9375Z" fill="#242151"/>
<path d="M13.0078 50.3906H6.04911C4.26158 50.3906 2.8125 48.9166 2.8125 47.0984V8.75977M8.47656 2.8125V5.46753C8.47656 7.28578 7.02748 8.75977 5.23996 8.75977H2.8125M8.47656 2.8125H33.5603C35.3478 2.8125 36.7969 4.28648 36.7969 6.10474M8.47656 2.8125L2.8125 8.75977M18.6719 6.21094V8.86597C18.6719 10.6842 17.2228 12.1582 15.4353 12.1582H13.0078M18.6719 6.21094H43.7556C45.5431 6.21094 46.9922 7.68492 46.9922 9.50317M18.6719 6.21094L13.0078 12.1582M13.0078 12.1582V50.4968C13.0078 52.3151 14.4569 53.7891 16.2444 53.7891H23.2031M28.8672 9.60938V12.2644C28.8672 14.0827 27.4181 15.5566 25.6306 15.5566H23.2031M28.8672 9.60938H53.9509C55.7384 9.60938 57.1875 11.0834 57.1875 12.9016V53.8953C57.1875 55.7135 55.7384 57.1875 53.9509 57.1875H26.4397C24.6522 57.1875 23.2031 55.7135 23.2031 53.8953V15.5566M28.8672 9.60938L23.2031 15.5566M32.3061 41.4025L30.2889 46.1934M32.3061 41.4025L47.0474 26.6613M32.3061 41.4025L36.36 45.4564M30.2889 46.1934L30.0599 46.7372C29.8035 47.3463 30.4162 47.959 31.0252 47.7026L31.569 47.4736M30.2889 46.1934L31.569 47.4736M36.36 45.4564L31.569 47.4736M36.36 45.4564L51.1012 30.7151M47.0474 26.6613L47.8477 25.861C48.4234 25.2853 49.3567 25.2853 49.9324 25.861L51.9015 27.8301C52.4772 28.4058 52.4772 29.3391 51.9015 29.9148L51.1012 30.7151M47.0474 26.6613L51.1012 30.7151M26.6016 38.4961C28.3008 35.9473 32.5488 34.248 30 46.9922" stroke="#000577" stroke-linecap="round" stroke-linejoin="round"/>
</svg>
