<svg width="64" height="64" viewBox="0 0 64 64" fill="none" xmlns="http://www.w3.org/2000/svg">
<path d="M16 23C16 21.8954 16.8954 21 18 21H21V25H18C16.8954 25 16 24.1046 16 23Z" fill="#A8ABFF"/>
<path d="M16 32C16 30.8954 16.8954 30 18 30H21L23 34H18C16.8954 34 16 33.1046 16 32Z" fill="#A8ABFF"/>
<path d="M16 41C16 39.8954 16.8954 39 18 39H29L35 43H18C16.8954 43 16 42.1046 16 41Z" fill="#A8ABFF"/>
<path d="M16 48C16 46.8954 16.8954 46 18 46H42C43.1046 46 44 46.8954 44 48C44 49.1046 43.1046 50 42 50H18C16.8954 50 16 49.1046 16 48Z" fill="#A8ABFF"/>
<path d="M20 20H43C44.6569 20 46 21.3431 46 23C46 24.6569 44.6569 26 43 26H20V20Z" fill="#A8ABFF"/>
<path d="M22 29H43C44.6569 29 46 30.3431 46 32C46 33.6569 44.6569 35 43 35H24L22 29Z" fill="#A8ABFF"/>
<path d="M28 38H43C44.6569 38 46 39.3431 46 41C46 42.6569 44.6569 44 43 44H38L28 38Z" fill="#A8ABFF"/>
<path d="M17.9365 9V12.0788C17.9365 14.1873 16.1619 15.8966 13.9728 15.8966H11M17.9365 9L11 15.8966M17.9365 9H25M11 15.8966V55.1823C11 57.2907 12.7746 59 14.9637 59H45.0363C47.2254 59 49 57.2907 49 55.1823V43M28 6H48.0363C50.2254 6 52 7.70926 52 9.81773V40M26.2951 37.0536C30.1746 41.1033 35.6366 43.625 41.6875 43.625C53.4581 43.625 63 34.0831 63 22.3125C63 10.5419 53.4581 1 41.6875 1C29.9169 1 20.375 10.5419 20.375 22.3125C20.375 28.0321 22.6281 33.2255 26.2951 37.0536ZM26.2951 37.0536L3 61" stroke="#000577" stroke-linecap="round" stroke-linejoin="round"/>
<path d="M20 43.0005L3 61.0005" stroke="#A8ABFF" stroke-width="3" stroke-linecap="round" stroke-linejoin="round"/>
</svg>
