<svg width="64" height="64" viewBox="0 0 64 64" fill="none" xmlns="http://www.w3.org/2000/svg">
<path d="M10 31.9996C10 29.7905 11.7909 27.9996 14 27.9996H18C20.2091 27.9996 22 29.7905 22 31.9996V47.9996C22 50.2087 20.2091 51.9996 18 51.9996H14C11.7909 51.9996 10 50.2087 10 47.9996V31.9996Z" fill="#7176FF"/>
<path d="M26 29.9628C26 28.8786 26.879 27.9996 27.9632 27.9996H52.0368C53.121 27.9996 54 28.8786 54 29.9628C54 31.047 53.1211 31.926 52.0368 31.926H27.9632C26.879 31.926 26 31.047 26 29.9628Z" fill="#7176FF"/>
<path d="M26 35.9628C26 34.8786 26.879 33.9996 27.9632 33.9996H52.0368C53.121 33.9996 54 34.8786 54 35.9628C54 37.047 53.1211 37.926 52.0368 37.926H27.9632C26.879 37.926 26 37.047 26 35.9628Z" fill="#7176FF"/>
<path d="M26 44.2205C26 42.0113 27.7909 40.2205 30 40.2205H50C52.2091 40.2205 54 42.0113 54 44.2205V47.9996C54 50.2087 52.2091 51.9996 50 51.9996H30C27.7909 51.9996 26 50.2087 26 47.9996V44.2205Z" fill="#7176FF"/>
<path d="M57 56.9992V27.215C57 25.0059 55.2091 23.215 53 23.215H11C8.79086 23.215 7 25.0059 7 27.215V56.9992M57 56.9992H7M57 56.9992H60.2C60.6418 56.9992 61 57.3574 61 57.7992C61 59.5665 59.5673 60.9992 57.8 60.9992H6.2C4.43269 60.9992 3 59.5665 3 57.7992C3 57.3574 3.35817 56.9992 3.8 56.9992H7M32 3V16.999M25 16.999L17 6.99902M39 16.999L47 6.99902" stroke="#000577" stroke-linecap="round" stroke-linejoin="round"/>
</svg>
