<svg width="64" height="64" viewBox="0 0 64 64" fill="none" xmlns="http://www.w3.org/2000/svg">
<path d="M9.31373 59.4997C6.61096 59.4997 4.66293 56.7623 5.53302 54.0758L8.84684 43.8438C9.49253 41.8502 11.3494 40.4997 13.445 40.4997H30.869C32.9646 40.4997 34.8215 41.8502 35.4671 43.8438L38.781 54.0758C39.6511 56.7623 37.703 59.4997 35.0003 59.4997H9.31373ZM56.0002 59.5C55.1718 59.5 54.5003 58.8284 54.5003 58V23.9998C54.5003 23.1713 55.1718 22.4998 56.0002 22.4998C56.8287 22.4998 57.5002 23.1713 57.5002 23.9998V58C57.5002 58.8284 56.8287 59.5 56.0002 59.5ZM17.5001 32.6667C17.5001 33.1269 17.127 33.5 16.6668 33.5C16.2065 33.5 15.8335 33.1269 15.8335 32.6667C15.8335 32.2064 16.2065 31.8333 16.6668 31.8333C17.127 31.8333 17.5001 32.2064 17.5001 32.6667ZM28.1668 35.3333C28.1668 36.53 27.1967 37.5 26.0001 37.5C24.8035 37.5 23.8334 36.53 23.8334 35.3333C23.8334 34.1367 24.8035 33.1667 26.0001 33.1667C27.1967 33.1667 28.1668 34.1367 28.1668 35.3333ZM24.1668 25.3333C24.1668 26.1618 23.4952 26.8333 22.6668 26.8333C21.8384 26.8333 21.1668 26.1618 21.1668 25.3333C21.1668 24.5049 21.8384 23.8333 22.6668 23.8333C23.4952 23.8333 24.1668 24.5049 24.1668 25.3333ZM55.5002 19C55.5002 19.2761 55.2764 19.5 55.0002 19.5C54.7241 19.5 54.5003 19.2761 54.5003 19C54.5003 18.7239 54.7241 18.5 55.0002 18.5C55.2764 18.5 55.5002 18.7239 55.5002 19ZM57.0002 13.5C57.2764 13.5 57.5002 13.7239 57.5002 14C57.5002 14.2761 57.2764 14.5 57.0002 14.5C56.7241 14.5 56.5002 14.2761 56.5002 14C56.5002 13.7239 56.7241 13.5 57.0002 13.5Z" fill="#7176FF" stroke="#7176FF"/>
<path d="M12.3825 5.12903V20.8163C12.3825 21.408 12.2868 21.9959 12.0991 22.5572L1.00025 55.7537C-0.191637 59.3186 2.46979 63 6.23887 63H37.8531C41.6222 63 44.2836 59.3186 43.0917 55.7537L31.9928 22.5572C31.8051 21.9959 31.7095 21.408 31.7095 20.8163V5.12903M12.3825 5.12903H31.7095M12.3825 5.12903H11.6922C10.5486 5.12903 9.6215 4.20472 9.6215 3.06452C9.6215 1.92432 10.5486 1 11.6922 1H32.3997C33.5434 1 34.4705 1.92432 34.4705 3.06452C34.4705 4.20472 33.5434 5.12903 32.3997 5.12903H31.7095M51.0002 8.667V57.2308C51.0002 60.4151 53.0002 63 56.0002 63C59.0002 63 61.0002 60.4151 61.0002 57.2308V8.667M51.0002 8.667H61.0002M51.0002 8.667C49.8957 8.667 49.0002 7.77157 49.0002 6.667C49.0002 5.56243 49.8957 4.667 51.0002 4.667H61.0002C62.1048 4.667 63.0002 5.56243 63.0002 6.667C63.0002 7.77157 62.1048 8.667 61.0002 8.667" stroke="#000577"/>
</svg>
