<svg width="165" height="174" viewBox="0 0 165 174" fill="none" xmlns="http://www.w3.org/2000/svg">
<path d="M40.6092 101.105C40.4192 101.105 40.2692 101.05 40.1592 100.94C40.0492 100.82 39.9942 100.66 39.9942 100.46V91.49H36.6192C36.4392 91.49 36.2992 91.44 36.1992 91.34C36.0992 91.24 36.0492 91.11 36.0492 90.95C36.0492 90.78 36.0992 90.65 36.1992 90.56C36.2992 90.47 36.4392 90.425 36.6192 90.425H44.6142C44.7942 90.425 44.9342 90.47 45.0342 90.56C45.1342 90.65 45.1842 90.78 45.1842 90.95C45.1842 91.12 45.1342 91.255 45.0342 91.355C44.9342 91.445 44.7942 91.49 44.6142 91.49H41.2392V100.46C41.2392 100.66 41.1842 100.82 41.0742 100.94C40.9742 101.05 40.8192 101.105 40.6092 101.105ZM48.4001 101.135C47.6301 101.135 46.9651 100.985 46.4051 100.685C45.8551 100.375 45.4251 99.94 45.1151 99.38C44.8151 98.82 44.6651 98.15 44.6651 97.37C44.6651 96.61 44.8151 95.95 45.1151 95.39C45.4151 94.82 45.8251 94.375 46.3451 94.055C46.8751 93.735 47.4851 93.575 48.1751 93.575C48.6651 93.575 49.1051 93.66 49.4951 93.83C49.8851 93.99 50.2151 94.225 50.4851 94.535C50.7651 94.845 50.9751 95.22 51.1151 95.66C51.2651 96.1 51.3401 96.595 51.3401 97.145C51.3401 97.305 51.2951 97.425 51.2051 97.505C51.1151 97.575 50.9851 97.61 50.8151 97.61H45.5951V96.815H50.5301L50.2901 97.01C50.2901 96.47 50.2101 96.015 50.0501 95.645C49.8901 95.265 49.6551 94.975 49.3451 94.775C49.0451 94.575 48.6651 94.475 48.2051 94.475C47.6951 94.475 47.2601 94.595 46.9001 94.835C46.5501 95.065 46.2851 95.39 46.1051 95.81C45.9251 96.22 45.8351 96.7 45.8351 97.25V97.34C45.8351 98.26 46.0551 98.96 46.4951 99.44C46.9451 99.92 47.5801 100.16 48.4001 100.16C48.7401 100.16 49.0751 100.115 49.4051 100.025C49.7451 99.935 50.0751 99.785 50.3951 99.575C50.5351 99.485 50.6601 99.445 50.7701 99.455C50.8901 99.455 50.9851 99.49 51.0551 99.56C51.1251 99.62 51.1701 99.7 51.1901 99.8C51.2201 99.89 51.2101 99.99 51.1601 100.1C51.1201 100.21 51.0351 100.305 50.9051 100.385C50.5751 100.625 50.1851 100.81 49.7351 100.94C49.2851 101.07 48.8401 101.135 48.4001 101.135ZM53.6985 101.105C53.4985 101.105 53.3485 101.05 53.2485 100.94C53.1485 100.83 53.0985 100.675 53.0985 100.475V94.22C53.0985 94.02 53.1485 93.87 53.2485 93.77C53.3485 93.66 53.4935 93.605 53.6835 93.605C53.8735 93.605 54.0185 93.66 54.1185 93.77C54.2285 93.87 54.2835 94.02 54.2835 94.22V95.51L54.1185 95.33C54.3285 94.75 54.6685 94.315 55.1385 94.025C55.6185 93.725 56.1685 93.575 56.7885 93.575C57.3685 93.575 57.8485 93.68 58.2285 93.89C58.6185 94.1 58.9085 94.42 59.0985 94.85C59.2885 95.27 59.3835 95.805 59.3835 96.455V100.475C59.3835 100.675 59.3285 100.83 59.2185 100.94C59.1185 101.05 58.9735 101.105 58.7835 101.105C58.5835 101.105 58.4285 101.05 58.3185 100.94C58.2185 100.83 58.1685 100.675 58.1685 100.475V96.53C58.1685 95.85 58.0335 95.355 57.7635 95.045C57.5035 94.725 57.0835 94.565 56.5035 94.565C55.8335 94.565 55.2985 94.775 54.8985 95.195C54.5085 95.605 54.3135 96.155 54.3135 96.845V100.475C54.3135 100.895 54.1085 101.105 53.6985 101.105ZM64.3989 101.135C63.7489 101.135 63.1789 100.98 62.6889 100.67C62.2089 100.36 61.8339 99.925 61.5639 99.365C61.3039 98.795 61.1739 98.125 61.1739 97.355C61.1739 96.575 61.3039 95.905 61.5639 95.345C61.8339 94.775 62.2089 94.34 62.6889 94.04C63.1789 93.73 63.7489 93.575 64.3989 93.575C65.0589 93.575 65.6239 93.74 66.0939 94.07C66.5639 94.4 66.8789 94.845 67.0389 95.405H66.8739V90.935C66.8739 90.735 66.9239 90.585 67.0239 90.485C67.1339 90.375 67.2889 90.32 67.4889 90.32C67.6789 90.32 67.8239 90.375 67.9239 90.485C68.0339 90.585 68.0889 90.735 68.0889 90.935V100.475C68.0889 100.675 68.0389 100.83 67.9389 100.94C67.8389 101.05 67.6889 101.105 67.4889 101.105C67.2989 101.105 67.1489 101.05 67.0389 100.94C66.9389 100.83 66.8889 100.675 66.8889 100.475V99.05L67.0539 99.26C66.8939 99.83 66.5739 100.285 66.0939 100.625C65.6239 100.965 65.0589 101.135 64.3989 101.135ZM64.6539 100.16C65.1039 100.16 65.4989 100.05 65.8389 99.83C66.1789 99.61 66.4389 99.29 66.6189 98.87C66.8089 98.45 66.9039 97.945 66.9039 97.355C66.9039 96.445 66.6989 95.75 66.2889 95.27C65.8889 94.79 65.3439 94.55 64.6539 94.55C64.1939 94.55 63.7939 94.66 63.4539 94.88C63.1239 95.09 62.8639 95.405 62.6739 95.825C62.4939 96.235 62.4039 96.745 62.4039 97.355C62.4039 98.255 62.6089 98.95 63.0189 99.44C63.4289 99.92 63.9739 100.16 64.6539 100.16ZM73.654 101.135C72.884 101.135 72.219 100.985 71.659 100.685C71.109 100.375 70.679 99.94 70.369 99.38C70.069 98.82 69.919 98.15 69.919 97.37C69.919 96.61 70.069 95.95 70.369 95.39C70.669 94.82 71.079 94.375 71.599 94.055C72.129 93.735 72.739 93.575 73.429 93.575C73.919 93.575 74.359 93.66 74.749 93.83C75.139 93.99 75.469 94.225 75.739 94.535C76.019 94.845 76.229 95.22 76.369 95.66C76.519 96.1 76.594 96.595 76.594 97.145C76.594 97.305 76.549 97.425 76.459 97.505C76.369 97.575 76.239 97.61 76.069 97.61H70.849V96.815H75.784L75.544 97.01C75.544 96.47 75.464 96.015 75.304 95.645C75.144 95.265 74.909 94.975 74.599 94.775C74.299 94.575 73.919 94.475 73.459 94.475C72.949 94.475 72.514 94.595 72.154 94.835C71.804 95.065 71.539 95.39 71.359 95.81C71.179 96.22 71.089 96.7 71.089 97.25V97.34C71.089 98.26 71.309 98.96 71.749 99.44C72.199 99.92 72.834 100.16 73.654 100.16C73.994 100.16 74.329 100.115 74.659 100.025C74.999 99.935 75.329 99.785 75.649 99.575C75.789 99.485 75.914 99.445 76.024 99.455C76.144 99.455 76.239 99.49 76.309 99.56C76.379 99.62 76.424 99.7 76.444 99.8C76.474 99.89 76.464 99.99 76.414 100.1C76.374 100.21 76.289 100.305 76.159 100.385C75.829 100.625 75.439 100.81 74.989 100.94C74.539 101.07 74.094 101.135 73.654 101.135ZM78.9674 101.105C78.7674 101.105 78.6124 101.05 78.5024 100.94C78.4024 100.83 78.3524 100.675 78.3524 100.475V94.22C78.3524 94.02 78.4024 93.87 78.5024 93.77C78.6024 93.66 78.7474 93.605 78.9374 93.605C79.1274 93.605 79.2724 93.66 79.3724 93.77C79.4824 93.87 79.5374 94.02 79.5374 94.22V95.435H79.3874C79.5474 94.845 79.8524 94.39 80.3024 94.07C80.7524 93.75 81.3074 93.58 81.9674 93.56C82.1174 93.55 82.2374 93.585 82.3274 93.665C82.4174 93.735 82.4674 93.86 82.4774 94.04C82.4874 94.21 82.4474 94.345 82.3574 94.445C82.2674 94.545 82.1274 94.605 81.9374 94.625L81.6974 94.655C81.0174 94.715 80.4924 94.935 80.1224 95.315C79.7624 95.685 79.5824 96.195 79.5824 96.845V100.475C79.5824 100.675 79.5274 100.83 79.4174 100.94C79.3174 101.05 79.1674 101.105 78.9674 101.105ZM88.4684 101.135C87.4284 101.135 86.5384 100.915 85.7984 100.475C85.0584 100.035 84.4884 99.41 84.0884 98.6C83.6984 97.79 83.5034 96.825 83.5034 95.705C83.5034 94.865 83.6134 94.115 83.8334 93.455C84.0634 92.785 84.3884 92.22 84.8084 91.76C85.2384 91.29 85.7634 90.93 86.3834 90.68C87.0034 90.42 87.6984 90.29 88.4684 90.29C89.0884 90.29 89.6784 90.38 90.2384 90.56C90.7984 90.73 91.2834 90.985 91.6934 91.325C91.8234 91.425 91.9084 91.54 91.9484 91.67C91.9984 91.79 92.0034 91.91 91.9634 92.03C91.9334 92.14 91.8734 92.235 91.7834 92.315C91.7034 92.385 91.6034 92.42 91.4834 92.42C91.3634 92.42 91.2284 92.37 91.0784 92.27C90.7184 91.98 90.3234 91.765 89.8934 91.625C89.4634 91.485 88.9984 91.415 88.4984 91.415C87.7084 91.415 87.0384 91.585 86.4884 91.925C85.9384 92.255 85.5234 92.74 85.2434 93.38C84.9634 94.02 84.8234 94.795 84.8234 95.705C84.8234 96.615 84.9634 97.395 85.2434 98.045C85.5234 98.685 85.9384 99.175 86.4884 99.515C87.0384 99.845 87.7084 100.01 88.4984 100.01C88.9884 100.01 89.4534 99.94 89.8934 99.8C90.3334 99.65 90.7384 99.43 91.1084 99.14C91.2584 99.04 91.3934 98.995 91.5134 99.005C91.6334 99.005 91.7334 99.04 91.8134 99.11C91.8934 99.18 91.9484 99.27 91.9784 99.38C92.0184 99.49 92.0184 99.605 91.9784 99.725C91.9484 99.845 91.8734 99.95 91.7534 100.04C91.3334 100.4 90.8384 100.675 90.2684 100.865C89.7084 101.045 89.1084 101.135 88.4684 101.135ZM94.4212 101.105C94.2212 101.105 94.0712 101.05 93.9712 100.94C93.8712 100.83 93.8212 100.675 93.8212 100.475V90.935C93.8212 90.735 93.8712 90.585 93.9712 90.485C94.0712 90.375 94.2212 90.32 94.4212 90.32C94.6112 90.32 94.7612 90.375 94.8712 90.485C94.9812 90.585 95.0362 90.735 95.0362 90.935V95.33H94.8412C95.0512 94.75 95.3912 94.315 95.8612 94.025C96.3412 93.725 96.8912 93.575 97.5112 93.575C98.0912 93.575 98.5712 93.68 98.9512 93.89C99.3412 94.1 99.6312 94.42 99.8212 94.85C100.011 95.27 100.106 95.805 100.106 96.455V100.475C100.106 100.675 100.051 100.83 99.9412 100.94C99.8412 101.05 99.6962 101.105 99.5062 101.105C99.3062 101.105 99.1512 101.05 99.0412 100.94C98.9412 100.83 98.8912 100.675 98.8912 100.475V96.53C98.8912 95.85 98.7562 95.355 98.4862 95.045C98.2262 94.725 97.8062 94.565 97.2262 94.565C96.5562 94.565 96.0212 94.775 95.6212 95.195C95.2312 95.605 95.0362 96.155 95.0362 96.845V100.475C95.0362 100.895 94.8312 101.105 94.4212 101.105ZM104.642 101.135C104.142 101.135 103.692 101.04 103.292 100.85C102.902 100.65 102.592 100.38 102.362 100.04C102.132 99.7 102.017 99.32 102.017 98.9C102.017 98.36 102.152 97.935 102.422 97.625C102.702 97.315 103.157 97.095 103.787 96.965C104.427 96.835 105.297 96.77 106.397 96.77H107.072V97.565H106.412C105.602 97.565 104.962 97.605 104.492 97.685C104.032 97.755 103.707 97.88 103.517 98.06C103.337 98.24 103.247 98.495 103.247 98.825C103.247 99.235 103.387 99.57 103.667 99.83C103.957 100.09 104.347 100.22 104.837 100.22C105.237 100.22 105.587 100.125 105.887 99.935C106.197 99.745 106.437 99.485 106.607 99.155C106.787 98.825 106.877 98.445 106.877 98.015V96.305C106.877 95.685 106.752 95.24 106.502 94.97C106.252 94.69 105.842 94.55 105.272 94.55C104.922 94.55 104.572 94.595 104.222 94.685C103.872 94.775 103.502 94.92 103.112 95.12C102.972 95.19 102.852 95.215 102.752 95.195C102.652 95.165 102.572 95.11 102.512 95.03C102.452 94.95 102.417 94.86 102.407 94.76C102.397 94.65 102.417 94.545 102.467 94.445C102.527 94.345 102.617 94.265 102.737 94.205C103.177 93.985 103.612 93.825 104.042 93.725C104.472 93.625 104.882 93.575 105.272 93.575C105.902 93.575 106.422 93.68 106.832 93.89C107.242 94.09 107.547 94.4 107.747 94.82C107.947 95.23 108.047 95.76 108.047 96.41V100.475C108.047 100.675 107.997 100.83 107.897 100.94C107.807 101.05 107.672 101.105 107.492 101.105C107.302 101.105 107.157 101.05 107.057 100.94C106.957 100.83 106.907 100.675 106.907 100.475V99.305H107.042C106.962 99.685 106.807 100.01 106.577 100.28C106.357 100.55 106.082 100.76 105.752 100.91C105.422 101.06 105.052 101.135 104.642 101.135ZM113.076 101.135C112.426 101.135 111.856 100.98 111.366 100.67C110.886 100.36 110.511 99.925 110.241 99.365C109.981 98.795 109.851 98.125 109.851 97.355C109.851 96.575 109.981 95.905 110.241 95.345C110.511 94.775 110.886 94.34 111.366 94.04C111.856 93.73 112.426 93.575 113.076 93.575C113.736 93.575 114.301 93.74 114.771 94.07C115.241 94.4 115.556 94.845 115.716 95.405H115.551V90.935C115.551 90.735 115.601 90.585 115.701 90.485C115.811 90.375 115.966 90.32 116.166 90.32C116.356 90.32 116.501 90.375 116.601 90.485C116.711 90.585 116.766 90.735 116.766 90.935V100.475C116.766 100.675 116.716 100.83 116.616 100.94C116.516 101.05 116.366 101.105 116.166 101.105C115.976 101.105 115.826 101.05 115.716 100.94C115.616 100.83 115.566 100.675 115.566 100.475V99.05L115.731 99.26C115.571 99.83 115.251 100.285 114.771 100.625C114.301 100.965 113.736 101.135 113.076 101.135ZM113.331 100.16C113.781 100.16 114.176 100.05 114.516 99.83C114.856 99.61 115.116 99.29 115.296 98.87C115.486 98.45 115.581 97.945 115.581 97.355C115.581 96.445 115.376 95.75 114.966 95.27C114.566 94.79 114.021 94.55 113.331 94.55C112.871 94.55 112.471 94.66 112.131 94.88C111.801 95.09 111.541 95.405 111.351 95.825C111.171 96.235 111.081 96.745 111.081 97.355C111.081 98.255 111.286 98.95 111.696 99.44C112.106 99.92 112.651 100.16 113.331 100.16Z" fill="#242151"/>
<path d="M76.3301 122.5L74.8304 122.471L74.8308 122.448L74.8319 122.426L76.3301 122.5ZM76 139.409L74.5003 139.439L74.4997 139.409L74.5003 139.38L76 139.409ZM76.3301 155.909L74.8321 155.986L74.8309 155.962L74.8304 155.939L76.3301 155.909ZM78.1135 170.005C77.5584 170.62 76.6099 170.669 75.9949 170.113L65.9736 161.068C65.3586 160.513 65.3101 159.564 65.8652 158.949C66.4203 158.334 67.3688 158.286 67.9837 158.841L76.8916 166.881L84.9321 157.974C85.4872 157.359 86.4357 157.31 87.0507 157.865C87.6656 158.42 87.7142 159.369 87.1591 159.984L78.1135 170.005ZM78.4982 109.074L77.8283 122.574L74.8319 122.426L75.5018 108.926L78.4982 109.074ZM77.8298 122.529L77.4997 139.438L74.5003 139.38L74.8304 122.471L77.8298 122.529ZM77.4997 139.379L77.8298 155.879L74.8304 155.939L74.5003 139.439L77.4997 139.379ZM77.8281 155.832L78.498 168.923L75.502 169.077L74.8321 155.986L77.8281 155.832Z" fill="#242151" fill-opacity="0.5"/>
<path d="M89.1378 144.105C88.9378 144.105 88.7828 144.05 88.6728 143.94C88.5728 143.82 88.5228 143.66 88.5228 143.46V134.1C88.5228 133.88 88.5778 133.715 88.6878 133.605C88.8078 133.485 88.9778 133.425 89.1978 133.425H96.5778C96.7878 133.425 96.9528 133.485 97.0728 133.605C97.1928 133.715 97.2528 133.88 97.2528 134.1V143.46C97.2528 143.66 97.1978 143.82 97.0878 143.94C96.9778 144.05 96.8278 144.105 96.6378 144.105C96.4378 144.105 96.2828 144.05 96.1728 143.94C96.0628 143.82 96.0078 143.66 96.0078 143.46V134.49H89.7528V143.46C89.7528 143.66 89.7028 143.82 89.6028 143.94C89.5028 144.05 89.3478 144.105 89.1378 144.105ZM102.786 144.135C102.076 144.135 101.461 143.98 100.941 143.67C100.421 143.36 100.016 142.925 99.726 142.365C99.446 141.795 99.306 141.125 99.306 140.355C99.306 139.775 99.386 139.255 99.546 138.795C99.706 138.325 99.941 137.925 100.251 137.595C100.561 137.265 100.926 137.015 101.346 136.845C101.776 136.665 102.256 136.575 102.786 136.575C103.496 136.575 104.111 136.73 104.631 137.04C105.151 137.35 105.551 137.79 105.831 138.36C106.121 138.92 106.266 139.585 106.266 140.355C106.266 140.935 106.186 141.455 106.026 141.915C105.866 142.375 105.631 142.775 105.321 143.115C105.011 143.445 104.641 143.7 104.211 143.88C103.791 144.05 103.316 144.135 102.786 144.135ZM102.786 143.16C103.236 143.16 103.631 143.05 103.971 142.83C104.311 142.61 104.571 142.29 104.751 141.87C104.941 141.45 105.036 140.945 105.036 140.355C105.036 139.445 104.831 138.75 104.421 138.27C104.021 137.79 103.476 137.55 102.786 137.55C102.326 137.55 101.926 137.66 101.586 137.88C101.256 138.09 100.996 138.405 100.806 138.825C100.626 139.235 100.536 139.745 100.536 140.355C100.536 141.255 100.741 141.95 101.151 142.44C101.561 142.92 102.106 143.16 102.786 143.16ZM108.792 144.105C108.682 144.105 108.582 144.08 108.492 144.03C108.412 143.99 108.347 143.92 108.297 143.82C108.257 143.72 108.237 143.595 108.237 143.445V137.205C108.237 137.005 108.287 136.855 108.387 136.755C108.487 136.655 108.622 136.605 108.792 136.605C108.972 136.605 109.107 136.655 109.197 136.755C109.297 136.855 109.347 137.005 109.347 137.205V142.845H108.972L113.337 136.995C113.417 136.885 113.512 136.795 113.622 136.725C113.732 136.645 113.872 136.605 114.042 136.605C114.162 136.605 114.262 136.625 114.342 136.665C114.422 136.705 114.482 136.775 114.522 136.875C114.572 136.965 114.597 137.09 114.597 137.25V143.505C114.597 143.695 114.547 143.845 114.447 143.955C114.357 144.055 114.222 144.105 114.042 144.105C113.862 144.105 113.722 144.055 113.622 143.955C113.532 143.845 113.487 143.695 113.487 143.505V137.85H113.862L109.482 143.715C109.412 143.815 109.322 143.905 109.212 143.985C109.112 144.065 108.972 144.105 108.792 144.105ZM120.102 144.135C119.372 144.135 118.742 143.975 118.212 143.655C117.682 143.335 117.272 142.89 116.982 142.32C116.702 141.74 116.562 141.07 116.562 140.31C116.562 139.73 116.642 139.21 116.802 138.75C116.962 138.29 117.197 137.9 117.507 137.58C117.817 137.25 118.187 137 118.617 136.83C119.057 136.66 119.552 136.575 120.102 136.575C120.462 136.575 120.837 136.63 121.227 136.74C121.617 136.85 121.972 137.04 122.292 137.31C122.392 137.38 122.457 137.465 122.487 137.565C122.517 137.665 122.517 137.765 122.487 137.865C122.457 137.955 122.407 138.035 122.337 138.105C122.267 138.165 122.177 138.2 122.067 138.21C121.967 138.22 121.862 138.185 121.752 138.105C121.492 137.905 121.227 137.765 120.957 137.685C120.687 137.605 120.427 137.565 120.177 137.565C119.787 137.565 119.447 137.63 119.157 137.76C118.867 137.88 118.622 138.055 118.422 138.285C118.222 138.515 118.067 138.8 117.957 139.14C117.857 139.48 117.807 139.875 117.807 140.325C117.807 141.195 118.012 141.885 118.422 142.395C118.832 142.895 119.417 143.145 120.177 143.145C120.427 143.145 120.682 143.105 120.942 143.025C121.212 142.945 121.482 142.805 121.752 142.605C121.862 142.525 121.967 142.49 122.067 142.5C122.167 142.51 122.252 142.55 122.322 142.62C122.392 142.68 122.437 142.76 122.457 142.86C122.487 142.96 122.487 143.06 122.457 143.16C122.427 143.25 122.362 143.33 122.262 143.4C121.942 143.66 121.592 143.85 121.212 143.97C120.832 144.08 120.462 144.135 120.102 144.135ZM124.702 144.105C124.502 144.105 124.347 144.05 124.237 143.94C124.137 143.83 124.087 143.675 124.087 143.475V137.265C124.087 137.055 124.137 136.9 124.237 136.8C124.347 136.69 124.502 136.635 124.702 136.635C124.892 136.635 125.037 136.69 125.137 136.8C125.247 136.9 125.302 137.055 125.302 137.265V139.755H126.667L128.887 136.905C128.987 136.785 129.097 136.71 129.217 136.68C129.337 136.64 129.447 136.64 129.547 136.68C129.657 136.71 129.742 136.77 129.802 136.86C129.872 136.94 129.907 137.04 129.907 137.16C129.907 137.28 129.862 137.405 129.772 137.535L127.657 140.25L127.312 139.86C127.592 139.89 127.837 139.96 128.047 140.07C128.257 140.18 128.457 140.345 128.647 140.565C128.837 140.785 129.042 141.09 129.262 141.48L130.342 143.265C130.412 143.405 130.437 143.53 130.417 143.64C130.407 143.75 130.357 143.85 130.267 143.94C130.177 144.02 130.072 144.07 129.952 144.09C129.842 144.11 129.732 144.095 129.622 144.045C129.512 143.995 129.412 143.905 129.322 143.775L128.137 141.795C127.967 141.515 127.807 141.3 127.657 141.15C127.507 140.99 127.337 140.88 127.147 140.82C126.957 140.76 126.722 140.73 126.442 140.73H125.302V143.475C125.302 143.675 125.247 143.83 125.137 143.94C125.037 144.05 124.892 144.105 124.702 144.105Z" fill="#242151"/>
<path d="M36.3335 32.3332C36.3335 30.6764 37.6766 29.3333 39.3335 29.3333H47.3335C48.9903 29.3333 50.3335 30.6764 50.3335 32.3333V37.6666C50.3335 40.428 48.0949 42.6666 45.3335 42.6666H41.3335C38.5721 42.6666 36.3335 40.428 36.3335 37.6666V32.3332Z" fill="#FF9900"/>
<path d="M63.6665 33.6667C63.6665 32.0099 65.0096 30.6667 66.6665 30.6667H83.3332C84.99 30.6667 86.3332 32.0099 86.3332 33.6667V71.0001C86.3332 73.7615 84.0946 76.0001 81.3332 76.0001H68.6665C65.9051 76.0001 63.6665 73.7615 63.6665 71.0001V33.6667Z" fill="white"/>
<path d="M96.3335 67C96.3335 65.3431 97.6766 64 99.3335 64H107.333C108.99 64 110.333 65.3431 110.333 67V74.3333C110.333 75.9902 108.99 77.3333 107.333 77.3333H99.3335C97.6766 77.3333 96.3335 75.9902 96.3335 74.3333V67Z" fill="#FF9900"/>
<path d="M73 31.3333H77V41.3333C77 42.4378 76.1046 43.3333 75 43.3333C73.8954 43.3333 73 42.4378 73 41.3333V31.3333Z" fill="#FF9900"/>
<path d="M73 54H77V64C77 65.1046 76.1046 66 75 66C73.8954 66 73 65.1046 73 64V54Z" fill="#FF9900"/>
<path fill-rule="evenodd" clip-rule="evenodd" d="M88.3331 77.4999V25.4166C88.3331 24.9563 87.96 24.5833 87.4998 24.5833H85.4164C85.4164 24.5833 85.4164 25.1527 85.4164 25.8552C85.4164 26.9937 84.4935 27.9166 83.355 27.9166H66.6445C65.506 27.9166 64.5831 26.9937 64.5831 25.8552C64.5831 25.1527 64.5831 24.5833 64.5831 24.5833H62.4998C62.0395 24.5833 61.6664 24.9563 61.6664 25.4166V77.4999C61.6664 77.9601 62.0395 78.3332 62.4998 78.3332H87.4998C87.96 78.3332 88.3331 77.9601 88.3331 77.4999ZM66.6664 31.6666C65.7459 31.6666 64.9998 32.4128 64.9998 33.3333V49.9999C64.9998 50.9204 65.7459 51.6666 66.6664 51.6666H83.3331C84.2536 51.6666 84.9998 50.9204 84.9998 49.9999V33.3333C84.9998 32.4128 84.2536 31.6666 83.3331 31.6666H66.6664ZM66.6664 54.1666C65.7459 54.1666 64.9998 54.9128 64.9998 55.8332V72.4999C64.9998 73.4204 65.7459 74.1666 66.6664 74.1666H83.3331C84.2536 74.1666 84.9998 73.4204 84.9998 72.4999V55.8332C84.9998 54.9128 84.2536 54.1666 83.3331 54.1666H66.6664Z" fill="#242151"/>
<path d="M42.4998 29.9999C42.4998 29.5397 42.8729 29.1666 43.3331 29.1666C43.7933 29.1666 44.1664 29.5397 44.1664 29.9999V34.9999C44.1664 35.4602 43.7933 35.8333 43.3331 35.8333C42.8729 35.8333 42.4998 35.4602 42.4998 34.9999V29.9999Z" fill="#242151"/>
<path d="M103.333 64.1666C102.873 64.1666 102.5 64.5397 102.5 64.9999V69.9999C102.5 70.4602 102.873 70.8332 103.333 70.8332C103.793 70.8332 104.166 70.4602 104.166 69.9999V64.9999C104.166 64.5397 103.793 64.1666 103.333 64.1666Z" fill="#242151"/>
<path d="M89.5833 57.4167C89.3071 57.4167 89.0833 57.6405 89.0833 57.9167C89.0833 58.1928 89.3071 58.4167 89.5833 58.4167V57.4167ZM110 4.25C110.276 4.25 110.5 4.02614 110.5 3.75C110.5 3.47386 110.276 3.25 110 3.25V4.25ZM60.4166 76.3333C60.6927 76.3333 60.9166 76.1095 60.9166 75.8333C60.9166 75.5572 60.6927 75.3333 60.4166 75.3333V76.3333ZM41.75 8.33334C41.75 8.05719 41.5262 7.83333 41.25 7.83333C40.9739 7.83333 40.75 8.05719 40.75 8.33333L41.75 8.33334ZM41.25 24.5833L41.75 24.5833L41.25 24.5833ZM60.3338 30.4585C60.6061 30.5042 60.8639 30.3205 60.9096 30.0482C60.9553 29.7758 60.7716 29.518 60.4992 29.4723L60.3338 30.4585ZM79.0832 23.3333C79.0832 23.6095 79.307 23.8333 79.5832 23.8333C79.8593 23.8333 80.0832 23.6095 80.0832 23.3333H79.0832ZM89.5833 43.25C89.3071 43.25 89.0833 43.4739 89.0833 43.75C89.0833 44.0261 89.3071 44.25 89.5833 44.25V43.25ZM89.5833 52.625C89.3071 52.625 89.0833 52.8489 89.0833 53.125C89.0833 53.4011 89.3071 53.625 89.5833 53.625V52.625ZM90.3332 32.9167C90.3332 33.1928 90.557 33.4167 90.8332 33.4167C91.1093 33.4167 91.3332 33.1928 91.3332 32.9167H90.3332ZM91.3332 27.88C91.3332 27.6039 91.1093 27.38 90.8332 27.38C90.557 27.38 90.3332 27.6039 90.3332 27.88H91.3332ZM90.3332 40.5724C90.3332 40.8485 90.557 41.0724 90.8332 41.0724C91.1093 41.0724 91.3332 40.8485 91.3332 40.5724H90.3332ZM91.3332 35.5357C91.3332 35.2596 91.1093 35.0357 90.8332 35.0357C90.557 35.0357 90.3332 35.2596 90.3332 35.5357H91.3332ZM58.2498 50.5952C58.2498 50.8714 58.4737 51.0952 58.7498 51.0952C59.026 51.0952 59.2498 50.8714 59.2498 50.5952H58.2498ZM59.2498 45.5586C59.2498 45.2825 59.026 45.0586 58.7498 45.0586C58.4737 45.0586 58.2498 45.2825 58.2498 45.5586H59.2498ZM72.6248 31.6667V41.875H73.6248V31.6667H72.6248ZM74.7915 44.0417H75.2082V43.0417H74.7915V44.0417ZM77.3748 41.875V31.6667H76.3748V41.875H77.3748ZM75.2082 44.0417C76.4048 44.0417 77.3748 43.0716 77.3748 41.875H76.3748C76.3748 42.5193 75.8525 43.0417 75.2082 43.0417V44.0417ZM72.6248 41.875C72.6248 43.0716 73.5949 44.0417 74.7915 44.0417V43.0417C74.1472 43.0417 73.6248 42.5193 73.6248 41.875H72.6248ZM72.6248 54.1667V64.375H73.6248V54.1667H72.6248ZM74.7915 66.5417H75.2082V65.5417H74.7915V66.5417ZM77.3748 64.375V54.1667H76.3748V64.375H77.3748ZM75.2082 66.5417C76.4048 66.5417 77.3748 65.5716 77.3748 64.375H76.3748C76.3748 65.0193 75.8525 65.5417 75.2082 65.5417V66.5417ZM72.6248 64.375C72.6248 65.5716 73.5949 66.5417 74.7915 66.5417V65.5417C74.1472 65.5417 73.6248 65.0193 73.6248 64.375H72.6248ZM89.5833 58.4167H92.0832V57.4167H89.5833V58.4167ZM94.0832 60.4167V77.0833H95.0832V60.4167H94.0832ZM107.083 20.0833H112.083V19.0833H107.083V20.0833ZM115.083 17.0833V16.25H114.083V17.0833H115.083ZM58.8332 27.5V6.25H57.8332V27.5H58.8332ZM60.8332 4.25H110V3.25H60.8332V4.25ZM52.4165 62.0833V73.3333H53.4165V62.0833H52.4165ZM55.4165 76.3333H60.4166V75.3333H55.4165V76.3333ZM48.7498 60.0833H50.4165V59.0833H48.7498V60.0833ZM46.7498 69.1667V62.0833H45.7498V69.1667H46.7498ZM37.9165 72.1667H43.7498V71.1667H37.9165V72.1667ZM34.9165 47.0833V69.1667H35.9165V47.0833H34.9165ZM51.5832 29.5833V42.0833H52.5832V29.5833H51.5832ZM49.5832 44.0833H37.9165V45.0833H49.5832V44.0833ZM97.0832 80.0833H109.583V79.0833H97.0832V80.0833ZM112.583 77.0833V55.625H111.583V77.0833H112.583ZM105.083 41.25V22.0833H104.083V41.25H105.083ZM40.75 8.33333L40.75 24.5833L41.75 24.5833L41.75 8.33334L40.75 8.33333ZM43.75 27.5833H49.5832V26.5833H43.75V27.5833ZM112.083 13.25H82.0832V14.25H112.083V13.25ZM82.0832 13.25C80.4263 13.25 79.0832 14.5931 79.0832 16.25H80.0832C80.0832 15.1454 80.9786 14.25 82.0832 14.25V13.25ZM40.75 24.5833C40.7499 26.2402 42.0931 27.5833 43.75 27.5833V26.5833C42.6454 26.5833 41.7499 25.6879 41.75 24.5833L40.75 24.5833ZM102.083 44.25C103.74 44.25 105.083 42.9068 105.083 41.25H104.083C104.083 42.3546 103.188 43.25 102.083 43.25V44.25ZM112.583 55.625C112.583 53.9681 111.24 52.625 109.583 52.625V53.625C110.688 53.625 111.583 54.5204 111.583 55.625H112.583ZM51.5832 42.0833C51.5832 43.1879 50.6877 44.0833 49.5832 44.0833V45.0833C51.24 45.0833 52.5832 43.7402 52.5832 42.0833H51.5832ZM35.9165 47.0833C35.9165 45.9788 36.8119 45.0833 37.9165 45.0833V44.0833C36.2596 44.0833 34.9165 45.4265 34.9165 47.0833H35.9165ZM52.5832 29.5833C52.5832 27.9265 51.24 26.5833 49.5832 26.5833V27.5833C50.6877 27.5833 51.5832 28.4788 51.5832 29.5833H52.5832ZM37.9165 71.1667C36.8119 71.1667 35.9165 70.2712 35.9165 69.1667H34.9165C34.9165 70.8235 36.2596 72.1667 37.9165 72.1667V71.1667ZM45.7498 69.1667C45.7498 70.2712 44.8544 71.1667 43.7498 71.1667V72.1667C45.4067 72.1667 46.7498 70.8235 46.7498 69.1667H45.7498ZM48.7498 59.0833C47.093 59.0833 45.7498 60.4265 45.7498 62.0833H46.7498C46.7498 60.9788 47.6453 60.0833 48.7498 60.0833V59.0833ZM52.4165 73.3333C52.4165 74.9902 53.7596 76.3333 55.4165 76.3333V75.3333C54.3119 75.3333 53.4165 74.4379 53.4165 73.3333H52.4165ZM58.8332 6.25C58.8332 5.14543 59.7286 4.25 60.8332 4.25V3.25C59.1763 3.25 57.8332 4.59315 57.8332 6.25H58.8332ZM115.083 16.25C115.083 14.5931 113.74 13.25 112.083 13.25V14.25C113.188 14.25 114.083 15.1454 114.083 16.25H115.083ZM112.083 20.0833C113.74 20.0833 115.083 18.7402 115.083 17.0833H114.083C114.083 18.1879 113.188 19.0833 112.083 19.0833V20.0833ZM107.083 19.0833C105.426 19.0833 104.083 20.4265 104.083 22.0833H105.083C105.083 20.9788 105.979 20.0833 107.083 20.0833V19.0833ZM109.583 80.0833C111.24 80.0833 112.583 78.7402 112.583 77.0833H111.583C111.583 78.1879 110.688 79.0833 109.583 79.0833V80.0833ZM94.0832 77.0833C94.0832 78.7402 95.4263 80.0833 97.0832 80.0833V79.0833C95.9786 79.0833 95.0832 78.1879 95.0832 77.0833H94.0832ZM53.4165 62.0833C53.4165 60.4265 52.0734 59.0833 50.4165 59.0833V60.0833C51.5211 60.0833 52.4165 60.9788 52.4165 62.0833H53.4165ZM92.0832 58.4167C93.1877 58.4167 94.0832 59.3121 94.0832 60.4167H95.0832C95.0832 58.7598 93.74 57.4167 92.0832 57.4167V58.4167ZM57.8332 27.5C57.8332 28.987 58.9145 30.2204 60.3338 30.4585L60.4992 29.4723C59.5537 29.3137 58.8332 28.4905 58.8332 27.5H57.8332ZM79.0832 16.25V23.3333H80.0832V16.25H79.0832ZM89.5833 44.25H102.083V43.25H89.5833V44.25ZM109.583 52.625H89.5833V53.625H109.583V52.625ZM59.9166 25.1411V77.7756H60.9166V25.1411H59.9166ZM62.2243 80.0833H87.7754V79.0833H62.2243V80.0833ZM90.0832 77.7756V25.1411H89.0832V77.7756H90.0832ZM64.5832 22.8333H62.2243V23.8333H64.5832V22.8333ZM64.0832 23.3333V26.0723H65.0832V23.3333H64.0832ZM66.3909 28.38H83.6088V27.38H66.3909V28.38ZM87.7755 22.8333H85.4165V23.8333H87.7755V22.8333ZM85.4165 22.8333H64.5832V23.8333H85.4165V22.8333ZM85.9165 26.0723V23.3333H84.9165V26.0723H85.9165ZM91.3332 32.9167V27.88H90.3332V32.9167H91.3332ZM91.3332 40.5724V35.5357H90.3332V40.5724H91.3332ZM59.2498 50.5952V45.5586H58.2498V50.5952H59.2498ZM83.6088 28.38C84.8833 28.38 85.9165 27.3469 85.9165 26.0723H84.9165C84.9165 26.7946 84.331 27.38 83.6088 27.38V28.38ZM90.0832 25.1411C90.0832 23.8665 89.05 22.8333 87.7755 22.8333V23.8333C88.4977 23.8333 89.0832 24.4188 89.0832 25.1411H90.0832ZM87.7754 80.0833C89.05 80.0833 90.0832 79.0501 90.0832 77.7756H89.0832C89.0832 78.4978 88.4977 79.0833 87.7754 79.0833V80.0833ZM59.9166 77.7756C59.9166 79.0501 60.9498 80.0833 62.2243 80.0833V79.0833C61.5021 79.0833 60.9166 78.4978 60.9166 77.7756H59.9166ZM64.0832 26.0723C64.0832 27.3469 65.1164 28.38 66.3909 28.38V27.38C65.6687 27.38 65.0832 26.7946 65.0832 26.0723H64.0832ZM60.9166 25.1411C60.9166 24.4188 61.5021 23.8333 62.2243 23.8333V22.8333C60.9498 22.8333 59.9166 23.8665 59.9166 25.1411H60.9166ZM37.1665 30.8333C37.1665 30.189 37.6888 29.6667 38.3332 29.6667V28.6667C37.1366 28.6667 36.1665 29.6367 36.1665 30.8333H37.1665ZM38.3332 29.6667H48.3332V28.6667H38.3332V29.6667ZM48.3332 29.6667C48.9775 29.6667 49.4998 30.189 49.4998 30.8333H50.4998C50.4998 29.6367 49.5298 28.6667 48.3332 28.6667V29.6667ZM49.4998 30.8333V40.8333H50.4998V30.8333H49.4998ZM49.4998 40.8333C49.4998 41.4777 48.9775 42 48.3332 42V43C49.5298 43 50.4998 42.0299 50.4998 40.8333H49.4998ZM48.3332 42H38.3332V43H48.3332V42ZM38.3332 42C37.6888 42 37.1665 41.4777 37.1665 40.8333H36.1665C36.1665 42.0299 37.1366 43 38.3332 43V42ZM37.1665 40.8333V30.8333H36.1665V40.8333H37.1665ZM97.1665 65.8333C97.1665 65.189 97.6888 64.6667 98.3332 64.6667V63.6667C97.1366 63.6667 96.1665 64.6367 96.1665 65.8333H97.1665ZM98.3332 64.6667H108.333V63.6667H98.3332V64.6667ZM108.333 64.6667C108.978 64.6667 109.5 65.189 109.5 65.8333H110.5C110.5 64.6367 109.53 63.6667 108.333 63.6667V64.6667ZM109.5 65.8333V75.8333H110.5V65.8333H109.5ZM109.5 75.8333C109.5 76.4777 108.978 77 108.333 77V78C109.53 78 110.5 77.0299 110.5 75.8333H109.5ZM108.333 77H98.3332V78H108.333V77ZM98.3332 77C97.6888 77 97.1665 76.4777 97.1665 75.8333H96.1665C96.1665 77.0299 97.1366 78 98.3332 78V77ZM97.1665 75.8333V65.8333H96.1665V75.8333H97.1665Z" fill="#000577"/>
<path d="M47.5 62.9166C47.5 63.6069 46.9404 64.1666 46.25 64.1666C45.5596 64.1666 45 63.6069 45 62.9166C45 62.2262 45.5596 61.6666 46.25 61.6666C46.9404 61.6666 47.5 62.2262 47.5 62.9166Z" fill="#242151"/>
<path d="M53.3333 32.9166C53.3333 33.6069 52.7737 34.1666 52.0833 34.1666C51.393 34.1666 50.8333 33.6069 50.8333 32.9166C50.8333 32.2262 51.393 31.6666 52.0833 31.6666C52.7737 31.6666 53.3333 32.2262 53.3333 32.9166Z" fill="#242151"/>
<path d="M100 43.7499C100 44.4403 99.4403 44.9999 98.75 44.9999C98.0596 44.9999 97.5 44.4403 97.5 43.7499C97.5 43.0596 98.0596 42.4999 98.75 42.4999C99.4403 42.4999 100 43.0596 100 43.7499Z" fill="#242151"/>
<path d="M59.5833 9.58325C59.5833 10.2736 59.0237 10.8333 58.3333 10.8333C57.643 10.8333 57.0833 10.2736 57.0833 9.58325C57.0833 8.8929 57.643 8.33325 58.3333 8.33325C59.0237 8.33325 59.5833 8.8929 59.5833 9.58325Z" fill="#242151"/>
</svg>
