<svg width="60" height="60" viewBox="0 0 60 60" fill="none" xmlns="http://www.w3.org/2000/svg">
<path d="M24.375 20.625C24.375 19.5895 23.5355 18.75 22.5 18.75H15C13.9645 18.75 13.125 19.5895 13.125 20.625C13.125 21.6605 13.9645 22.5 15 22.5H22.5C23.5355 22.5 24.375 21.6605 24.375 20.625Z" fill="#242151"/>
<path d="M35.625 13.125C35.625 12.0895 36.4645 11.25 37.5 11.25H46.875C47.9105 11.25 48.75 12.0895 48.75 13.125C48.75 14.1605 47.9105 15 46.875 15H37.5C36.4645 15 35.625 14.1605 35.625 13.125Z" fill="#242151"/>
<path d="M48.75 20.625C48.75 19.5895 47.9105 18.75 46.875 18.75H30C28.9645 18.75 28.125 19.5895 28.125 20.625C28.125 21.6605 28.9645 22.5 30 22.5H46.875C47.9105 22.5 48.75 21.6605 48.75 20.625Z" fill="#242151"/>
<path d="M13.125 13.125C13.125 12.0895 13.9645 11.25 15 11.25H31.875C32.9105 11.25 33.75 12.0895 33.75 13.125C33.75 14.1605 32.9105 15 31.875 15H15C13.9645 15 13.125 14.1605 13.125 13.125Z" fill="#242151"/>
<path d="M41.25 28.125C41.25 27.0895 40.4105 26.25 39.375 26.25H15C13.9645 26.25 13.125 27.0895 13.125 28.125C13.125 29.1605 13.9645 30 15 30H39.375C40.4105 30 41.25 29.1605 41.25 28.125Z" fill="#242151"/>
<path d="M48.75 28.125C48.75 27.0895 47.9105 26.25 46.875 26.25H45C43.9645 26.25 43.125 27.0895 43.125 28.125C43.125 29.1605 43.9645 30 45 30H46.875C47.9105 30 48.75 29.1605 48.75 28.125Z" fill="#242151"/>
<path d="M35.0511 37.3384C36.9017 36.5159 36.3147 33.75 34.2896 33.75H26.6926C24.7141 33.75 24.0844 36.4172 25.8541 37.3021C26.1145 37.4322 26.4015 37.5 26.6926 37.5H34.2896C34.5519 37.5 34.8114 37.4449 35.0511 37.3384Z" fill="#242151"/>
<path d="M51.5625 28.7054V6.26488C51.5625 4.35818 50.5683 2.8125 48.6914 2.8125H11.8359C9.95903 2.8125 8.4375 4.35818 8.4375 6.26488V20.0744M8.4375 28.8861V20.0744M3.77623 27.7814C3.32842 27.9722 2.98823 28.332 2.87887 28.8861C2.83534 29.1067 2.8125 29.3349 2.8125 29.5685V53.7351C2.8125 55.6418 4.33403 57.1875 6.21094 57.1875H53.7891C55.666 57.1875 57.1875 55.6418 57.1875 53.7351V29.5685C57.1875 29.3349 57.1647 29.1067 57.1211 28.8861C56.8574 27.5495 55.2507 27.3441 54.0301 27.9105L31.4121 38.4072C30.5153 38.8234 29.4847 38.8234 28.5879 38.4072L5.96985 27.9105C5.25534 27.5789 4.40852 27.5118 3.77623 27.7814ZM3.77623 27.7814L8.4375 20.0744M56.2238 27.7814L51.5625 19.6875" stroke="#000577"/>
</svg>
