<svg width="60" height="60" viewBox="0 0 60 60" fill="none" xmlns="http://www.w3.org/2000/svg">
<path d="M8.84798 16.6586L7.89793 14.8609C5.68621 10.676 10.2217 6.14001 14.432 8.3512L16.4342 9.40269C19.6605 11.0971 23.6398 9.45951 24.726 5.98574L25.3825 3.88592C26.7941 -0.628639 33.2059 -0.628642 34.6175 3.88592L35.1567 5.61048C36.2417 9.08055 40.2144 10.7192 43.4401 9.03186L44.8757 8.28088C49.0824 6.08033 53.6076 10.6059 51.4065 14.7873L50.5192 16.4729C48.8228 19.6955 50.4758 23.6604 53.9598 24.7366L56.0956 25.3964C60.6348 26.7987 60.6348 33.2013 56.0956 34.6036L53.9296 35.2727C50.4419 36.3501 48.7899 40.3216 50.4934 43.5449L51.3359 45.139C53.5477 49.3239 49.0121 53.8599 44.8018 51.6487L43.4578 50.9429C40.2315 49.2485 36.2521 50.8861 35.166 54.3598L34.6175 56.1141C33.2059 60.6286 26.7941 60.6286 25.3825 56.1141L24.7356 54.045C23.6506 50.575 19.6779 48.9363 16.4522 50.6236L14.3582 51.7191C10.1515 53.9196 5.62629 49.394 7.82738 45.2126L8.82181 43.3235C10.5182 40.1009 8.86515 36.136 5.38122 35.0598L3.9044 34.6036C-0.634799 33.2013 -0.634799 26.7987 3.9044 25.3964L5.41183 24.9308C8.89947 23.8534 10.5515 19.8818 8.84798 16.6586Z" stroke="#000577" stroke-linecap="round" stroke-linejoin="round"/>
<circle cx="30" cy="30" r="10.75" stroke="#000577"/>
<circle cx="30" cy="30" r="16.875" stroke="#7A9FFF" stroke-width="2"/>
</svg>
